<?xml version="1.0" standalone="no"?><!DOCTYPE svg PUBLIC "-//W3C//DTD SVG 1.1//EN" "http://www.w3.org/Graphics/SVG/1.1/DTD/svg11.dtd" ><svg xmlns="http://www.w3.org/2000/svg"><metadata></metadata><defs><font id="Monotype Imaging - Noto Serif" horiz-adv-x="2144"><font-face font-family="Noto Serif" font-weight="400" font-stretch="normal" units-per-em="2048" panose-1="2 11 5 2 4 5 4 2 2 4" ascent="2189" descent="-600" x-height="4" bbox="-25 -492 2126 1993" underline-thickness="102" underline-position="-154" unicode-range="U+0021-251c" /><missing-glyph horiz-adv-x="1024" d="M102 0 L102 1462 L922 1462 L922 0 L102 0 ZM201 98 L823 98 L823 1364 L201 1364 L201 98 Z" /><glyph glyph-name="" unicode="!" d="M221 1462 L459 1462 L387 412 L293 412 L221 1462 ZM211 125 Q211 165 221 191.5 Q231 218 248.5 234 Q266 250 289.5 257 Q313 264 340 264 Q366 264 389.5 257 Q413 250 430.5 234 Q448 218 458.5 191.5 Q469 165 469 125 Q469 86 458.5 59 Q448 32 430.5 16 Q413 0 389.5 -7 Q366 -14 340 -14 Q313 -14 289.5 -7 Q266 0 248.5 16 Q231 32 221 59 Q211 86 211 125 Z" /><glyph glyph-name="" unicode="&quot;" d="M502 1462 L719 1462 L657 981 L563 981 L502 1462 ZM117 1462 L334 1462 L272 981 L178 981 L117 1462 Z" /><glyph glyph-name="" unicode="#" d="M387 537 L672 537 L748 938 L463 938 L387 537 ZM1028 537 L1028 416 L770 416 L692 0 L569 0 L647 416 L362 416 L285 0 L162 0 L240 416 L51 416 L51 537 L262 537 L340 938 L117 938 L117 1059 L362 1059 L436 1462 L561 1462 L485 1059 L770 1059 L846 1462 L969 1462 L893 1059 L1094 1059 L1094 938 L870 938 L795 537 L1028 537 Z" /><glyph glyph-name="" unicode="$" d="M621 1401 Q713 1399 777.5 1380.5 Q842 1362 883 1331.5 Q924 1301 942.5 1260 Q961 1219 961 1171 Q961 1105 917 1071.5 Q873 1038 799 1038 Q799 1083 791.5 1128.5 Q784 1174 764.5 1211.5 Q745 1249 710 1275 Q675 1301 621 1307 L621 829 Q713 789 784 749 Q855 709 903 662.5 Q951 616 976 559.5 Q1001 503 1001 430 Q1001 276 902 190.5 Q803 105 621 86 L621 -162 L518 -162 L518 82 Q467 82 415 86.5 Q363 91 313.5 101.5 Q264 112 218.5 128 Q173 144 135 166 L135 481 L221 481 Q221 424 242.5 370.5 Q264 317 303.5 274.5 Q343 232 397.5 204.5 Q452 177 518 172 L518 678 Q422 721 355.5 763 Q289 805 248 851.5 Q207 898 188.5 952 Q170 1006 170 1073 Q170 1142 194.5 1198 Q219 1254 264 1295.5 Q309 1337 373.5 1362.5 Q438 1388 518 1397 L518 1556 L621 1556 L621 1401 ZM813 399 Q813 440 803 472.5 Q793 505 770 533 Q747 561 710.5 585 Q674 609 621 633 L621 178 Q713 194 763 252.5 Q813 311 813 399 ZM354 1090 Q354 1047 364.5 1014.5 Q375 982 396 957 Q417 932 447.5 912 Q478 892 518 874 L518 1303 Q478 1294 447 1274.5 Q416 1255 395.5 1227.5 Q375 1200 364.5 1165 Q354 1130 354 1090 Z" /><glyph glyph-name="" unicode="%" d="M764 1030 Q764 927 743 843 Q722 759 680 699 Q638 639 575 606 Q512 573 428 573 Q340 573 276.5 606 Q213 639 172 699 Q131 759 111.5 843 Q92 927 92 1030 Q92 1133 111.5 1216.5 Q131 1300 172 1359.5 Q213 1419 277 1451 Q341 1483 430 1483 Q514 1483 576.5 1451 Q639 1419 680.5 1359.5 Q722 1300 743 1216.5 Q764 1133 764 1030 ZM276 1030 Q276 942 284 872.5 Q292 803 310 755 Q328 707 357 682 Q386 657 428 657 Q470 657 499 682 Q528 707 545.5 755 Q563 803 570.5 872.5 Q578 942 578 1030 Q578 1117 570.5 1185 Q563 1253 545.5 1300.5 Q528 1348 500 1372.5 Q472 1397 430 1397 Q388 1397 358.5 1372.5 Q329 1348 310.5 1300.5 Q292 1253 284 1185 Q276 1117 276 1030 ZM1743 436 Q1743 333 1722 249 Q1701 165 1659 105 Q1617 45 1554 12.5 Q1491 -20 1407 -20 Q1319 -20 1255 12.5 Q1191 45 1150.5 105 Q1110 165 1090.5 249 Q1071 333 1071 436 Q1071 539 1090.5 622.5 Q1110 706 1151 765.5 Q1192 825 1256 857 Q1320 889 1409 889 Q1493 889 1555.5 857 Q1618 825 1659.5 765.5 Q1701 706 1722 622.5 Q1743 539 1743 436 ZM1255 436 Q1255 348 1263 278.5 Q1271 209 1289 161 Q1307 113 1336 88 Q1365 63 1407 63 Q1449 63 1478 88 Q1507 113 1524 161 Q1541 209 1548.5 278.5 Q1556 348 1556 436 Q1556 523 1548.5 591 Q1541 659 1524 706.5 Q1507 754 1479 778.5 Q1451 803 1409 803 Q1367 803 1337.5 778.5 Q1308 754 1289.5 706.5 Q1271 659 1263 591 Q1255 523 1255 436 ZM616 0 L481 0 L1212 1462 L1346 1462 L616 0 Z" /><glyph glyph-name="" unicode="&amp;" d="M1174 0 L1004 180 Q967 138 922.5 101.5 Q878 65 824 38 Q770 11 704.5 -4.5 Q639 -20 561 -20 Q438 -20 346.5 11 Q255 42 194.5 98.5 Q134 155 104 234 Q74 313 74 410 Q74 497 97.5 561.5 Q121 626 163.5 675 Q206 724 266.5 761 Q327 798 401 829 Q362 875 332.5 917.5 Q303 960 283.5 1002 Q264 1044 254 1088 Q244 1132 244 1182 Q244 1250 266 1305 Q288 1360 335 1400 Q382 1440 455.5 1461.5 Q529 1483 631 1483 Q729 1483 798 1460 Q867 1437 910.5 1397 Q954 1357 973.5 1304 Q993 1251 993 1192 Q993 1126 974 1075 Q955 1024 913.5 981 Q872 938 806.5 899.5 Q741 861 647 821 L1020 426 Q1034 472 1043 519.5 Q1052 567 1057.5 612.5 Q1063 658 1065 701.5 Q1067 745 1067 782 L1067 862 L1436 862 L1436 776 L1417 776 Q1383 776 1350 772 Q1317 768 1288.5 753.5 Q1260 739 1237.5 711.5 Q1215 684 1202 637 Q1184 571 1160.5 494 Q1137 417 1102 340 L1292 137 Q1307 122 1323 112 Q1339 102 1360.5 96 Q1382 90 1411.5 88 Q1441 86 1483 86 L1501 86 L1501 0 L1174 0 ZM580 94 Q640 94 691.5 106.5 Q743 119 786 141 Q829 163 865 193.5 Q901 224 930 260 L477 745 Q430 719 392.5 687.5 Q355 656 328.5 614.5 Q302 573 288 521 Q274 469 274 403 Q274 328 296 270.5 Q318 213 358.5 173.5 Q399 134 455 114 Q511 94 580 94 ZM813 1190 Q813 1231 803 1266 Q793 1301 770.5 1326.5 Q748 1352 711.5 1367 Q675 1382 623 1382 Q532 1382 483 1329 Q434 1276 434 1188 Q434 1149 442 1115 Q450 1081 467.5 1047.5 Q485 1014 512 978 Q539 942 578 899 Q638 925 682.5 954 Q727 983 756 1017.5 Q785 1052 799 1094 Q813 1136 813 1190 Z" /><glyph glyph-name="" unicode="&#39;" d="M117 1462 L334 1462 L272 981 L178 981 L117 1462 Z" /><glyph glyph-name="" unicode="(" d="M330 649 Q330 527 339.5 408 Q349 289 381 182.5 Q413 76 475.5 -14 Q538 -104 643 -168 L643 -262 Q502 -206 402 -126 Q302 -46 238.5 64.5 Q175 175 146 319.5 Q117 464 117 649 Q117 834 146 977.5 Q175 1121 238.5 1231 Q302 1341 402 1420.5 Q502 1500 643 1556 L643 1464 Q538 1400 475.5 1310.5 Q413 1221 381 1115 Q349 1009 339.5 890 Q330 771 330 649 Z" /><glyph glyph-name="" unicode=")" d="M379 649 Q379 771 369.5 890 Q360 1009 327.5 1115 Q295 1221 233 1310.5 Q171 1400 66 1464 L66 1556 Q207 1500 307 1420.5 Q407 1341 470 1231 Q533 1121 562.5 977.5 Q592 834 592 649 Q592 464 562.5 319.5 Q533 175 470 64.5 Q407 -46 307 -126 Q207 -206 66 -262 L66 -168 Q171 -104 233 -14 Q295 76 327.5 182.5 Q360 289 369.5 408 Q379 527 379 649 Z" /><glyph glyph-name="" unicode="*" d="M84 1268 L156 1430 L471 1231 L418 1556 L596 1556 L539 1233 L856 1425 L928 1266 L582 1165 L928 1065 L856 907 L539 1098 L596 774 L418 774 L469 1098 L156 903 L84 1063 L428 1165 L84 1268 Z" /><glyph glyph-name="" unicode="+" d="M633 672 L633 293 L510 293 L510 672 L133 672 L133 793 L510 793 L510 1171 L633 1171 L633 793 L1012 793 L1012 672 L633 672 Z" /><glyph glyph-name="" unicode="," d="M397 86 Q397 21 379 -40 Q361 -101 320.5 -153 Q280 -205 216.5 -246.5 Q153 -288 61 -315 L61 -229 Q162 -197 209 -151 Q256 -105 256 -45 Q256 -25 245 -11.5 Q234 2 217 12.5 Q200 23 181 33 Q162 43 145 57 Q128 71 117 91.5 Q106 112 106 143 Q106 202 144.5 233 Q183 264 240 264 Q272 264 300 252.5 Q328 241 350 218.5 Q372 196 384.5 162.5 Q397 129 397 86 Z" /><glyph glyph-name="" unicode="-" d="M51 481 L51 635 L584 635 L584 481 L51 481 Z" /><glyph glyph-name="" unicode="." d="M127 125 Q127 165 137 191.5 Q147 218 164.5 234 Q182 250 205.5 257 Q229 264 256 264 Q282 264 305.5 257 Q329 250 346.5 234 Q364 218 374.5 191.5 Q385 165 385 125 Q385 86 374.5 59 Q364 32 346.5 16 Q329 0 305.5 -7 Q282 -14 256 -14 Q229 -14 205.5 -7 Q182 0 164.5 16 Q147 32 137 59 Q127 86 127 125 Z" /><glyph glyph-name="" unicode="/" d="M121 -248 L0 -248 L471 1556 L590 1556 L121 -248 Z" /><glyph glyph-name="" unicode="0" d="M1053 733 Q1053 564 1023.5 425 Q994 286 934 187 Q874 88 784 34 Q694 -20 573 -20 Q447 -20 356 34 Q265 88 206.5 187 Q148 286 120 425.5 Q92 565 92 735 Q92 905 120 1043 Q148 1181 206.5 1279 Q265 1377 356.5 1430 Q448 1483 575 1483 Q695 1483 784.5 1430 Q874 1377 934 1279 Q994 1181 1023.5 1042.5 Q1053 904 1053 733 ZM305 733 Q305 581 319 461.5 Q333 342 364.5 259.5 Q396 177 447.5 133.5 Q499 90 573 90 Q648 90 699 133.5 Q750 177 781.5 259.5 Q813 342 826.5 461.5 Q840 581 840 733 Q840 885 826.5 1004 Q813 1123 781.5 1205 Q750 1287 699.5 1329.5 Q649 1372 575 1372 Q500 1372 448.5 1329.5 Q397 1287 365 1205 Q333 1123 319 1004 Q305 885 305 733 Z" /><glyph glyph-name="" unicode="1" d="M197 0 L197 86 L334 86 Q369 86 399.5 91 Q430 96 452.5 111.5 Q475 127 488.5 156 Q502 185 502 233 L502 1309 Q463 1261 428 1222 Q393 1183 361 1155 Q329 1127 298.5 1111.5 Q268 1096 238 1096 Q193 1096 164 1126.5 Q135 1157 135 1206 Q166 1214 197.5 1225.5 Q229 1237 264.5 1255.5 Q300 1274 341.5 1300.5 Q383 1327 434 1364 L578 1470 L709 1470 L709 233 Q709 185 722 156 Q735 127 758 111.5 Q781 96 811.5 91 Q842 86 877 86 L977 86 L977 0 L197 0 Z" /><glyph glyph-name="" unicode="2" d="M944 1141 Q944 1069 921 1001 Q898 933 854 861.5 Q810 790 746.5 713 Q683 636 602 547 L256 164 L729 164 Q775 164 805 177 Q835 190 854 211 Q873 232 883.5 259.5 Q894 287 901 317 L909 354 L995 354 L985 0 L104 0 L104 150 L446 545 Q528 640 583.5 715 Q639 790 673 856.5 Q707 923 722 986.5 Q737 1050 737 1120 Q737 1179 724.5 1226.5 Q712 1274 686.5 1308.5 Q661 1343 621.5 1361.5 Q582 1380 528 1380 Q458 1380 414.5 1355 Q371 1330 346 1288 Q321 1246 312 1191 Q303 1136 303 1075 Q266 1075 234 1081 Q202 1087 178 1102.5 Q154 1118 140.5 1143.5 Q127 1169 127 1208 Q127 1267 152.5 1317.5 Q178 1368 228.5 1405 Q279 1442 354 1462.5 Q429 1483 528 1483 Q625 1483 702 1458.5 Q779 1434 833 1389.5 Q887 1345 915.5 1282 Q944 1219 944 1141 Z" /><glyph glyph-name="" unicode="3" d="M508 90 Q569 90 624 107 Q679 124 721 163 Q763 202 788 265 Q813 328 813 420 Q813 485 787.5 537.5 Q762 590 714 627 Q666 664 597 684.5 Q528 705 442 705 L377 705 L377 809 L442 809 Q510 809 568.5 831.5 Q627 854 670.5 895 Q714 936 739 994.5 Q764 1053 764 1126 Q764 1186 752 1233 Q740 1280 713.5 1313 Q687 1346 645.5 1363 Q604 1380 545 1380 Q475 1380 431 1355 Q387 1330 362 1288 Q337 1246 328 1191 Q319 1136 319 1075 Q282 1075 250 1081 Q218 1087 194 1102.5 Q170 1118 156.5 1143.5 Q143 1169 143 1208 Q143 1267 168.5 1317.5 Q194 1368 245 1405 Q296 1442 371 1462.5 Q446 1483 545 1483 Q642 1483 721 1461 Q800 1439 856.5 1397.5 Q913 1356 944 1295.5 Q975 1235 975 1157 Q975 1088 950.5 1027 Q926 966 882 916.5 Q838 867 778 832 Q718 797 647 780 Q685 776 728 766.5 Q771 757 813 739 Q855 721 893.5 694 Q932 667 961.5 628 Q991 589 1008.5 537.5 Q1026 486 1026 418 Q1026 336 1004 271 Q982 206 943.5 157.5 Q905 109 854 75 Q803 41 745 20 Q687 -1 626 -10.5 Q565 -20 506 -20 Q405 -20 332 -1.5 Q259 17 211.5 48 Q164 79 141.5 120.5 Q119 162 119 207 Q119 269 154 303.5 Q189 338 248 338 Q248 284 265.5 238.5 Q283 193 316 160 Q349 127 397.5 108.5 Q446 90 508 90 Z" /><glyph glyph-name="" unicode="4" d="M862 401 L862 233 Q862 185 875.5 156 Q889 127 911.5 111.5 Q934 96 965 91 Q996 86 1030 86 L1057 86 L1057 0 L440 0 L440 86 L498 86 Q533 86 563.5 91 Q594 96 616.5 111.5 Q639 127 652.5 156 Q666 185 666 233 L666 401 L35 401 L35 485 L668 1462 L862 1462 L862 516 L1116 516 L1116 401 L862 401 ZM666 895 Q666 940 667 994 Q668 1048 669.5 1104 Q671 1160 673.5 1215.5 Q676 1271 680 1319 Q673 1305 660 1281.5 Q647 1258 630.5 1229 Q614 1200 595.5 1168 Q577 1136 558.5 1105.5 Q540 1075 524 1048.5 Q508 1022 496 1004 L182 516 L666 516 L666 895 Z" /><glyph glyph-name="" unicode="5" d="M489 100 Q552 100 605.5 117.5 Q659 135 698.5 175.5 Q738 216 760 282.5 Q782 349 782 446 Q782 527 760 587 Q738 647 697 687 Q656 727 599 746.5 Q542 766 471 766 Q418 766 379.5 762 Q341 758 311.5 751.5 Q282 745 260 737 Q238 729 219 721 L170 735 L236 1460 L920 1460 L930 1151 L844 1151 L836 1212 Q833 1234 827.5 1249.5 Q822 1265 810 1275.5 Q798 1286 777.5 1291 Q757 1296 725 1296 L328 1296 L289 846 Q320 857 378.5 868 Q437 879 528 879 Q627 879 712.5 852 Q798 825 861 771 Q924 717 959.5 635.5 Q995 554 995 446 Q995 342 961.5 256 Q928 170 864.5 108.5 Q801 47 709 13.5 Q617 -20 500 -20 Q386 -20 311.5 -0.5 Q237 19 193 49 Q149 79 131 115.5 Q113 152 113 186 Q113 243 144.5 275 Q176 307 242 307 Q242 263 257.5 225 Q273 187 303.5 159.5 Q334 132 380.5 116 Q427 100 489 100 Z" /><glyph glyph-name="" unicode="6" d="M659 1384 Q505 1384 426 1232.5 Q347 1081 336 782 Q361 803 391.5 822.5 Q422 842 458 856.5 Q494 871 536.5 880 Q579 889 629 889 Q723 889 799 860 Q875 831 928.5 777 Q982 723 1011 645 Q1040 567 1040 469 Q1040 361 1010.5 271 Q981 181 924.5 116.5 Q868 52 786.5 16 Q705 -20 600 -20 Q498 -20 411 22.5 Q324 65 260.5 156.5 Q197 248 161 391.5 Q125 535 125 737 Q125 834 139.5 927 Q154 1020 183 1103 Q212 1186 256 1256 Q300 1326 359.5 1376.5 Q419 1427 494 1455 Q569 1483 659 1483 Q745 1483 808.5 1465 Q872 1447 914 1417 Q956 1387 976.5 1348 Q997 1309 997 1268 Q997 1209 957 1177 Q917 1145 840 1145 Q840 1195 830.5 1238.5 Q821 1282 799 1314.5 Q777 1347 743 1365.5 Q709 1384 659 1384 ZM588 784 Q548 784 511 773.5 Q474 763 441.5 746.5 Q409 730 382 708.5 Q355 687 334 666 Q336 512 355.5 403 Q375 294 410 225 Q445 156 495 124 Q545 92 606 92 Q716 92 773.5 177.5 Q831 263 831 449 Q831 624 768.5 704 Q706 784 588 784 Z" /><glyph glyph-name="" unicode="7" d="M389 0 L872 1296 L334 1296 Q224 1296 215 1192 L207 1090 L121 1090 L131 1460 L1047 1460 L1047 1401 L543 0 L389 0 Z" /><glyph glyph-name="" unicode="8" d="M94 367 Q94 441 117.5 496.5 Q141 552 183 595.5 Q225 639 282 674 Q339 709 406 741 Q348 774 299 812.5 Q250 851 215 897 Q180 943 160.5 997.5 Q141 1052 141 1116 Q141 1187 166 1253 Q191 1319 244 1370 Q297 1421 381.5 1452 Q466 1483 584 1483 Q680 1483 755 1456.5 Q830 1430 881.5 1383 Q933 1336 960 1271.5 Q987 1207 987 1130 Q987 1063 967 1012 Q947 961 911 920.5 Q875 880 824 847.5 Q773 815 711 784 Q787 748 849.5 707 Q912 666 957 618 Q1002 570 1026.5 514 Q1051 458 1051 391 Q1051 294 1016 217.5 Q981 141 917 88 Q853 35 762 7.5 Q671 -20 559 -20 Q444 -20 357 10 Q270 40 211.5 92.5 Q153 145 123.5 215.5 Q94 286 94 367 ZM569 74 Q636 74 690.5 94.5 Q745 115 783.5 151 Q822 187 843 237 Q864 287 864 346 Q864 398 845 442.5 Q826 487 783 528.5 Q740 570 671.5 609.5 Q603 649 504 692 Q407 640 350 557 Q293 474 293 358 Q293 294 310.5 242 Q328 190 362.5 152.5 Q397 115 449 94.5 Q501 74 569 74 ZM805 1135 Q805 1182 792.5 1227 Q780 1272 752.5 1307.5 Q725 1343 680.5 1364.5 Q636 1386 571 1386 Q514 1386 469.5 1367.5 Q425 1349 395 1316.5 Q365 1284 349.5 1239 Q334 1194 334 1141 Q334 1086 351.5 1042 Q369 998 403.5 962 Q438 926 490 894.5 Q542 863 610 831 Q668 860 705.5 890.5 Q743 921 765 957.5 Q787 994 796 1037.5 Q805 1081 805 1135 Z" /><glyph glyph-name="" unicode="9" d="M467 90 Q637 90 718 242 Q799 394 809 702 Q787 675 757.5 650 Q728 625 690.5 605.5 Q653 586 607.5 574.5 Q562 563 508 563 Q419 563 344.5 589 Q270 615 216.5 667 Q163 719 133.5 797 Q104 875 104 979 Q104 1090 134 1182.5 Q164 1275 220.5 1341.5 Q277 1408 358.5 1445.5 Q440 1483 543 1483 Q647 1483 734 1443 Q821 1403 885 1319 Q949 1235 984.5 1105 Q1020 975 1020 795 Q1020 688 1006.5 585.5 Q993 483 964.5 392 Q936 301 891.5 225 Q847 149 785.5 93.5 Q724 38 644 7.5 Q564 -23 465 -23 Q378 -23 320.5 -7.5 Q263 8 229.5 33 Q196 58 182 90 Q168 122 168 154 Q168 192 187 218 Q206 244 229 252 Q243 220 263.5 190.5 Q284 161 313.5 138.5 Q343 116 381 103 Q419 90 467 90 ZM553 684 Q603 685 644.5 698.5 Q686 712 718 734.5 Q750 757 773.5 787 Q797 817 811 850 L811 854 Q809 989 789 1086.5 Q769 1184 734 1247 Q699 1310 650.5 1340 Q602 1370 543 1370 Q434 1370 374.5 1275 Q315 1180 315 999 Q315 915 330 855 Q345 795 375 757 Q405 719 449.5 701.5 Q494 684 553 684 Z" /><glyph glyph-name="" unicode=":" d="M166 125 Q166 165 176 191.5 Q186 218 203.5 234 Q221 250 244.5 257 Q268 264 295 264 Q321 264 344.5 257 Q368 250 385.5 234 Q403 218 413.5 191.5 Q424 165 424 125 Q424 86 413.5 59 Q403 32 385.5 16 Q368 0 344.5 -7 Q321 -14 295 -14 Q268 -14 244.5 -7 Q221 0 203.5 16 Q186 32 176 59 Q166 86 166 125 ZM166 969 Q166 1009 176 1035.5 Q186 1062 203.5 1078 Q221 1094 244.5 1101 Q268 1108 295 1108 Q321 1108 344.5 1101 Q368 1094 385.5 1078 Q403 1062 413.5 1035.5 Q424 1009 424 969 Q424 930 413.5 903 Q403 876 385.5 859.5 Q368 843 344.5 836 Q321 829 295 829 Q268 829 244.5 836 Q221 843 203.5 859.5 Q186 876 176 903 Q166 930 166 969 Z" /><glyph glyph-name="" unicode=";" d="M434 86 Q434 21 416 -40 Q398 -101 357.5 -153 Q317 -205 253.5 -246.5 Q190 -288 98 -315 L98 -229 Q199 -197 246 -151 Q293 -105 293 -45 Q293 -25 282 -11.5 Q271 2 254 12.5 Q237 23 218 33 Q199 43 182 57 Q165 71 154 91.5 Q143 112 143 143 Q143 202 181.5 233 Q220 264 277 264 Q309 264 337 252.5 Q365 241 387 218.5 Q409 196 421.5 162.5 Q434 129 434 86 ZM166 969 Q166 1009 176 1035.5 Q186 1062 203.5 1078 Q221 1094 244.5 1101 Q268 1108 295 1108 Q321 1108 344.5 1101 Q368 1094 385.5 1078 Q403 1062 413.5 1035.5 Q424 1009 424 969 Q424 930 413.5 903 Q403 876 385.5 859.5 Q368 843 344.5 836 Q321 829 295 829 Q268 829 244.5 836 Q221 843 203.5 859.5 Q186 876 176 903 Q166 930 166 969 Z" /><glyph glyph-name="" unicode="&lt;" d="M133 696 L133 768 L1012 1241 L1012 1104 L324 731 L1012 362 L1012 225 L133 696 Z" /><glyph glyph-name="" unicode="=" d="M1012 590 L1012 469 L133 469 L133 590 L1012 590 ZM1012 993 L1012 872 L133 872 L133 993 L1012 993 Z" /><glyph glyph-name="" unicode="&gt;" d="M133 225 L133 362 L821 731 L133 1104 L133 1241 L1012 768 L1012 696 L133 225 Z" /><glyph glyph-name="" unicode="?" d="M522 412 L397 412 L397 723 Q486 759 546.5 806.5 Q607 854 643.5 909.5 Q680 965 695.5 1025.5 Q711 1086 711 1147 Q711 1200 698 1243.5 Q685 1287 658 1317.5 Q631 1348 588.5 1365 Q546 1382 487 1382 Q423 1382 379.5 1361 Q336 1340 309 1304 Q282 1268 270 1220.5 Q258 1173 258 1120 Q221 1120 190 1128.5 Q159 1137 136.5 1153.5 Q114 1170 101 1195 Q88 1220 88 1253 Q88 1302 110.5 1344 Q133 1386 180.5 1417 Q228 1448 300 1465.5 Q372 1483 471 1483 Q568 1483 650 1458 Q732 1433 792 1385.5 Q852 1338 886 1269 Q920 1200 920 1112 Q920 1028 893.5 959 Q867 890 816 833 Q765 776 691 729 Q617 682 522 643 L522 412 ZM328 125 Q328 165 338 191.5 Q348 218 365.5 234 Q383 250 406.5 257 Q430 264 457 264 Q483 264 506.5 257 Q530 250 547.5 234 Q565 218 575.5 191.5 Q586 165 586 125 Q586 86 575.5 59 Q565 32 547.5 16 Q530 0 506.5 -7 Q483 -14 457 -14 Q430 -14 406.5 -7 Q383 0 365.5 16 Q348 32 338 59 Q328 86 328 125 Z" /><glyph glyph-name="" unicode="@" d="M1778 803 Q1778 655 1742 535.5 Q1706 416 1648 332 Q1590 248 1518.5 203 Q1447 158 1376 158 Q1285 158 1224.5 207 Q1164 256 1135 344 L1124 344 Q1103 304 1076.5 270 Q1050 236 1016.5 211 Q983 186 941.5 172 Q900 158 848 158 Q786 158 729.5 179 Q673 200 630.5 243 Q588 286 562.5 352 Q537 418 537 508 Q537 563 549.5 627 Q562 691 588.5 754.5 Q615 818 656.5 877.5 Q698 937 756 982.5 Q814 1028 889.5 1055.5 Q965 1083 1059 1083 Q1125 1083 1172.5 1065 Q1220 1047 1251 1022 L1333 1065 L1382 1065 L1278 543 Q1275 519 1271 495 Q1268 475 1266 451 Q1264 427 1264 406 Q1264 370 1274.5 343.5 Q1285 317 1302 299.5 Q1319 282 1341.5 274 Q1364 266 1389 266 Q1434 266 1481 302 Q1528 338 1566 407.5 Q1604 477 1628.5 578 Q1653 679 1653 809 Q1653 943 1610 1045.5 Q1567 1148 1490.5 1217.5 Q1414 1287 1307.5 1322.5 Q1201 1358 1073 1358 Q973 1358 876.5 1330 Q780 1302 694 1247.5 Q608 1193 534.5 1114.5 Q461 1036 408 935.5 Q355 835 325 713 Q295 591 295 451 Q295 280 344 159.5 Q393 39 476.5 -37.5 Q560 -114 670.5 -149 Q781 -184 905 -184 Q989 -184 1064 -169.5 Q1139 -155 1204.5 -131 Q1270 -107 1325.5 -76.5 Q1381 -46 1425 -14 L1473 -88 Q1422 -126 1359 -162.5 Q1296 -199 1222.5 -227.5 Q1149 -256 1064.5 -273.5 Q980 -291 885 -291 Q720 -291 582 -245.5 Q444 -200 344.5 -108 Q245 -16 189 122 Q133 260 133 446 Q133 591 164.5 722.5 Q196 854 255.5 967 Q315 1080 399.5 1171.5 Q484 1263 590 1327.5 Q696 1392 820.5 1427 Q945 1462 1085 1462 Q1257 1462 1387 1411 Q1517 1360 1604 1271.5 Q1691 1183 1734.5 1062.5 Q1778 942 1778 803 ZM727 479 Q727 371 770.5 318.5 Q814 266 883 266 Q935 266 973 288.5 Q1011 311 1037 347 Q1063 383 1079 429 Q1095 475 1104 522 L1182 938 Q1169 967 1136.5 983 Q1104 999 1067 999 Q1006 999 956.5 972.5 Q907 946 869.5 903 Q832 860 805 804.5 Q778 749 760.5 691 Q743 633 735 578 Q727 523 727 479 Z" /><glyph glyph-name="" unicode="a" d="M414 489 L336 274 Q327 250 322 226.5 Q317 203 317 186 Q317 134 350.5 110 Q384 86 453 86 L500 86 L500 0 L0 0 L0 86 L39 86 Q69 86 90 92.5 Q111 99 128 117 Q145 135 160.5 166 Q176 197 195 246 L649 1462 L809 1462 L1272 195 Q1284 163 1296.5 142 Q1309 121 1326 108.5 Q1343 96 1365 91 Q1387 86 1417 86 L1444 86 L1444 0 L881 0 L881 86 L928 86 Q1051 86 1051 184 Q1051 201 1046.5 219 Q1042 237 1034 260 L952 489 L414 489 ZM788 950 Q756 1041 729.5 1120.5 Q703 1200 686 1274 Q679 1237 669.5 1202.5 Q660 1168 649 1132 Q638 1096 624 1056.5 Q610 1017 592 969 L453 592 L915 592 L788 950 Z" /><glyph glyph-name="" unicode="b" d="M1153 1096 Q1153 1027 1133.5 975 Q1114 923 1080 884 Q1046 845 999.5 818.5 Q953 792 899 774 L899 766 Q969 754 1027 725 Q1085 696 1126.5 649.5 Q1168 603 1191 539.5 Q1214 476 1214 395 Q1214 197 1084 98.5 Q954 0 688 0 L78 0 L78 86 L104 86 Q139 86 169.5 91 Q200 96 223 111.5 Q246 127 259 156 Q272 185 272 233 L272 1237 Q272 1282 258.5 1309.5 Q245 1337 222 1352 Q199 1367 168.5 1371.5 Q138 1376 104 1376 L78 1376 L78 1462 L627 1462 Q893 1462 1023 1373.5 Q1153 1285 1153 1096 ZM479 102 L678 102 Q765 102 825 118 Q885 134 923 169.5 Q961 205 978 262 Q995 319 995 401 Q995 481 980 540 Q965 599 928.5 638 Q892 677 832 696 Q772 715 682 715 L479 715 L479 102 ZM479 817 L621 817 Q711 817 771 833 Q831 849 867 882.5 Q903 916 918.5 969 Q934 1022 934 1096 Q934 1171 917 1221.5 Q900 1272 862 1303 Q824 1334 763.5 1347 Q703 1360 616 1360 L479 1360 L479 817 Z" /><glyph glyph-name="" unicode="c" d="M774 1483 Q879 1483 956.5 1465.5 Q1034 1448 1085.5 1417 Q1137 1386 1162.5 1344 Q1188 1302 1188 1253 Q1188 1220 1174.5 1193.5 Q1161 1167 1137 1148.5 Q1113 1130 1080.5 1120 Q1048 1110 1010 1110 Q1010 1158 997.5 1205 Q985 1252 956.5 1289.5 Q928 1327 882.5 1350.5 Q837 1374 770 1374 Q654 1374 573 1331.5 Q492 1289 441 1207.5 Q390 1126 367 1006.5 Q344 887 344 733 Q344 596 368 482 Q392 368 444 286.5 Q496 205 576.5 160 Q657 115 770 115 Q845 115 902.5 129.5 Q960 144 1004 168 Q1048 192 1081.5 223.5 Q1115 255 1141 289 Q1158 278 1169 259 Q1180 240 1180 209 Q1180 170 1153.5 129.5 Q1127 89 1073 56 Q1019 23 936 1.5 Q853 -20 739 -20 Q586 -20 470 34 Q354 88 275.5 187 Q197 286 157 425 Q117 564 117 733 Q117 899 159 1037 Q201 1175 283.5 1274 Q366 1373 489 1428 Q612 1483 774 1483 Z" /><glyph glyph-name="" unicode="d" d="M1372 733 Q1372 565 1330 429.5 Q1288 294 1205 198.5 Q1122 103 997 51.5 Q872 0 705 0 L78 0 L78 86 L104 86 Q139 86 169.5 91 Q200 96 223 111.5 Q246 127 259 156 Q272 185 272 233 L272 1237 Q272 1282 258.5 1309.5 Q245 1337 222 1352 Q199 1367 168.5 1371.5 Q138 1376 104 1376 L78 1376 L78 1462 L705 1462 Q863 1462 987 1413.5 Q1111 1365 1196.5 1272 Q1282 1179 1327 1043 Q1372 907 1372 733 ZM657 104 Q779 104 870.5 145.5 Q962 187 1023 267 Q1084 347 1114.5 464 Q1145 581 1145 733 Q1145 1038 1023.5 1199 Q902 1360 659 1360 L479 1360 L479 104 L657 104 Z" /><glyph glyph-name="" unicode="e" d="M479 102 L874 102 Q923 102 957.5 115.5 Q992 129 1015 152 Q1038 175 1051 205.5 Q1064 236 1069 270 L1083 358 L1190 358 L1176 0 L78 0 L78 86 L104 86 Q138 86 168.5 90.5 Q199 95 222 109 Q245 123 258.5 150.5 Q272 178 272 223 L272 1229 Q272 1277 259 1306 Q246 1335 223 1350.5 Q200 1366 169.5 1371 Q139 1376 104 1376 L78 1376 L78 1462 L1110 1462 L1120 1104 L1014 1104 L1004 1192 Q1000 1226 988.5 1256.5 Q977 1287 955.5 1310 Q934 1333 901.5 1346.5 Q869 1360 823 1360 L479 1360 L479 815 L973 815 L973 715 L479 715 L479 102 Z" /><glyph glyph-name="" unicode="f" d="M479 1360 L479 768 L973 768 L973 668 L479 668 L479 233 Q479 185 492.5 156 Q506 127 528.5 111.5 Q551 96 582 91 Q613 86 647 86 L715 86 L715 0 L78 0 L78 86 L104 86 Q138 86 168.5 90.5 Q199 95 222 109 Q245 123 258.5 150.5 Q272 178 272 223 L272 1237 Q272 1282 258.5 1309.5 Q245 1337 222 1352 Q199 1367 168.5 1371.5 Q138 1376 104 1376 L78 1376 L78 1462 L1110 1462 L1120 1104 L1014 1104 L1004 1192 Q1000 1227 988 1257.5 Q976 1288 953.5 1310.5 Q931 1333 897 1346.5 Q863 1360 815 1360 L479 1360 Z" /><glyph glyph-name="" unicode="g" d="M821 -20 Q643 -20 510.5 34 Q378 88 290.5 187 Q203 286 160 425 Q117 564 117 733 Q117 899 162.5 1037 Q208 1175 298.5 1274 Q389 1373 523 1428 Q657 1483 834 1483 Q948 1483 1032.5 1465.5 Q1117 1448 1173.5 1417 Q1230 1386 1258 1344 Q1286 1302 1286 1253 Q1286 1220 1271 1193.5 Q1256 1167 1230.5 1148.5 Q1205 1130 1170.5 1120 Q1136 1110 1096 1110 Q1096 1158 1082 1205 Q1068 1252 1036 1289.5 Q1004 1327 952 1350.5 Q900 1374 825 1374 Q695 1374 603.5 1331.5 Q512 1289 454 1207.5 Q396 1126 370 1006.5 Q344 887 344 733 Q344 580 371 461 Q398 342 459 261 Q520 180 617 138 Q714 96 854 96 Q913 96 968.5 102 Q1024 108 1067 121 L1067 451 Q1067 496 1053.5 523.5 Q1040 551 1017 565.5 Q994 580 963.5 585 Q933 590 899 590 L891 590 L891 676 L1423 676 L1423 590 L1415 590 Q1386 590 1360 585 Q1334 580 1315 564.5 Q1296 549 1285 519.5 Q1274 490 1274 442 L1274 74 Q1171 26 1062 3 Q953 -20 821 -20 Z" /><glyph glyph-name="" unicode="h" d="M950 0 L950 86 L977 86 Q1012 86 1042.5 91 Q1073 96 1095.5 111.5 Q1118 127 1131.5 156 Q1145 185 1145 233 L1145 713 L479 713 L479 233 Q479 185 492.5 156 Q506 127 528.5 111.5 Q551 96 582 91 Q613 86 647 86 L674 86 L674 0 L78 0 L78 86 L104 86 Q139 86 169.5 91 Q200 96 223 111.5 Q246 127 259 156 Q272 185 272 233 L272 1237 Q272 1282 258.5 1309.5 Q245 1337 222 1352 Q199 1367 168.5 1371.5 Q138 1376 104 1376 L78 1376 L78 1462 L674 1462 L674 1376 L647 1376 Q613 1376 582 1371 Q551 1366 528.5 1350.5 Q506 1335 492.5 1306 Q479 1277 479 1229 L479 815 L1145 815 L1145 1229 Q1145 1277 1131.5 1306 Q1118 1335 1095.5 1350.5 Q1073 1366 1042.5 1371 Q1012 1376 977 1376 L950 1376 L950 1462 L1546 1462 L1546 1376 L1520 1376 Q1485 1376 1454.5 1371 Q1424 1366 1401 1350.5 Q1378 1335 1365 1306 Q1352 1277 1352 1229 L1352 223 Q1352 178 1365.5 150.5 Q1379 123 1402 109 Q1425 95 1455.5 90.5 Q1486 86 1520 86 L1546 86 L1546 0 L950 0 Z" /><glyph glyph-name="" unicode="i" d="M78 0 L78 86 L104 86 Q139 86 169.5 91 Q200 96 223 111.5 Q246 127 259 156 Q272 185 272 233 L272 1229 Q272 1277 259 1306 Q246 1335 223 1350.5 Q200 1366 169.5 1371 Q139 1376 104 1376 L78 1376 L78 1462 L674 1462 L674 1376 L647 1376 Q613 1376 582 1371 Q551 1366 528.5 1350.5 Q506 1335 492.5 1306 Q479 1277 479 1229 L479 233 Q479 185 492.5 156 Q506 127 528.5 111.5 Q551 96 582 91 Q613 86 647 86 L674 86 L674 0 L78 0 Z" /><glyph glyph-name="" unicode="j" d="M-23 -395 L-4 -395 Q62 -395 113.5 -376.5 Q165 -358 200 -314.5 Q235 -271 253.5 -198.5 Q272 -126 272 -18 L272 1237 Q272 1282 258.5 1309.5 Q245 1337 222 1352 Q199 1367 168.5 1371.5 Q138 1376 104 1376 L78 1376 L78 1462 L674 1462 L674 1376 L647 1376 Q613 1376 582 1371 Q551 1366 528.5 1350.5 Q506 1335 492.5 1306 Q479 1277 479 1229 L479 -16 Q479 -154 443 -245.5 Q407 -337 344 -391.5 Q281 -446 195.5 -469 Q110 -492 12 -492 L-23 -492 L-23 -395 Z" /><glyph glyph-name="" unicode="k" d="M903 1137 Q936 1175 958 1204.5 Q980 1234 992.5 1258 Q1005 1282 1010.5 1300 Q1016 1318 1016 1333 Q1016 1359 991 1368.5 Q966 1378 915 1378 L915 1462 L1368 1462 L1368 1378 Q1333 1378 1300.5 1364.5 Q1268 1351 1235.5 1326.5 Q1203 1302 1168.5 1266.5 Q1134 1231 1094 1186 L797 852 L1229 250 Q1288 169 1342.5 127.5 Q1397 86 1454 86 L1458 86 L1458 0 L1436 0 Q1333 0 1267 8 Q1201 16 1156 37 Q1111 58 1077.5 93.5 Q1044 129 1006 184 L653 690 L479 549 L479 233 Q479 185 492.5 156 Q506 127 528.5 111.5 Q551 96 582 91 Q613 86 647 86 L674 86 L674 0 L78 0 L78 86 L104 86 Q138 86 168.5 90.5 Q199 95 222 109 Q245 123 258.5 150.5 Q272 178 272 223 L272 1237 Q272 1282 258.5 1309.5 Q245 1337 222 1352 Q199 1367 168.5 1371.5 Q138 1376 104 1376 L78 1376 L78 1462 L674 1462 L674 1376 L647 1376 Q613 1376 582 1371 Q551 1366 528.5 1350.5 Q506 1335 492.5 1306 Q479 1277 479 1229 L479 651 L903 1137 Z" /><glyph glyph-name="" unicode="l" d="M78 0 L78 86 L104 86 Q139 86 169.5 91 Q200 96 223 111.5 Q246 127 259 156 Q272 185 272 233 L272 1229 Q272 1277 259 1306 Q246 1335 223 1350.5 Q200 1366 169.5 1371 Q139 1376 104 1376 L78 1376 L78 1462 L674 1462 L674 1376 L647 1376 Q613 1376 582.5 1371.5 Q552 1367 529 1352 Q506 1337 492.5 1309.5 Q479 1282 479 1237 L479 102 L883 102 Q929 102 961.5 118.5 Q994 135 1015 161.5 Q1036 188 1047.5 221 Q1059 254 1063 287 L1083 440 L1190 440 L1176 0 L78 0 Z" /><glyph glyph-name="" unicode="m" d="M1298 0 L1298 86 L1305 86 Q1338 86 1364.5 90.5 Q1391 95 1409.5 108.5 Q1428 122 1439 147.5 Q1450 173 1452 215 L1452 1309 L983 0 L872 0 L397 1305 L397 233 Q397 185 407 156 Q417 127 436.5 111.5 Q456 96 483.5 91 Q511 86 545 86 L551 86 L551 0 L78 0 L78 86 L104 86 Q138 86 168.5 90.5 Q199 95 222 109 Q245 123 258.5 150.5 Q272 178 272 223 L272 1237 Q272 1282 258.5 1309.5 Q245 1337 222 1352 Q199 1367 168.5 1371.5 Q138 1376 104 1376 L78 1376 L78 1462 L545 1462 L969 291 L1389 1462 L1843 1462 L1843 1376 L1817 1376 Q1782 1376 1751.5 1371 Q1721 1366 1698 1350.5 Q1675 1335 1662 1306 Q1649 1277 1649 1229 L1649 233 Q1649 185 1662 156 Q1675 127 1698 111.5 Q1721 96 1751.5 91 Q1782 86 1817 86 L1843 86 L1843 0 L1298 0 Z" /><glyph glyph-name="" unicode="n" d="M1165 0 L397 1180 L397 233 Q397 185 410.5 156 Q424 127 446.5 111.5 Q469 96 500 91 Q531 86 565 86 L592 86 L592 0 L78 0 L78 86 L104 86 Q139 86 169.5 91 Q200 96 223 111.5 Q246 127 259 156 Q272 185 272 233 L272 1237 Q272 1282 258.5 1309.5 Q245 1337 222 1352 Q199 1367 168.5 1371.5 Q138 1376 104 1376 L78 1376 L78 1462 L453 1462 L1186 330 L1186 1237 Q1186 1282 1172.5 1309.5 Q1159 1337 1136 1352 Q1113 1367 1082.5 1371.5 Q1052 1376 1018 1376 L991 1376 L991 1462 L1505 1462 L1505 1376 L1479 1376 Q1444 1376 1413.5 1371 Q1383 1366 1360 1350.5 Q1337 1335 1324 1306 Q1311 1277 1311 1229 L1311 0 L1165 0 Z" /><glyph glyph-name="" unicode="o" d="M1403 733 Q1403 564 1361 425 Q1319 286 1237 187 Q1155 88 1035 34 Q915 -20 760 -20 Q597 -20 476 34 Q355 88 275 187 Q195 286 155 425.5 Q115 565 115 735 Q115 905 155 1043.5 Q195 1182 275 1280 Q355 1378 477 1431.5 Q599 1485 762 1485 Q917 1485 1036 1431.5 Q1155 1378 1237 1279.5 Q1319 1181 1361 1042.5 Q1403 904 1403 733 ZM342 733 Q342 581 364.5 461.5 Q387 342 437 259.5 Q487 177 566.5 133.5 Q646 90 760 90 Q874 90 953.5 133.5 Q1033 177 1082.5 259.5 Q1132 342 1154 461.5 Q1176 581 1176 733 Q1176 885 1154 1004.5 Q1132 1124 1082.5 1206 Q1033 1288 954.5 1331 Q876 1374 762 1374 Q648 1374 568 1331 Q488 1288 437.5 1206 Q387 1124 364.5 1004.5 Q342 885 342 733 Z" /><glyph glyph-name="" unicode="p" d="M78 0 L78 86 L104 86 Q139 86 169.5 91 Q200 96 223 111.5 Q246 127 259 156 Q272 185 272 233 L272 1237 Q272 1282 258.5 1309.5 Q245 1337 222 1352 Q199 1367 168.5 1371.5 Q138 1376 104 1376 L78 1376 L78 1462 L653 1462 Q782 1462 877 1432.5 Q972 1403 1034 1347.5 Q1096 1292 1126.5 1213 Q1157 1134 1157 1034 Q1157 943 1128.5 859 Q1100 775 1035 710.5 Q970 646 865 607.5 Q760 569 608 569 L479 569 L479 223 Q479 178 492.5 150.5 Q506 123 529 109 Q552 95 582.5 90.5 Q613 86 647 86 L715 86 L715 0 L78 0 ZM479 666 L588 666 Q681 666 747 685.5 Q813 705 855 748.5 Q897 792 916.5 860.5 Q936 929 936 1026 Q936 1112 919 1175.5 Q902 1239 864 1281 Q826 1323 765.5 1343.5 Q705 1364 618 1364 L479 1364 L479 666 Z" /><glyph glyph-name="" unicode="q" d="M1403 733 Q1403 583 1370 457 Q1337 331 1272.5 235 Q1208 139 1113.5 76.5 Q1019 14 897 -8 Q906 -113 931 -183.5 Q956 -254 995 -296.5 Q1034 -339 1086 -357 Q1138 -375 1200 -375 L1233 -375 L1233 -471 L1145 -471 Q1064 -471 983.5 -449.5 Q903 -428 837 -375.5 Q771 -323 726.5 -235.5 Q682 -148 672 -16 Q531 -1 426.5 58.5 Q322 118 253 215.5 Q184 313 149.5 444.5 Q115 576 115 735 Q115 905 155 1043.5 Q195 1182 275 1280 Q355 1378 477 1431.5 Q599 1485 762 1485 Q917 1485 1036 1431.5 Q1155 1378 1237 1279.5 Q1319 1181 1361 1042.5 Q1403 904 1403 733 ZM342 733 Q342 581 364.5 461.5 Q387 342 437 259.5 Q487 177 566.5 133.5 Q646 90 760 90 Q874 90 953.5 133.5 Q1033 177 1082.5 259.5 Q1132 342 1154 461.5 Q1176 581 1176 733 Q1176 885 1154 1004.5 Q1132 1124 1082.5 1206 Q1033 1288 954.5 1331 Q876 1374 762 1374 Q648 1374 568 1331 Q488 1288 437.5 1206 Q387 1124 364.5 1004.5 Q342 885 342 733 Z" /><glyph glyph-name="" unicode="r" d="M1135 250 Q1187 168 1236 127 Q1285 86 1350 86 L1356 86 L1356 0 L1327 0 Q1231 0 1169.5 7 Q1108 14 1065 34 Q1022 54 991.5 90 Q961 126 926 184 L649 645 L479 645 L479 223 Q479 178 492.5 150.5 Q506 123 529 109 Q552 95 582.5 90.5 Q613 86 647 86 L674 86 L674 0 L78 0 L78 86 L104 86 Q138 86 168.5 90.5 Q199 95 222 109 Q245 123 258.5 150.5 Q272 178 272 223 L272 1237 Q272 1282 258.5 1309.5 Q245 1337 222 1352 Q199 1367 168.5 1371.5 Q138 1376 104 1376 L78 1376 L78 1462 L629 1462 Q895 1462 1025 1363.5 Q1155 1265 1155 1067 Q1155 985 1128.5 923.5 Q1102 862 1059 817 Q1016 772 962 742 Q908 712 854 694 L1135 250 ZM479 741 L623 741 Q713 741 773 761 Q833 781 869 821 Q905 861 920.5 921 Q936 981 936 1061 Q936 1143 919 1200.5 Q902 1258 864 1294.5 Q826 1331 765.5 1347.5 Q705 1364 618 1364 L479 1364 L479 741 Z" /><glyph glyph-name="" unicode="s" d="M506 -20 Q406 -20 329.5 1 Q253 22 201.5 59.5 Q150 97 124 150.5 Q98 204 98 268 Q98 330 136.5 368 Q175 406 246 406 Q249 342 265.5 283 Q282 224 315 179 Q348 134 399 107 Q450 80 522 80 Q660 80 737.5 146.5 Q815 213 815 338 Q815 394 799 437 Q783 480 746 516.5 Q709 553 648.5 586.5 Q588 620 498 657 Q403 696 332 740.5 Q261 785 214 839.5 Q167 894 144 961 Q121 1028 121 1112 Q121 1200 154.5 1269 Q188 1338 248 1385.5 Q308 1433 390 1458 Q472 1483 569 1483 Q661 1483 732 1464 Q803 1445 852 1413 Q901 1381 926.5 1339.5 Q952 1298 952 1253 Q952 1187 908.5 1153.5 Q865 1120 791 1120 Q791 1168 779.5 1214.5 Q768 1261 741 1297.5 Q714 1334 670 1357 Q626 1380 561 1380 Q502 1380 455.5 1363.5 Q409 1347 377 1316.5 Q345 1286 328 1243 Q311 1200 311 1147 Q311 1086 327 1039.5 Q343 993 380.5 955.5 Q418 918 479 884.5 Q540 851 629 815 Q719 778 789.5 737 Q860 696 909 645.5 Q958 595 984 532.5 Q1010 470 1010 391 Q1010 294 974.5 217.5 Q939 141 873 88 Q807 35 714 7.5 Q621 -20 506 -20 Z" /><glyph glyph-name="" unicode="t" d="M729 233 Q729 185 742.5 156 Q756 127 778.5 111.5 Q801 96 832 91 Q863 86 897 86 L944 86 L944 0 L307 0 L307 86 L354 86 Q388 86 418.5 90.5 Q449 95 472 109 Q495 123 508.5 150.5 Q522 178 522 223 L522 1360 L326 1360 Q281 1360 250.5 1346.5 Q220 1333 200.5 1310 Q181 1287 171.5 1256.5 Q162 1226 158 1192 L147 1104 L41 1104 L51 1462 L1204 1462 L1214 1104 L1108 1104 L1098 1192 Q1094 1226 1084 1256.5 Q1074 1287 1055 1310 Q1036 1333 1005 1346.5 Q974 1360 928 1360 L729 1360 L729 233 Z" /><glyph glyph-name="" unicode="u" d="M741 -20 Q620 -20 524 5.5 Q428 31 361.5 86.5 Q295 142 260 229.5 Q225 317 225 442 L225 1237 Q225 1282 211.5 1309.5 Q198 1337 175 1352 Q152 1367 121.5 1371.5 Q91 1376 57 1376 L31 1376 L31 1462 L627 1462 L627 1376 L600 1376 Q566 1376 535 1371 Q504 1366 481.5 1350.5 Q459 1335 445.5 1306 Q432 1277 432 1229 L432 430 Q432 341 457.5 278.5 Q483 216 528.5 177 Q574 138 636.5 120 Q699 102 774 102 Q863 102 927.5 126 Q992 150 1034.5 192.5 Q1077 235 1097.5 293.5 Q1118 352 1118 422 L1118 1237 Q1118 1282 1104.5 1309.5 Q1091 1337 1068 1352 Q1045 1367 1014.5 1371.5 Q984 1376 950 1376 L924 1376 L924 1462 L1438 1462 L1438 1376 L1411 1376 Q1377 1376 1346 1371 Q1315 1366 1292.5 1350.5 Q1270 1335 1256.5 1306 Q1243 1277 1243 1229 L1243 418 Q1243 316 1210.5 234.5 Q1178 153 1114.5 96.5 Q1051 40 957 10 Q863 -20 741 -20 Z" /><glyph glyph-name="" unicode="v" d="M614 0 L172 1268 Q161 1300 148 1321 Q135 1342 118 1354 Q101 1366 79 1371 Q57 1376 27 1376 L0 1376 L0 1462 L563 1462 L563 1376 L516 1376 Q454 1376 423.5 1352.5 Q393 1329 393 1278 Q393 1261 397.5 1243 Q402 1225 410 1202 L635 537 Q666 446 688 360.5 Q710 275 727 201 Q743 275 765 358 Q787 441 821 537 L1047 1188 Q1055 1213 1060 1236 Q1065 1259 1065 1276 Q1065 1329 1031.5 1352.5 Q998 1376 930 1376 L883 1376 L883 1462 L1382 1462 L1382 1376 L1343 1376 Q1313 1376 1291.5 1370 Q1270 1364 1252.5 1346.5 Q1235 1329 1220 1298 Q1205 1267 1188 1217 L764 0 L614 0 Z" /><glyph glyph-name="" unicode="w" d="M1180 1448 L1436 561 Q1465 459 1487.5 365.5 Q1510 272 1524 201 Q1539 275 1558.5 356.5 Q1578 438 1606 537 L1786 1169 Q1789 1181 1793 1196 Q1797 1211 1800 1226 Q1803 1241 1805.5 1254 Q1808 1267 1808 1276 Q1808 1329 1774.5 1352.5 Q1741 1376 1673 1376 L1626 1376 L1626 1462 L2126 1462 L2126 1376 L2087 1376 Q2057 1376 2034.5 1370 Q2012 1364 1994 1347 Q1976 1330 1961 1299 Q1946 1268 1931 1217 L1585 0 L1401 0 L1067 1147 L754 0 L565 0 L190 1268 Q180 1300 167.5 1321 Q155 1342 138 1354 Q121 1366 98 1371 Q75 1376 45 1376 L18 1376 L18 1462 L582 1462 L582 1376 L535 1376 Q473 1376 442.5 1352.5 Q412 1329 412 1278 Q412 1261 417 1243 Q422 1225 428 1202 L616 547 Q642 454 665 364.5 Q688 275 705 201 Q720 281 740.5 375.5 Q761 470 788 569 L1032 1448 L1180 1448 Z" /><glyph glyph-name="" unicode="x" d="M954 1317 Q954 1335 945.5 1346.5 Q937 1358 922.5 1364.5 Q908 1371 888 1373.5 Q868 1376 844 1376 L838 1376 L838 1462 L1286 1462 L1286 1376 L1268 1376 Q1238 1376 1213.5 1369 Q1189 1362 1166 1344.5 Q1143 1327 1118.5 1299 Q1094 1271 1065 1229 L768 801 L1145 195 Q1190 135 1230 110.5 Q1270 86 1309 86 L1335 86 L1335 0 L782 0 L782 86 L793 86 Q915 86 915 154 Q915 165 912.5 176 Q910 187 903 202 Q896 217 882.5 239 Q869 261 848 295 L645 621 L418 285 Q409 272 400 255.5 Q391 239 383 221 Q375 203 370 184.5 Q365 166 365 150 Q365 115 397.5 100.5 Q430 86 498 86 L504 86 L504 0 L16 0 L16 86 L29 86 Q66 86 93.5 93.5 Q121 101 144.5 118 Q168 135 191 162 Q214 189 242 229 L584 719 L246 1268 Q209 1327 162.5 1351.5 Q116 1376 70 1376 L43 1376 L43 1462 L598 1462 L598 1376 L592 1376 Q557 1376 534 1371.5 Q511 1367 498 1359 Q485 1351 480 1340 Q475 1329 475 1317 Q475 1306 476.5 1296 Q478 1286 483 1272.5 Q488 1259 497.5 1241 Q507 1223 524 1196 L709 897 L903 1192 Q926 1227 940 1258 Q954 1289 954 1317 Z" /><glyph glyph-name="" unicode="y" d="M326 0 L326 86 L373 86 Q407 86 437.5 90.5 Q468 95 491 109 Q514 123 527.5 150.5 Q541 178 541 223 L541 610 L162 1268 Q145 1297 130 1317.5 Q115 1338 98.5 1351 Q82 1364 62 1370 Q42 1376 16 1376 L-10 1376 L-10 1462 L553 1462 L553 1376 L477 1376 Q449 1376 431.5 1371 Q414 1366 404 1357 Q394 1348 390.5 1336 Q387 1324 387 1311 Q387 1282 399.5 1253 Q412 1224 424 1202 L575 928 Q611 865 636 803.5 Q661 742 678 694 Q687 716 700.5 743 Q714 770 730.5 800.5 Q747 831 765 863.5 Q783 896 801 928 L932 1163 Q952 1198 960.5 1229.5 Q969 1261 969 1286 Q969 1331 937 1353.5 Q905 1376 846 1376 L786 1376 L786 1462 L1286 1462 L1286 1376 L1262 1376 Q1240 1376 1220.5 1368.5 Q1201 1361 1181 1342.5 Q1161 1324 1139.5 1293.5 Q1118 1263 1092 1217 L748 610 L748 233 Q748 185 761 156 Q774 127 797 111.5 Q820 96 850.5 91 Q881 86 915 86 L963 86 L963 0 L326 0 Z" /><glyph glyph-name="" unicode="z" d="M1094 1378 L324 102 L840 102 Q886 102 917 115.5 Q948 129 967 152 Q986 175 996 205.5 Q1006 236 1010 270 L1020 358 L1126 358 L1116 0 L74 0 L74 82 L842 1360 L397 1360 Q352 1360 321.5 1346.5 Q291 1333 272 1310 Q253 1287 243 1256.5 Q233 1226 229 1192 L219 1104 L113 1104 L123 1462 L1094 1462 L1094 1378 Z" /><glyph glyph-name="" unicode="[" d="M205 -262 L205 1556 L662 1556 L662 1470 L573 1470 Q539 1470 508.5 1465 Q478 1460 455 1444.5 Q432 1429 419 1400 Q406 1371 406 1323 L406 -29 Q406 -77 419 -106 Q432 -135 455 -150.5 Q478 -166 508.5 -171 Q539 -176 573 -176 L662 -176 L662 -262 L205 -262 Z" /><glyph glyph-name="" unicode="\" d="M0 1556 L119 1556 L590 -248 L469 -248 L0 1556 Z" /><glyph glyph-name="" unicode="]" d="M76 -262 L76 -176 L164 -176 Q199 -176 229.5 -171 Q260 -166 282.5 -150.5 Q305 -135 318.5 -106 Q332 -77 332 -29 L332 1323 Q332 1371 318.5 1400 Q305 1429 282.5 1444.5 Q260 1460 229.5 1465 Q199 1470 164 1470 L76 1470 L76 1556 L532 1556 L532 -262 L76 -262 Z" /><glyph glyph-name="" unicode="^" d="M535 1462 L606 1462 L1038 545 L901 545 L569 1274 L242 545 L104 545 L535 1462 Z" /><glyph glyph-name="" unicode="_" d="M950 -291 L-10 -291 L-10 -170 L950 -170 L950 -291 Z" /><glyph glyph-name="" unicode="`" d="M791 1241 L713 1241 Q672 1269 624 1310.5 Q576 1352 531 1396 Q486 1440 449 1480.5 Q412 1521 393 1548 L393 1569 L612 1569 Q628 1535 649.5 1494.5 Q671 1454 695 1413.5 Q719 1373 744 1335 Q769 1297 791 1268 L791 1241 Z" /><glyph glyph-name="" unicode="a" d="M301 297 Q301 201 341.5 153.5 Q382 106 467 106 Q529 106 579.5 126 Q630 146 665.5 183 Q701 220 720 273 Q739 326 739 391 L739 557 L608 551 Q521 547 462.5 529.5 Q404 512 368 480.5 Q332 449 316.5 403 Q301 357 301 297 ZM549 1016 Q490 1016 453.5 999.5 Q417 983 396.5 953 Q376 923 369 882 Q362 841 362 793 Q277 793 232.5 822 Q188 851 188 922 Q188 975 217 1012 Q246 1049 296.5 1072.5 Q347 1096 414 1107 Q481 1118 557 1118 Q651 1118 721 1099.5 Q791 1081 838 1039 Q885 997 908.5 929.5 Q932 862 932 764 L932 233 Q932 190 939 162 Q946 134 961 117 Q976 100 1000.5 93 Q1025 86 1059 86 L1065 86 L1065 0 L788 0 L756 176 L739 176 Q707 133 677 97 Q647 61 611 35 Q575 9 529.5 -5.5 Q484 -20 420 -20 Q352 -20 293.5 -0.5 Q235 19 192.5 59.5 Q150 100 126 161.5 Q102 223 102 307 Q102 470 218 549 Q334 628 569 635 L739 641 L739 764 Q739 819 733 865.5 Q727 912 707 945.5 Q687 979 649.5 997.5 Q612 1016 549 1016 Z" /><glyph glyph-name="" unicode="b" d="M1145 551 Q1145 403 1117.5 295 Q1090 187 1037 117 Q984 47 906 13.5 Q828 -20 727 -20 Q668 -20 620 -7 Q572 6 533.5 30 Q495 54 465.5 87 Q436 120 414 160 L401 160 L365 0 L37 0 L37 86 L53 86 Q88 86 118.5 91 Q149 96 171.5 111.5 Q194 127 207.5 156 Q221 185 221 233 L221 1331 Q221 1376 207.5 1403.5 Q194 1431 171 1446 Q148 1461 117.5 1465.5 Q87 1470 53 1470 L37 1470 L37 1556 L414 1556 L414 1180 Q414 1145 413 1099.5 Q412 1054 410 1012 Q408 964 406 913 L414 913 Q437 960 466 998 Q495 1036 533 1062.5 Q571 1089 619 1103.5 Q667 1118 727 1118 Q828 1118 906 1084.5 Q984 1051 1037 981.5 Q1090 912 1117.5 805 Q1145 698 1145 551 ZM692 987 Q612 987 558.5 960.5 Q505 934 473 880 Q441 826 427.5 744 Q414 662 414 551 Q414 444 427.5 362 Q441 280 473.5 224 Q506 168 559.5 139.5 Q613 111 694 111 Q762 111 809.5 139.5 Q857 168 887.5 224 Q918 280 932 362.5 Q946 445 946 553 Q946 662 932 743.5 Q918 825 887.5 879 Q857 933 808.5 960 Q760 987 692 987 Z" /><glyph glyph-name="" unicode="c" d="M580 -20 Q478 -20 392 11.5 Q306 43 244 111 Q182 179 147.5 285.5 Q113 392 113 543 Q113 707 147.5 817.5 Q182 928 243.5 995 Q305 1062 388.5 1090 Q472 1118 569 1118 Q633 1118 696.5 1105.5 Q760 1093 811 1067 Q862 1041 894 1001.5 Q926 962 926 909 Q926 838 880 809 Q834 780 743 780 Q743 828 735 871 Q727 914 707.5 946.5 Q688 979 654.5 997.5 Q621 1016 569 1016 Q510 1016 462.5 994 Q415 972 381 918 Q347 864 329 773 Q311 682 311 545 Q311 327 383.5 220 Q456 113 621 113 Q716 113 787 153 Q858 193 893 256 Q908 244 918 224 Q928 204 928 176 Q928 141 906 106 Q884 71 840.5 43 Q797 15 732 -2.5 Q667 -20 580 -20 Z" /><glyph glyph-name="" unicode="d" d="M1036 225 Q1036 180 1049.5 152.5 Q1063 125 1086 110 Q1109 95 1139.5 90.5 Q1170 86 1204 86 L1221 86 L1221 0 L874 0 L852 184 L844 184 Q821 137 791.5 99.5 Q762 62 724 35.5 Q686 9 638 -5.5 Q590 -20 530 -20 Q429 -20 351 13.5 Q273 47 220 116.5 Q167 186 140 293 Q113 400 113 547 Q113 695 140 803 Q167 911 220 981 Q273 1051 351 1084.5 Q429 1118 530 1118 Q589 1118 637 1105 Q685 1092 723.5 1068 Q762 1044 792 1011 Q822 978 844 938 L856 938 Q853 988 850 1032 Q848 1070 846 1107.5 Q844 1145 844 1163 L844 1331 Q844 1376 830.5 1403.5 Q817 1431 794 1446 Q771 1461 740.5 1465.5 Q710 1470 676 1470 L659 1470 L659 1556 L1036 1556 L1036 225 ZM565 111 Q645 111 698.5 137.5 Q752 164 784.5 218 Q817 272 830.5 354 Q844 436 844 547 Q844 654 830.5 736 Q817 818 784.5 873.5 Q752 929 698 958 Q644 987 563 987 Q496 987 448 958 Q400 929 369.5 873 Q339 817 325 734.5 Q311 652 311 545 Q311 327 370 219 Q429 111 565 111 Z" /><glyph glyph-name="" unicode="e" d="M563 1008 Q449 1008 387.5 915.5 Q326 823 315 645 L786 645 Q786 726 774 793 Q762 860 736 908 Q710 956 667.5 982 Q625 1008 563 1008 ZM588 -20 Q477 -20 388.5 17.5 Q300 55 239 127 Q178 199 145.5 303.5 Q113 408 113 541 Q113 828 231 973 Q349 1118 567 1118 Q666 1118 745 1087 Q824 1056 879 994.5 Q934 933 963.5 841.5 Q993 750 993 629 L993 535 L311 535 Q313 423 333.5 342.5 Q354 262 392.5 210 Q431 158 487 133.5 Q543 109 616 109 Q669 109 714.5 121 Q760 133 797 153 Q834 173 862.5 198.5 Q891 224 909 252 Q923 246 935.5 227 Q948 208 948 182 Q948 151 926 115.5 Q904 80 859 50 Q814 20 746.5 0 Q679 -20 588 -20 Z" /><glyph glyph-name="" unicode="f" d="M688 86 L688 0 L55 0 L55 86 L82 86 Q117 86 147.5 91 Q178 96 200.5 111.5 Q223 127 236.5 156 Q250 185 250 233 L250 1001 L63 1001 L63 1098 L250 1098 L250 1200 Q250 1292 275 1362 Q300 1432 347 1480 Q394 1528 461 1552.5 Q528 1577 612 1577 Q692 1577 747 1566.5 Q802 1556 835.5 1537 Q869 1518 884 1492 Q899 1466 899 1434 Q899 1406 886.5 1384.5 Q874 1363 851.5 1348.5 Q829 1334 798.5 1326.5 Q768 1319 731 1319 Q731 1350 724.5 1379.5 Q718 1409 702.5 1432 Q687 1455 661 1469 Q635 1483 596 1483 Q552 1483 522.5 1466 Q493 1449 475 1415.5 Q457 1382 449.5 1333 Q442 1284 442 1219 L442 1098 L731 1098 L731 1001 L442 1001 L442 233 Q442 185 455.5 156 Q469 127 491.5 111.5 Q514 96 545 91 Q576 86 610 86 L688 86 Z" /><glyph glyph-name="" unicode="g" d="M1077 1055 Q1077 1033 1070.5 1013.5 Q1064 994 1051 979.5 Q1038 965 1017.5 956.5 Q997 948 969 948 Q969 960 966 972 Q963 984 955.5 994.5 Q948 1005 935 1011.5 Q922 1018 901 1018 Q875 1018 854 1012 Q833 1006 813 993 Q848 950 870.5 891.5 Q893 833 893 745 Q893 669 870 604.5 Q847 540 801.5 493 Q756 446 686.5 419.5 Q617 393 524 393 Q512 393 497 393.5 Q482 394 467 394.5 Q452 395 439 396.5 Q426 398 418 399 Q398 389 380 377 Q362 365 348.5 350 Q335 335 327 316 Q319 297 319 274 Q319 249 328.5 234 Q338 219 355 210.5 Q372 202 395.5 199.5 Q419 197 446 197 L678 197 Q770 197 834 174 Q898 151 938.5 110.5 Q979 70 997.5 13.5 Q1016 -43 1016 -109 Q1016 -197 983.5 -268 Q951 -339 884 -388.5 Q817 -438 714.5 -465 Q612 -492 473 -492 Q259 -492 153 -413 Q47 -334 47 -193 Q47 -133 68 -88 Q89 -43 124.5 -11 Q160 21 206 41 Q252 61 303 70 Q282 79 262 94 Q242 109 226 130 Q210 151 200 178 Q190 205 190 238 Q190 299 222 343.5 Q254 388 324 430 Q280 448 245.5 479.5 Q211 511 187.5 551.5 Q164 592 151.5 640 Q139 688 139 739 Q139 828 163 898 Q187 968 235 1017 Q283 1066 355 1092 Q427 1118 524 1118 Q561 1118 597 1112.5 Q633 1107 663.5 1097.5 Q694 1088 718.5 1076 Q743 1064 758 1051 Q773 1067 793 1086.5 Q813 1106 838 1122.5 Q863 1139 892.5 1150 Q922 1161 956 1161 Q987 1161 1009.5 1152.5 Q1032 1144 1047 1129.5 Q1062 1115 1069.5 1095.5 Q1077 1076 1077 1055 ZM213 -180 Q213 -225 225 -264 Q237 -303 267 -331 Q297 -359 348 -375 Q399 -391 477 -391 Q587 -391 658.5 -372.5 Q730 -354 772 -321 Q814 -288 831 -242.5 Q848 -197 848 -143 Q848 -96 834.5 -65.5 Q821 -35 794.5 -17.5 Q768 0 729 7 Q690 14 639 14 L438 14 Q395 14 354.5 6.5 Q314 -1 282.5 -22 Q251 -43 232 -81 Q213 -119 213 -180 ZM332 745 Q332 614 375.5 553 Q419 492 518 492 Q568 492 602.5 507 Q637 522 659 553 Q681 584 690.5 632.5 Q700 681 700 748 Q700 886 658 952 Q616 1018 516 1018 Q417 1018 374.5 950.5 Q332 883 332 745 Z" /><glyph glyph-name="" unicode="h" d="M588 86 L588 0 L37 0 L37 86 L53 86 Q88 86 118.5 91 Q149 96 171.5 111.5 Q194 127 207.5 156 Q221 185 221 233 L221 1331 Q221 1376 207.5 1403.5 Q194 1431 171 1446 Q148 1461 117.5 1465.5 Q87 1470 53 1470 L37 1470 L37 1556 L414 1556 L414 1106 Q414 1078 413 1047.5 Q412 1017 410 991 Q408 961 406 932 L416 932 Q508 1118 717 1118 Q804 1118 871.5 1094.5 Q939 1071 985 1022.5 Q1031 974 1055 898 Q1079 822 1079 717 L1079 233 Q1079 185 1091 156 Q1103 127 1124 111.5 Q1145 96 1174 91 Q1203 86 1237 86 L1243 86 L1243 0 L887 0 L887 707 Q887 774 875 826 Q863 878 836.5 914 Q810 950 767 968.5 Q724 987 662 987 Q598 987 551.5 963.5 Q505 940 474.5 896.5 Q444 853 429 791.5 Q414 730 414 655 L414 223 Q414 178 427.5 150.5 Q441 123 464 109 Q487 95 517.5 90.5 Q548 86 582 86 L588 86 Z" /><glyph glyph-name="" unicode="i" d="M74 86 Q108 86 138.5 90.5 Q169 95 192 109 Q215 123 228.5 150.5 Q242 178 242 223 L242 872 Q242 917 228.5 944.5 Q215 972 192 987 Q169 1002 138.5 1007 Q108 1012 74 1012 L68 1012 L68 1098 L434 1098 L434 233 Q434 185 447.5 156 Q461 127 483.5 111.5 Q506 96 537 91 Q568 86 602 86 L629 86 L629 0 L47 0 L47 86 L74 86 ZM213 1430 Q213 1466 222 1490 Q231 1514 247 1529 Q263 1544 284 1550 Q305 1556 330 1556 Q354 1556 375 1550 Q396 1544 411.5 1529 Q427 1514 436.5 1490 Q446 1466 446 1430 Q446 1394 436.5 1370 Q427 1346 411.5 1331 Q396 1316 375 1309.5 Q354 1303 330 1303 Q305 1303 284 1309.5 Q263 1316 247 1331 Q231 1346 222 1370 Q213 1394 213 1430 Z" /><glyph glyph-name="" unicode="j" d="M414 1098 L414 -16 Q414 -154 384 -245.5 Q354 -337 300 -391.5 Q246 -446 171.5 -469 Q97 -492 8 -492 L-25 -492 L-25 -395 L-10 -395 Q45 -395 88 -376.5 Q131 -358 160.5 -314.5 Q190 -271 205.5 -198.5 Q221 -126 221 -18 L221 872 Q221 917 207.5 944.5 Q194 972 171 987 Q148 1002 117.5 1007 Q87 1012 53 1012 L47 1012 L47 1098 L414 1098 ZM193 1430 Q193 1466 202 1490 Q211 1514 226.5 1529 Q242 1544 263.5 1550 Q285 1556 309 1556 Q333 1556 354.5 1550 Q376 1544 391.5 1529 Q407 1514 416.5 1490 Q426 1466 426 1430 Q426 1394 416.5 1370 Q407 1346 391.5 1331 Q376 1316 354.5 1309.5 Q333 1303 309 1303 Q285 1303 263.5 1309.5 Q242 1316 226.5 1331 Q211 1346 202 1370 Q193 1394 193 1430 Z" /><glyph glyph-name="" unicode="k" d="M694 659 L967 254 Q1020 172 1072.5 129 Q1125 86 1194 86 L1200 86 L1200 0 L1171 0 Q1082 0 1024.5 5.5 Q967 11 925 31.5 Q883 52 848 91.5 Q813 131 770 199 L565 520 L414 408 L414 223 Q414 178 427.5 150.5 Q441 123 464 109 Q487 95 517.5 90.5 Q548 86 582 86 L588 86 L588 0 L37 0 L37 86 L53 86 Q88 86 118.5 91 Q149 96 171.5 111.5 Q194 127 207.5 156 Q221 185 221 233 L221 1331 Q221 1376 207.5 1403.5 Q194 1431 171 1446 Q148 1461 117.5 1465.5 Q87 1470 53 1470 L37 1470 L37 1556 L414 1556 L414 766 Q414 738 413 694.5 Q412 651 410 609 Q408 561 406 508 L662 788 Q695 825 716.5 853 Q738 881 751 902 Q764 923 769 939.5 Q774 956 774 971 Q774 997 749.5 1004.5 Q725 1012 674 1012 L674 1098 L1126 1098 L1126 1012 Q1055 1012 986.5 962 Q918 912 838 821 L694 659 Z" /><glyph glyph-name="" unicode="l" d="M53 86 Q88 86 118.5 91 Q149 96 171.5 111.5 Q194 127 207.5 156 Q221 185 221 233 L221 1331 Q221 1376 207.5 1403.5 Q194 1431 171 1446 Q148 1461 117.5 1465.5 Q87 1470 53 1470 L27 1470 L27 1556 L414 1556 L414 233 Q414 185 427 156 Q440 127 463 111.5 Q486 96 516.5 91 Q547 86 582 86 L608 86 L608 0 L27 0 L27 86 L53 86 Z" /><glyph glyph-name="" unicode="m" d="M608 86 L608 0 L57 0 L57 86 L84 86 Q119 86 148 91 Q177 96 198 111.5 Q219 127 230.5 156 Q242 185 242 233 L242 872 Q242 917 230 944.5 Q218 972 197 987 Q176 1002 147 1007 Q118 1012 84 1012 L78 1012 L78 1098 L399 1098 L426 932 L436 932 Q467 989 501 1025.5 Q535 1062 573.5 1082.5 Q612 1103 654.5 1110.5 Q697 1118 745 1118 Q795 1118 840 1108 Q885 1098 923.5 1076 Q962 1054 992.5 1018.5 Q1023 983 1042 932 L1059 932 Q1090 989 1126 1025.5 Q1162 1062 1202.5 1082.5 Q1243 1103 1287.5 1110.5 Q1332 1118 1380 1118 Q1458 1118 1520 1094.5 Q1582 1071 1625 1022.5 Q1668 974 1691 898 Q1714 822 1714 717 L1714 233 Q1714 185 1726 156 Q1738 127 1759 111.5 Q1780 96 1809 91 Q1838 86 1872 86 L1878 86 L1878 0 L1522 0 L1522 707 Q1522 774 1510.5 826 Q1499 878 1473.5 914 Q1448 950 1407 968.5 Q1366 987 1307 987 Q1243 987 1199.5 962.5 Q1156 938 1129 896 Q1102 854 1090.5 799 Q1079 744 1079 682 L1079 233 Q1079 185 1091 156 Q1103 127 1124 111.5 Q1145 96 1174 91 Q1203 86 1237 86 L1243 86 L1243 0 L887 0 L887 707 Q887 774 875.5 826 Q864 878 838.5 914 Q813 950 772 968.5 Q731 987 672 987 Q605 987 559.5 960 Q514 933 486 887 Q458 841 446 781 Q434 721 434 655 L434 223 Q434 178 447.5 150.5 Q461 123 484 109 Q507 95 537.5 90.5 Q568 86 602 86 L608 86 Z" /><glyph glyph-name="" unicode="n" d="M608 86 L608 0 L57 0 L57 86 L74 86 Q109 86 139.5 91 Q170 96 192.5 111.5 Q215 127 228.5 156 Q242 185 242 233 L242 872 Q242 917 228.5 944.5 Q215 972 192 987 Q169 1002 138.5 1007 Q108 1012 74 1012 L68 1012 L68 1098 L399 1098 L426 932 L436 932 Q468 989 503.5 1025.5 Q539 1062 578.5 1082.5 Q618 1103 662.5 1110.5 Q707 1118 756 1118 Q837 1118 900.5 1094.5 Q964 1071 1008.5 1022.5 Q1053 974 1076.5 898 Q1100 822 1100 717 L1100 233 Q1100 185 1111.5 156 Q1123 127 1144 111.5 Q1165 96 1194 91 Q1223 86 1257 86 L1264 86 L1264 0 L907 0 L907 707 Q907 774 895 826 Q883 878 856.5 914 Q830 950 787 968.5 Q744 987 682 987 Q612 987 564.5 960 Q517 933 488 887 Q459 841 446.5 781 Q434 721 434 655 L434 223 Q434 178 447.5 150.5 Q461 123 484 109 Q507 95 537.5 90.5 Q568 86 602 86 L608 86 Z" /><glyph glyph-name="" unicode="o" d="M1069 551 Q1069 262 946.5 121 Q824 -20 588 -20 Q477 -20 389 15 Q301 50 239.5 121 Q178 192 145.5 299.5 Q113 407 113 551 Q113 838 234.5 978 Q356 1118 594 1118 Q705 1118 793 1083.5 Q881 1049 942.5 978.5 Q1004 908 1036.5 801.5 Q1069 695 1069 551 ZM311 551 Q311 437 326 350 Q341 263 374.5 204.5 Q408 146 461.5 116 Q515 86 592 86 Q669 86 722 116 Q775 146 808 204.5 Q841 263 855.5 350 Q870 437 870 551 Q870 665 855 751 Q840 837 807 894.5 Q774 952 720.5 981 Q667 1010 590 1010 Q513 1010 460 981 Q407 952 374 894.5 Q341 837 326 751 Q311 665 311 551 Z" /><glyph glyph-name="" unicode="p" d="M692 987 Q612 987 558.5 960.5 Q505 934 473 880 Q441 826 427.5 744 Q414 662 414 551 Q414 444 427.5 362 Q441 280 473.5 224 Q506 168 559.5 139.5 Q613 111 694 111 Q762 111 809.5 139.5 Q857 168 887.5 224 Q918 280 932 362.5 Q946 445 946 553 Q946 662 932 743.5 Q918 825 887.5 879 Q857 933 808.5 960 Q760 987 692 987 ZM1145 551 Q1145 403 1117.5 295 Q1090 187 1037 117 Q984 47 906 13.5 Q828 -20 727 -20 Q668 -20 620 -7 Q572 6 533.5 30 Q495 54 465.5 87 Q436 120 414 160 L406 160 Q408 107 410 61 Q411 42 411.5 21.5 Q412 1 412.5 -17 Q413 -35 413.5 -49.5 Q414 -64 414 -72 L414 -268 Q414 -313 427.5 -340.5 Q441 -368 464 -382.5 Q487 -397 517.5 -401.5 Q548 -406 582 -406 L588 -406 L588 -492 L37 -492 L37 -406 L53 -406 Q88 -406 118.5 -401 Q149 -396 171.5 -380.5 Q194 -365 207.5 -335.5 Q221 -306 221 -258 L221 872 Q221 917 207.5 944.5 Q194 972 171 987 Q148 1002 117.5 1007 Q87 1012 53 1012 L27 1012 L27 1098 L385 1098 L406 913 L414 913 Q437 960 466 998 Q495 1036 533 1062.5 Q571 1089 619 1103.5 Q667 1118 727 1118 Q828 1118 906 1084.5 Q984 1051 1037 981.5 Q1090 912 1117.5 805 Q1145 698 1145 551 Z" /><glyph glyph-name="" unicode="q" d="M1221 -492 L608 -492 L608 -406 L676 -406 Q711 -406 741.5 -401 Q772 -396 794.5 -380.5 Q817 -365 830.5 -335.5 Q844 -306 844 -258 L844 -82 Q844 -47 845 -1.5 Q846 44 848 86 Q850 134 852 184 L844 184 Q821 137 791.5 99.5 Q762 62 724 35.5 Q686 9 638 -5.5 Q590 -20 530 -20 Q429 -20 351 13.5 Q273 47 220 116.5 Q167 186 140 293 Q113 400 113 547 Q113 695 140 803 Q167 911 220 981 Q273 1051 351 1084.5 Q429 1118 530 1118 Q589 1118 637 1105 Q685 1092 723.5 1068 Q762 1044 792 1011 Q822 978 844 938 L856 938 L893 1098 L1221 1098 L1221 1012 L1204 1012 Q1170 1012 1139 1007 Q1108 1002 1085.5 986.5 Q1063 971 1049.5 941.5 Q1036 912 1036 864 L1036 -266 Q1036 -311 1049.5 -338.5 Q1063 -366 1086 -381 Q1109 -396 1139.5 -401 Q1170 -406 1204 -406 L1221 -406 L1221 -492 ZM565 111 Q645 111 698.5 137.5 Q752 164 784.5 218 Q817 272 830.5 354 Q844 436 844 547 Q844 654 830.5 736 Q817 818 784.5 873.5 Q752 929 698 958 Q644 987 563 987 Q496 987 448 958 Q400 929 369.5 873 Q339 817 325 734.5 Q311 652 311 545 Q311 327 370 219 Q429 111 565 111 Z" /><glyph glyph-name="" unicode="r" d="M659 0 L68 0 L68 86 L74 86 Q109 86 139.5 91 Q170 96 192.5 111.5 Q215 127 228.5 156 Q242 185 242 233 L242 872 Q242 917 228.5 944.5 Q215 972 192 987 Q169 1002 138.5 1007 Q108 1012 74 1012 L68 1012 L68 1098 L383 1098 L422 895 L432 895 Q452 941 473 981.5 Q494 1022 524.5 1052.5 Q555 1083 600 1100.5 Q645 1118 713 1118 Q825 1118 879.5 1079 Q934 1040 934 969 Q934 937 923.5 910 Q913 883 890 863.5 Q867 844 831 833.5 Q795 823 743 823 Q743 908 719 945.5 Q695 983 635 983 Q597 983 567 961.5 Q537 940 514.5 904.5 Q492 869 476.5 823 Q461 777 451.5 728.5 Q442 680 438 632 Q434 584 434 545 L434 223 Q434 178 447.5 150.5 Q461 123 484 109 Q507 95 537.5 90.5 Q568 86 602 86 L659 86 L659 0 Z" /><glyph glyph-name="" unicode="s" d="M430 -20 Q353 -20 290.5 -6.5 Q228 7 184 34.5 Q140 62 116 102.5 Q92 143 92 197 Q92 238 105.5 265.5 Q119 293 138.5 309 Q158 325 180.5 331.5 Q203 338 221 338 Q221 284 232 237 Q243 190 269 154.5 Q295 119 337.5 98.5 Q380 78 442 78 Q497 78 539 91.5 Q581 105 609.5 129.5 Q638 154 653 188.5 Q668 223 668 264 Q668 302 656.5 329.5 Q645 357 616.5 381 Q588 405 539 430 Q490 455 416 487 Q337 522 278.5 554.5 Q220 587 182 625 Q144 663 125 711.5 Q106 760 106 827 Q106 897 133.5 951 Q161 1005 212 1041.5 Q263 1078 334 1097 Q405 1116 492 1116 Q565 1116 621 1101 Q677 1086 715 1060.5 Q753 1035 772 1000.5 Q791 966 791 928 Q791 872 752.5 838.5 Q714 805 643 805 Q643 908 600.5 965 Q558 1022 467 1022 Q415 1022 378 1010 Q341 998 317.5 976 Q294 954 283 924 Q272 894 272 858 Q272 819 286 790.5 Q300 762 330.5 738 Q361 714 409.5 691.5 Q458 669 526 641 Q607 607 665 574 Q723 541 760.5 502 Q798 463 816 414 Q834 365 834 301 Q834 221 805 161 Q776 101 723 60.5 Q670 20 595.5 0 Q521 -20 430 -20 Z" /><glyph glyph-name="" unicode="t" d="M543 88 Q580 88 611 92 Q642 96 674 102 L674 12 Q661 6 640 0 Q619 -6 594.5 -10.5 Q570 -15 543 -17.5 Q516 -20 492 -20 Q414 -20 358 -3.5 Q302 13 266 50 Q230 87 212.5 148 Q195 209 195 297 L195 981 L39 981 L39 1063 Q76 1063 120.5 1078 Q165 1093 199 1128 Q234 1166 255.5 1218.5 Q277 1271 293 1350 L387 1350 L387 1098 L655 1098 L655 981 L387 981 L387 291 Q387 186 429.5 137 Q472 88 543 88 Z" /><glyph glyph-name="" unicode="u" d="M1079 223 Q1079 178 1092.5 150.5 Q1106 123 1129 109 Q1152 95 1182.5 90.5 Q1213 86 1247 86 L1253 86 L1253 0 L928 0 L901 166 L891 166 Q860 108 822.5 72 Q785 36 743 15.5 Q701 -5 655 -12.5 Q609 -20 559 -20 Q478 -20 415 3 Q352 26 309 75 Q266 124 243.5 200 Q221 276 221 381 L221 872 Q221 917 207.5 944.5 Q194 972 171 987 Q148 1002 117.5 1007 Q87 1012 53 1012 L47 1012 L47 1098 L414 1098 L414 391 Q414 324 424.5 272 Q435 220 459.5 184 Q484 148 525.5 129.5 Q567 111 629 111 Q697 111 745.5 135 Q794 159 825.5 202.5 Q857 246 872 307 Q887 368 887 442 L887 864 Q887 912 873.5 941.5 Q860 971 837.5 986.5 Q815 1002 784.5 1007 Q754 1012 719 1012 L713 1012 L713 1098 L1079 1098 L1079 223 Z" /><glyph glyph-name="" unicode="v" d="M8 1012 L8 1098 L520 1098 L520 1012 L494 1012 Q432 1012 401.5 988 Q371 964 371 913 Q371 896 375 878.5 Q379 861 387 838 L526 451 Q539 415 553 371.5 Q567 328 579.5 286 Q592 244 602 206.5 Q612 169 616 143 L623 143 Q628 165 639.5 197.5 Q651 230 665.5 268.5 Q680 307 695.5 347 Q711 387 725 424 L872 823 Q882 848 886.5 871 Q891 894 891 911 Q891 964 857.5 988 Q824 1012 756 1012 L741 1012 L741 1098 L1180 1098 L1180 1012 L1155 1012 Q1125 1012 1104 1005.5 Q1083 999 1066 981 Q1049 963 1033.5 932 Q1018 901 999 852 L676 0 L489 0 L160 903 Q148 935 135 956 Q122 977 105 989.5 Q88 1002 66 1007 Q44 1012 14 1012 L8 1012 Z" /><glyph glyph-name="" unicode="w" d="M975 1092 L1180 485 Q1192 448 1205.5 405.5 Q1219 363 1231 321.5 Q1243 280 1253 243 Q1263 206 1268 180 L1274 180 Q1283 231 1303 305.5 Q1323 380 1354 479 L1456 809 Q1464 835 1469.5 864.5 Q1475 894 1475 911 Q1475 964 1441.5 988 Q1408 1012 1339 1012 L1325 1012 L1325 1098 L1763 1098 L1763 1012 L1737 1012 Q1707 1012 1685 1006 Q1663 1000 1645.5 982.5 Q1628 965 1613 934 Q1598 903 1583 852 L1319 0 L1155 0 L911 721 L874 856 L584 0 L422 0 L154 903 Q142 935 129 956 Q116 977 99 989.5 Q82 1002 60 1007 Q38 1012 8 1012 L2 1012 L2 1098 L508 1098 L508 1012 L481 1012 Q420 1012 389 994 Q358 976 358 926 Q358 909 363.5 885 Q369 861 375 838 L471 494 Q481 457 492 413 Q503 369 512.5 325.5 Q522 282 530 244 Q538 206 543 180 L549 180 Q554 206 562.5 240.5 Q571 275 582.5 314.5 Q594 354 607 395 Q620 436 633 473 L846 1092 L975 1092 Z" /><glyph glyph-name="" unicode="x" d="M786 952 Q786 989 754.5 1000.5 Q723 1012 676 1012 L670 1012 L670 1098 L1118 1098 L1118 1012 L1100 1012 Q1070 1012 1045.5 1007 Q1021 1002 997.5 988 Q974 974 949 948 Q924 922 893 881 L682 600 L983 195 Q1028 135 1068.5 110.5 Q1109 86 1147 86 L1174 86 L1174 0 L645 0 L645 86 L655 86 Q778 86 778 154 Q778 165 775 176.5 Q772 188 763 203.5 Q754 219 739 241 Q724 263 700 295 L563 479 L420 279 Q411 267 401 251 Q391 235 383 218 Q375 201 370 183.5 Q365 166 365 150 Q365 115 394 100.5 Q423 86 492 86 L498 86 L498 0 L10 0 L10 86 L29 86 Q66 86 94 92 Q122 98 147 113 Q172 128 197 153.5 Q222 179 252 217 L510 551 L252 903 Q207 956 164.5 984 Q122 1012 76 1012 L49 1012 L49 1098 L569 1098 L569 1012 L563 1012 Q528 1012 505 1007.5 Q482 1003 469 994.5 Q456 986 451 975 Q446 964 446 952 Q446 931 458.5 910.5 Q471 890 494 858 L629 674 L735 827 Q758 862 772 893 Q786 924 786 952 Z" /><glyph glyph-name="" unicode="y" d="M1157 1098 L1157 1012 L1151 1012 Q1121 1012 1099.5 1005.5 Q1078 999 1060.5 981 Q1043 963 1028 932 Q1013 901 995 852 L684 -8 Q648 -107 616 -182 Q584 -257 549 -310.5 Q514 -364 472.5 -399 Q431 -434 378 -455 Q325 -476 256 -484 Q187 -492 96 -492 L78 -492 L78 -395 Q182 -395 257 -364 Q332 -333 386.5 -279 Q441 -225 477.5 -151.5 Q514 -78 539 8 L160 903 Q146 935 133 955.5 Q120 976 103.5 989 Q87 1002 65.5 1007 Q44 1012 14 1012 L8 1012 L8 1098 L500 1098 L500 1012 L494 1012 Q432 1012 401.5 988 Q371 964 371 913 Q371 896 374.5 878.5 Q378 861 387 838 L537 473 Q551 438 566.5 396.5 Q582 355 595.5 314.5 Q609 274 620 238 Q631 202 635 176 L641 176 Q652 221 671.5 285.5 Q691 350 717 424 L854 823 Q863 848 867.5 871 Q872 894 872 911 Q872 964 838.5 988 Q805 1012 737 1012 L731 1012 L731 1098 L1157 1098 Z" /><glyph glyph-name="" unicode="z" d="M696 117 Q732 117 755.5 131 Q779 145 794.5 168 Q810 191 819.5 221.5 Q829 252 836 285 L846 332 L932 332 L922 0 L86 0 L86 82 L680 981 L360 981 Q320 981 294 970.5 Q268 960 251.5 939 Q235 918 224.5 887 Q214 856 203 815 L201 807 L115 807 L135 1098 L920 1098 L920 1014 L324 117 L696 117 Z" /><glyph glyph-name="" unicode="{" d="M639 -262 Q567 -262 511.5 -241 Q456 -220 419 -182 Q382 -144 363 -89.5 Q344 -35 344 33 L344 389 Q344 452 325.5 493 Q307 534 274 558.5 Q241 583 197 593.5 Q153 604 102 606 L102 692 Q153 694 197 704 Q241 714 274 738.5 Q307 763 325.5 804 Q344 845 344 907 L344 1264 Q344 1404 418.5 1480 Q493 1556 639 1556 L774 1556 L774 1468 L713 1468 Q622 1468 583.5 1414 Q545 1360 545 1253 L545 903 Q545 803 488.5 736.5 Q432 670 317 651 L317 649 Q435 629 490 563 Q545 497 545 395 L545 41 Q545 -64 583.5 -119 Q622 -174 713 -174 L774 -174 L774 -262 L639 -262 Z" /><glyph glyph-name="" unicode="|" d="M633 -492 L510 -492 L510 1556 L633 1556 L633 -492 Z" /><glyph glyph-name="" unicode="}" d="M102 -174 L164 -174 Q255 -174 293.5 -119 Q332 -64 332 41 L332 395 Q332 497 386.5 563 Q441 629 559 649 L559 651 Q445 670 388.5 736.5 Q332 803 332 903 L332 1253 Q332 1360 293.5 1414 Q255 1468 164 1468 L102 1468 L102 1556 L238 1556 Q383 1556 457.5 1480 Q532 1404 532 1264 L532 907 Q532 845 551 804 Q570 763 602.5 738.5 Q635 714 679 704 Q723 694 774 692 L774 606 Q723 604 679 593.5 Q635 583 602.5 558.5 Q570 534 551 493 Q532 452 532 389 L532 33 Q532 -35 513 -89.5 Q494 -144 457 -182 Q420 -220 365 -241 Q310 -262 238 -262 L102 -262 L102 -174 Z" /><glyph glyph-name="" unicode="~" d="M774 551 Q744 551 712 563.5 Q680 576 648.5 595 Q617 614 588.5 636.5 Q560 659 537 680 Q514 701 492 720.5 Q470 740 448.5 755 Q427 770 405 779 Q383 788 360 788 Q300 788 271 730 Q242 672 231 551 L111 551 Q117 615 129.5 679 Q142 743 170 794 Q198 845 245.5 877 Q293 909 369 909 Q403 909 437 896 Q471 883 503 863 Q535 843 563.5 819 Q592 795 616 774 Q638 754 659 735.5 Q680 717 700.5 703 Q721 689 742 680.5 Q763 672 784 672 Q841 672 868 733.5 Q895 795 909 909 L1032 909 Q1025 845 1011 781 Q997 717 968.5 666 Q940 615 893.5 583 Q847 551 774 551 Z" /><glyph glyph-name="" unicode="&#x2014;" d="M2058 489 L-10 489 L-10 610 L2058 610 L2058 489 Z" /><glyph glyph-name="" unicode="&#x2019;" d="M397 1284 Q397 1219 379 1158 Q361 1097 320.5 1045 Q280 993 216.5 951.5 Q153 910 61 883 L61 969 Q162 1001 209 1047 Q256 1093 256 1153 Q256 1173 245 1186.5 Q234 1200 217 1210.5 Q200 1221 181 1231 Q162 1241 145 1255 Q128 1269 117 1289.5 Q106 1310 106 1341 Q106 1400 144.5 1431 Q183 1462 240 1462 Q272 1462 300 1450.5 Q328 1439 350 1416.5 Q372 1394 384.5 1360.5 Q397 1327 397 1284 Z" /><glyph glyph-name="" unicode="&#x201c;" d="M524 1063 Q524 1128 542 1189 Q560 1250 600.5 1302 Q641 1354 705 1395.5 Q769 1437 860 1464 L860 1378 Q760 1346 713 1300 Q666 1254 666 1194 Q666 1174 677 1160.5 Q688 1147 704.5 1136.5 Q721 1126 740.5 1116 Q760 1106 776.5 1092 Q793 1078 804 1057.5 Q815 1037 815 1006 Q815 947 777 916 Q739 885 682 885 Q651 885 622 896.5 Q593 908 571.5 930.5 Q550 953 537 986.5 Q524 1020 524 1063 ZM115 1063 Q115 1128 133 1189 Q151 1250 191.5 1302 Q232 1354 296 1395.5 Q360 1437 451 1464 L451 1378 Q350 1346 303 1300 Q256 1254 256 1194 Q256 1174 267 1160.5 Q278 1147 295 1136.5 Q312 1126 331 1116 Q350 1106 367 1092 Q384 1078 395 1057.5 Q406 1037 406 1006 Q406 947 367.5 916 Q329 885 272 885 Q241 885 212.5 896.5 Q184 908 162 930.5 Q140 953 127.5 986.5 Q115 1020 115 1063 Z" /><glyph glyph-name="" unicode="&#x201d;" d="M397 1284 Q397 1219 379 1158 Q361 1097 320.5 1045 Q280 993 216.5 951.5 Q153 910 61 883 L61 969 Q162 1001 209 1047 Q256 1093 256 1153 Q256 1173 245 1186.5 Q234 1200 217 1210.5 Q200 1221 181 1231 Q162 1241 145 1255 Q128 1269 117 1289.5 Q106 1310 106 1341 Q106 1400 144.5 1431 Q183 1462 240 1462 Q272 1462 300 1450.5 Q328 1439 350 1416.5 Q372 1394 384.5 1360.5 Q397 1327 397 1284 ZM807 1284 Q807 1219 789 1158 Q771 1097 730.5 1045 Q690 993 626.5 951.5 Q563 910 471 883 L471 969 Q571 1001 618.5 1047 Q666 1093 666 1153 Q666 1173 655 1186.5 Q644 1200 627 1210.5 Q610 1221 591 1231 Q572 1241 555 1255 Q538 1269 527 1289.5 Q516 1310 516 1341 Q516 1400 554 1431 Q592 1462 649 1462 Q681 1462 709.5 1450.5 Q738 1439 759.5 1416.5 Q781 1394 794 1360.5 Q807 1327 807 1284 Z" /><glyph glyph-name="" unicode="&#x2500;" d="M-10 678 L-10 823 L1460 823 L1460 678 L-10 678 Z" /><glyph glyph-name="" unicode="&#x2514;" d="M653 1993 L799 1993 L799 823 L1460 823 L1460 678 L653 678 L653 1993 Z" /><glyph glyph-name="" unicode="&#x251c;" d="M653 1993 L799 1993 L799 823 L1460 823 L1460 678 L799 678 L799 -492 L653 -492 L653 1993 Z" /></font>
</defs>
</svg>
