<?xml version="1.0" standalone="no"?><!DOCTYPE svg PUBLIC "-//W3C//DTD SVG 1.1//EN" "http://www.w3.org/Graphics/SVG/1.1/DTD/svg11.dtd" ><svg xmlns="http://www.w3.org/2000/svg"><metadata></metadata><defs><font id="Source Han Sans SC Normal:Version 1.001" horiz-adv-x="1000"><font-face font-family="Source Han Sans SC Normal" font-weight="350" font-stretch="normal" units-per-em="1000" panose-1="2 11 4 0 0 0 0 0 0 0" ascent="880" descent="-120" x-height="0" bbox="-42 -279 1000 880" underline-thickness="50" underline-position="-125" unicode-range="U+0021-ff5e" /><missing-glyph horiz-adv-x="1000" d="M100 880 L900 880 L900 -120 L100 -120 L100 880 ZM818 830 L182 830 L500 421 L818 830 ZM850 -29 L850 789 L532 380 L850 -29 ZM818 -70 L500 339 L182 -70 L818 -70 ZM150 -29 L468 380 L150 789 L150 -29 Z" /><glyph glyph-name="" unicode="!" d="M116 747 L198 747 L185 216 L129 216 L116 747 ZM157 -13 Q132 -13 114 5 Q96 23 96 51 Q96 80 114 99 Q132 117 157 117 Q183 117 200 99 Q219 80 219 51 Q219 23 200 5 Q182 -13 157 -13 Z" /><glyph glyph-name="" unicode="&quot;" d="M92 673 L90 770 L178 770 L175 673 L160 493 L108 493 L92 673 ZM279 673 L277 770 L365 770 L363 673 L346 493 L295 493 L279 673 Z" /><glyph glyph-name="" unicode="#" d="M129 230 L40 230 L40 289 L136 289 L157 459 L62 459 L62 517 L164 517 L190 724 L244 724 L219 517 L371 517 L398 724 L452 724 L425 517 L515 517 L515 459 L419 459 L398 289 L493 289 L493 230 L391 230 L364 0 L309 0 L336 230 L184 230 L156 0 L101 0 L129 230 ZM343 289 L364 459 L212 459 L191 289 L343 289 Z" /><glyph glyph-name="" unicode="$" d="M422 592 Q358 656 284 656 Q232 656 200 625 Q168 594 168 544 Q168 488 217 450 Q238 433 325 390 Q400 353 433 316 Q482 263 482 181 Q482 102 435 51 Q389 0 310 -11 L310 -122 L249 -122 L249 -12 Q141 -1 60 74 L99 130 Q183 55 272 55 Q402 55 402 175 Q402 238 353 281 Q326 305 245 346 Q168 385 137 417 Q88 466 88 540 Q88 613 133 663 Q177 712 249 723 L249 834 L310 834 L310 724 Q397 715 466 641 L422 592 Z" /><glyph glyph-name="" unicode="%" d="M204 284 Q128 284 85 345 Q40 406 40 516 Q40 625 85 686 Q128 745 204 745 Q280 745 324 686 Q368 625 368 516 Q368 406 324 345 Q280 284 204 284 ZM204 336 Q250 336 277 382 Q305 429 305 516 Q305 602 277 649 Q250 694 204 694 Q158 694 131 649 Q103 602 103 516 Q103 429 131 382 Q158 336 204 336 ZM630 745 L687 745 L282 -13 L225 -13 L630 745 ZM710 -13 Q634 -13 591 47 Q546 109 546 219 Q546 327 591 388 Q634 448 710 448 Q785 448 829 388 Q874 327 874 219 Q874 109 829 47 Q785 -13 710 -13 ZM710 38 Q756 38 783 84 Q811 132 811 219 Q811 305 783 352 Q756 396 710 396 Q609 396 609 219 Q609 131 637 84 Q663 38 710 38 Z" /><glyph glyph-name="" unicode="&amp;" d="M116 193 Q116 131 160 91 Q203 52 266 52 Q340 52 411 116 Q290 223 215 344 Q116 265 116 193 ZM205 576 Q205 515 241 441 Q370 529 370 602 Q370 686 298 686 Q256 686 230 654 Q205 623 205 576 ZM631 -13 Q555 8 466 73 Q373 -13 257 -13 Q160 -13 99 43 Q37 100 37 189 Q37 299 182 401 Q134 497 134 575 Q134 648 179 696 Q226 745 299 745 Q363 745 401 705 Q437 667 437 604 Q437 540 385 482 Q353 446 271 386 Q345 266 461 170 Q532 262 568 392 L643 392 Q598 235 515 128 Q591 73 653 55 L631 -13 Z" /><glyph glyph-name="" unicode="&#39;" d="M92 673 L90 770 L178 770 L175 673 L160 493 L108 493 L92 673 Z" /><glyph glyph-name="" unicode="(" d="M240 -196 Q93 42 93 310 Q93 578 240 816 L290 792 Q161 579 161 310 Q161 41 290 -172 L240 -196 Z" /><glyph glyph-name="" unicode=")" d="M41 -172 Q170 41 170 310 Q170 579 41 792 L91 816 Q238 578 238 310 Q238 42 91 -196 L41 -172 Z" /><glyph glyph-name="" unicode="*" d="M112 509 L174 613 L67 656 L83 703 L195 674 L205 794 L255 794 L264 676 L376 703 L391 656 L285 613 L347 509 L307 480 L230 575 L152 480 L112 509 Z" /><glyph glyph-name="" unicode="+" d="M241 337 L38 337 L38 398 L241 398 L241 618 L308 618 L308 398 L511 398 L511 337 L308 337 L308 117 L241 117 L241 337 Z" /><glyph glyph-name="" unicode="," d="M53 -137 Q149 -92 150 -1 Q146 -2 138 -2 Q112 -2 95 13 Q76 30 76 58 Q76 85 95 101 Q113 117 139 117 Q212 117 212 16 Q212 -123 74 -185 L53 -137 Z" /><glyph glyph-name="" unicode="-&#x2011;" d="M46 311 L299 311 L299 247 L46 247 L46 311 Z" /><glyph glyph-name="" unicode="." d="M134 -13 Q109 -13 91 5 Q73 23 73 51 Q73 80 91 99 Q109 117 134 117 Q160 117 178 99 Q196 80 196 51 Q196 23 178 5 Q160 -13 134 -13 Z" /><glyph glyph-name="" unicode="/" d="M319 791 L380 791 L71 -178 L11 -178 L319 791 Z" /><glyph glyph-name="" unicode="0" d="M275 -13 Q169 -13 111 82 Q50 181 50 369 Q50 555 111 652 Q169 745 275 745 Q380 745 438 652 Q498 555 498 369 Q498 181 438 82 Q380 -13 275 -13 ZM275 53 Q419 53 419 369 Q419 524 379 604 Q342 679 275 679 Q207 679 169 604 Q129 524 129 369 Q129 211 169 129 Q207 53 275 53 Z" /><glyph glyph-name="" unicode="1" d="M89 68 L253 68 L253 629 L124 629 L124 682 Q216 698 272 732 L334 732 L334 68 L483 68 L483 0 L89 0 L89 68 Z" /><glyph glyph-name="" unicode="2" d="M45 49 Q383 344 383 528 Q383 596 349 636 Q312 679 244 679 Q163 679 88 592 L40 638 Q139 745 253 745 Q350 745 407 687 Q463 629 463 531 Q463 341 168 64 Q227 70 288 70 L498 70 L498 0 L45 0 L45 49 Z" /><glyph glyph-name="" unicode="3" d="M262 -13 Q122 -13 30 87 L72 140 Q155 55 257 55 Q325 55 367 93 Q410 133 410 197 Q410 349 178 349 L178 413 Q384 413 384 558 Q384 613 350 646 Q315 679 256 680 Q173 679 102 606 L57 659 Q151 745 259 746 Q352 745 408 698 Q467 649 467 564 Q467 433 336 386 L336 382 Q404 366 446 319 Q492 268 492 195 Q492 100 425 42 Q361 -13 262 -13 Z" /><glyph glyph-name="" unicode="4" d="M340 269 L340 507 Q340 565 346 637 L341 637 Q318 592 283 531 L106 269 L340 269 ZM517 204 L417 204 L417 0 L340 0 L340 204 L19 204 L19 257 L330 732 L417 732 L417 269 L517 269 L517 204 Z" /><glyph glyph-name="" unicode="5" d="M259 -13 Q125 -13 28 84 L69 138 Q150 55 252 55 Q320 55 366 104 Q413 154 413 235 Q413 315 370 362 Q328 408 256 408 Q198 408 132 364 L87 392 L110 732 L460 732 L460 662 L182 662 L162 440 Q217 471 276 471 Q373 471 431 415 Q495 353 495 237 Q495 123 422 52 Q355 -13 259 -13 Z" /><glyph glyph-name="" unicode="6" d="M299 52 Q354 52 390 100 Q427 148 427 223 Q427 392 290 392 Q205 392 136 295 Q152 52 299 52 ZM446 621 Q398 677 328 677 Q139 677 134 364 Q208 453 303 453 Q398 453 451 395 Q505 336 505 223 Q505 120 444 53 Q384 -13 299 -13 Q190 -13 125 78 Q57 174 57 348 Q57 551 139 655 Q209 745 325 745 Q422 745 492 672 L446 621 Z" /><glyph glyph-name="" unicode="7" d="M200 0 Q217 397 408 662 L49 662 L49 732 L502 732 L502 683 Q380 525 333 365 Q295 233 285 0 L200 0 Z" /><glyph glyph-name="" unicode="8" d="M277 -13 Q176 -13 111 42 Q45 97 45 182 Q45 311 181 386 L181 390 Q82 457 82 558 Q82 640 139 692 Q194 743 279 743 Q371 743 425 689 Q478 636 478 550 Q478 450 379 372 L379 367 Q503 295 503 175 Q503 95 441 42 Q377 -13 277 -13 ZM327 394 Q407 462 407 546 Q407 604 373 641 Q337 681 277 681 Q225 681 191 647 Q157 612 157 558 Q157 497 209 455 Q245 426 327 394 ZM278 48 Q343 48 385 85 Q425 121 425 177 Q425 245 365 291 Q328 318 225 360 Q119 293 119 188 Q119 128 164 88 Q210 48 278 48 Z" /><glyph glyph-name="" unicode="9" d="M258 340 Q344 340 416 441 Q403 681 251 681 Q196 681 160 633 Q123 585 123 509 Q123 431 156 387 Q192 340 258 340 ZM104 111 Q155 55 229 55 Q308 55 356 125 Q412 206 417 372 Q341 279 245 279 Q152 279 99 337 Q45 398 45 509 Q45 612 106 680 Q165 745 251 745 Q361 745 425 658 Q494 567 494 400 Q494 190 414 81 Q344 -13 231 -13 Q129 -13 59 60 L104 111 Z" /><glyph glyph-name="" unicode=":" d="M134 395 Q109 395 91 413 Q73 431 73 459 Q73 488 91 507 Q109 525 134 525 Q160 525 178 507 Q196 488 196 459 Q196 431 178 413 Q160 395 134 395 ZM134 -13 Q109 -13 91 5 Q73 23 73 51 Q73 80 91 99 Q109 117 134 117 Q160 117 178 99 Q196 80 196 51 Q196 23 178 5 Q160 -13 134 -13 Z" /><glyph glyph-name="" unicode=";" d="M134 395 Q109 395 91 413 Q73 431 73 459 Q73 488 91 507 Q109 525 134 525 Q160 525 178 507 Q196 488 196 459 Q196 431 178 413 Q160 395 134 395 ZM53 -137 Q149 -92 150 -1 Q146 -2 138 -2 Q112 -2 95 13 Q76 30 76 58 Q76 85 95 101 Q113 117 139 117 Q212 117 212 16 Q212 -123 74 -185 L53 -137 Z" /><glyph glyph-name="" unicode="&lt;" d="M38 336 L38 403 L511 590 L511 518 L270 429 L121 372 L121 368 L511 222 L511 150 L38 336 Z" /><glyph glyph-name="" unicode="=" d="M38 517 L511 517 L511 455 L38 455 L38 517 ZM38 280 L511 280 L511 219 L38 219 L38 280 Z" /><glyph glyph-name="" unicode="&gt;" d="M38 222 L428 368 L428 372 L279 429 L38 518 L38 590 L511 403 L511 336 L38 150 L38 222 Z" /><glyph glyph-name="" unicode="?" d="M179 216 Q166 313 247 417 Q333 528 333 579 Q333 628 305 658 Q275 692 221 692 Q146 692 89 627 L42 670 Q123 760 230 760 Q314 760 364 712 Q413 664 413 584 Q413 514 325 404 Q241 299 251 216 L179 216 ZM218 -13 Q192 -13 174 5 Q156 23 156 51 Q156 80 174 99 Q192 117 218 117 Q243 117 261 99 Q279 80 279 51 Q279 23 261 5 Q243 -13 218 -13 Z" /><glyph glyph-name="" unicode="@" d="M445 -170 Q275 -170 169 -68 Q56 40 56 226 Q56 443 194 583 Q326 717 516 717 Q682 717 781 616 Q878 516 878 351 Q878 216 806 132 Q742 57 660 57 Q556 57 546 141 L544 141 Q478 64 408 64 Q350 64 314 105 Q276 148 276 221 Q276 315 333 393 Q396 477 489 477 Q548 477 579 423 L581 423 L592 468 L648 468 L605 249 Q571 114 667 114 Q724 114 769 176 Q819 244 819 348 Q819 489 740 573 Q657 661 510 661 Q353 661 239 543 Q118 419 118 229 Q118 70 213 -24 Q304 -114 451 -114 Q546 -114 633 -63 L656 -113 Q559 -170 445 -170 ZM423 122 Q475 122 530 190 L563 371 Q534 419 488 419 Q425 419 381 355 Q342 296 342 226 Q342 122 423 122 Z" /><glyph glyph-name="" unicode="a" d="M415 296 L377 415 Q349 499 301 663 L297 663 Q265 548 222 415 L184 296 L415 296 ZM436 231 L163 231 L88 0 L5 0 L255 732 L346 732 L597 0 L509 0 L436 231 Z" /><glyph glyph-name="" unicode="b" d="M102 732 L314 732 Q564 732 564 553 Q564 430 455 394 L455 390 Q607 361 607 214 Q607 110 530 53 Q457 0 330 0 L102 0 L102 732 ZM297 418 Q482 418 482 543 Q482 609 437 638 Q394 666 302 666 L185 666 L185 418 L297 418 ZM317 66 Q526 66 526 217 Q526 354 317 354 L185 354 L185 66 L317 66 Z" /><glyph glyph-name="" unicode="c" d="M374 -13 Q235 -13 149 88 Q59 192 59 366 Q59 539 150 644 Q239 745 380 745 Q498 745 579 656 L533 602 Q470 672 381 672 Q273 672 209 591 Q144 508 144 368 Q144 226 207 143 Q270 60 378 60 Q476 60 551 144 L597 92 Q508 -13 374 -13 Z" /><glyph glyph-name="" unicode="d" d="M102 732 L282 732 Q449 732 537 637 Q624 543 624 369 Q624 194 538 98 Q450 0 285 0 L102 0 L102 732 ZM275 68 Q406 68 474 148 Q539 226 539 369 Q539 664 275 664 L185 664 L185 68 L275 68 Z" /><glyph glyph-name="" unicode="e" d="M102 732 L519 732 L519 662 L185 662 L185 421 L466 421 L466 351 L185 351 L185 70 L530 70 L530 0 L102 0 L102 732 Z" /><glyph glyph-name="" unicode="f" d="M102 732 L518 732 L518 662 L185 662 L185 404 L467 404 L467 334 L185 334 L185 0 L102 0 L102 732 Z" /><glyph glyph-name="" unicode="g" d="M385 -13 Q239 -13 150 88 Q59 191 59 366 Q59 540 153 644 Q244 745 391 745 Q513 745 600 656 L554 602 Q488 672 393 672 Q279 672 212 591 Q144 509 144 368 Q144 225 209 143 Q275 60 393 60 Q484 60 532 106 L532 306 L373 306 L373 375 L609 375 L609 71 Q528 -13 385 -13 Z" /><glyph glyph-name="" unicode="h" d="M102 732 L185 732 L185 422 L538 422 L538 732 L620 732 L620 0 L538 0 L538 350 L185 350 L185 0 L102 0 L102 732 Z" /><glyph glyph-name="" unicode="i" d="M102 732 L185 732 L185 0 L102 0 L102 732 Z" /><glyph glyph-name="" unicode="j" d="M234 -13 Q101 -13 37 101 L97 143 Q143 60 227 60 Q348 60 348 219 L348 732 L431 732 L431 211 Q431 111 385 53 Q334 -13 234 -13 Z" /><glyph glyph-name="" unicode="k" d="M102 732 L185 732 L185 355 L187 355 L504 732 L599 732 L369 455 L633 0 L540 0 L316 390 L185 236 L185 0 L102 0 L102 732 Z" /><glyph glyph-name="" unicode="l" d="M102 732 L185 732 L185 70 L508 70 L508 0 L102 0 L102 732 Z" /><glyph glyph-name="" unicode="m" d="M102 732 L204 732 L348 332 L401 176 L406 176 L457 332 L600 732 L702 732 L702 0 L625 0 L625 423 Q625 475 635 635 L631 635 L573 469 L430 75 L373 75 L229 469 L171 635 L167 635 Q177 475 177 423 L177 0 L102 0 L102 732 Z" /><glyph glyph-name="" unicode="n" d="M102 732 L187 732 L464 258 L543 108 L548 108 Q537 269 537 336 L537 732 L616 732 L616 0 L530 0 L255 474 L175 624 L170 624 Q180 442 180 401 L180 0 L102 0 L102 732 Z" /><glyph glyph-name="" unicode="o" d="M368 -13 Q231 -13 146 90 Q59 195 59 369 Q59 541 146 644 Q230 745 368 745 Q506 745 591 644 Q678 542 678 369 Q678 195 591 90 Q506 -13 368 -13 ZM368 60 Q470 60 532 144 Q593 228 593 369 Q593 509 532 591 Q471 672 368 672 Q266 672 205 591 Q144 508 144 369 Q144 228 205 144 Q267 60 368 60 Z" /><glyph glyph-name="" unicode="p" d="M102 732 L305 732 Q577 732 577 520 Q577 409 503 351 Q434 296 309 296 L185 296 L185 0 L102 0 L102 732 ZM297 364 Q495 364 495 520 Q495 600 444 634 Q397 665 293 665 L185 665 L185 364 L297 364 Z" /><glyph glyph-name="" unicode="q" d="M144 369 Q144 226 205 141 Q266 56 368 56 Q470 56 532 141 Q593 226 593 369 Q593 509 532 591 Q471 672 368 672 Q266 672 205 591 Q144 508 144 369 ZM691 -166 Q652 -181 590 -181 Q396 -181 327 -10 Q206 6 133 106 Q59 209 59 369 Q59 541 146 644 Q230 745 368 745 Q506 745 591 644 Q678 542 678 369 Q678 211 606 109 Q535 9 416 -9 Q466 -111 599 -111 Q637 -111 675 -101 L691 -166 Z" /><glyph glyph-name="" unicode="r" d="M185 384 L313 384 Q496 384 496 529 Q496 665 313 665 L185 665 L185 384 ZM505 0 L322 316 L185 316 L185 0 L102 0 L102 732 L326 732 Q579 732 579 529 Q579 362 409 324 L598 0 L505 0 Z" /><glyph glyph-name="" unicode="s" d="M302 -13 Q150 -13 48 96 L98 153 Q184 60 303 60 Q377 60 421 95 Q464 129 464 186 Q464 239 428 272 Q405 292 339 321 L233 368 Q84 432 84 554 Q84 637 148 691 Q212 745 310 745 Q438 745 523 655 L479 602 Q406 672 310 672 Q246 672 207 642 Q168 611 168 560 Q168 510 208 477 Q231 458 290 433 L396 388 Q548 321 548 192 Q548 104 482 46 Q413 -13 302 -13 Z" /><glyph glyph-name="" unicode="t" d="M255 662 L32 662 L32 732 L563 732 L563 662 L339 662 L339 0 L255 0 L255 662 Z" /><glyph glyph-name="" unicode="u" d="M358 -13 Q99 -13 99 297 L99 732 L182 732 L182 296 Q182 60 358 60 Q538 60 538 296 L538 732 L617 732 L617 297 Q617 -13 358 -13 Z" /><glyph glyph-name="" unicode="v" d="M2 732 L89 732 L212 328 Q287 78 284 86 L288 86 Q304 134 325 207 Q350 294 361 328 L482 732 L566 732 L332 0 L237 0 L2 732 Z" /><glyph glyph-name="" unicode="w" d="M27 732 L112 732 L193 325 Q216 208 238 88 L242 88 Q262 181 295 325 L399 732 L476 732 L581 325 Q599 248 635 88 L640 88 Q666 237 683 325 L763 732 L843 732 L689 0 L591 0 L474 456 L438 622 L433 622 Q427 590 415 539 L396 456 L282 0 L185 0 L27 732 Z" /><glyph glyph-name="" unicode="x" d="M232 378 L31 732 L123 732 L227 538 L285 433 L290 433 Q326 509 342 538 L446 732 L532 732 L331 374 L546 0 L455 0 L279 322 L275 322 Q246 263 215 204 L104 0 L17 0 L232 378 Z" /><glyph glyph-name="" unicode="y" d="M220 287 L0 732 L88 732 L260 360 L264 360 Q323 485 338 520 L437 732 L522 732 L302 287 L302 0 L220 0 L220 287 Z" /><glyph glyph-name="" unicode="[" d="M106 789 L299 789 L299 742 L168 742 L168 -122 L299 -122 L299 -169 L106 -169 L106 789 Z" /><glyph glyph-name="" unicode="\" d="M13 791 L73 791 L381 -178 L321 -178 L13 791 Z" /><glyph glyph-name="" unicode="]" d="M32 -122 L164 -122 L164 742 L32 742 L32 789 L225 789 L225 -169 L32 -169 L32 -122 Z" /><glyph glyph-name="" unicode="^" d="M238 747 L311 747 L480 318 L408 318 L277 670 L272 670 L140 318 L69 318 L238 747 Z" /><glyph glyph-name="" unicode="_" d="M13 -81 L544 -81 L544 -138 L13 -138 L13 -81 Z" /><glyph glyph-name="" unicode="`" d="M149 809 L208 863 L363 680 L321 639 L149 809 Z" /><glyph glyph-name="" unicode="a" d="M217 -13 Q148 -13 105 26 Q60 68 60 139 Q60 227 141 275 Q219 321 395 341 Q397 486 280 486 Q201 486 116 426 L83 483 Q191 554 293 554 Q476 554 476 335 L476 0 L409 0 L402 66 L399 66 Q306 -13 217 -13 ZM239 53 Q311 53 395 128 L395 286 Q256 270 195 235 Q139 201 139 144 Q139 53 239 53 Z" /><glyph glyph-name="" unicode="b" d="M326 -13 Q245 -13 170 56 L168 56 L159 0 L95 0 L95 796 L176 796 L176 575 L172 476 Q265 554 346 554 Q450 554 507 479 Q562 406 562 279 Q562 145 491 64 Q424 -13 326 -13 ZM314 56 Q386 56 431 116 Q477 177 477 278 Q477 485 327 485 Q259 485 176 407 L176 115 Q242 56 314 56 Z" /><glyph glyph-name="" unicode="c" d="M304 -13 Q194 -13 125 61 Q53 139 53 269 Q53 400 130 479 Q202 554 310 554 Q397 554 468 489 L425 435 Q372 485 313 485 Q237 485 187 425 Q137 365 137 269 Q137 173 185 114 Q233 55 311 55 Q380 55 442 110 L478 56 Q401 -13 304 -13 Z" /><glyph glyph-name="" unicode="d" d="M277 -13 Q174 -13 115 61 Q54 135 54 269 Q54 396 125 477 Q192 554 289 554 Q366 554 444 490 L440 584 L440 796 L521 796 L521 0 L454 0 L446 65 L444 65 Q366 -13 277 -13 ZM294 56 Q368 56 440 133 L440 425 Q372 485 302 485 Q232 485 186 425 Q139 364 139 270 Q139 170 179 113 Q220 56 294 56 Z" /><glyph glyph-name="" unicode="e" d="M309 -13 Q199 -13 128 62 Q53 140 53 269 Q53 396 127 478 Q197 554 294 554 Q395 554 451 486 Q507 419 507 301 Q507 269 503 252 L134 252 Q138 162 188 107 Q238 52 319 52 Q391 52 456 96 L486 42 Q400 -13 309 -13 ZM435 311 Q435 488 295 488 Q233 488 188 442 Q141 393 133 311 L435 311 Z" /><glyph glyph-name="" unicode="f" d="M329 728 Q298 743 267 743 Q189 743 189 633 L189 540 L305 540 L305 473 L189 473 L189 0 L107 0 L107 473 L33 473 L33 535 L107 540 L107 634 Q107 809 260 809 Q306 809 347 791 L329 728 Z" /><glyph glyph-name="" unicode="g" d="M275 -251 Q174 -251 114 -213 Q52 -174 52 -105 Q52 -34 132 19 L132 23 Q83 53 83 112 Q83 168 143 212 L143 216 Q73 272 73 361 Q73 447 132 501 Q189 554 273 554 Q310 554 348 540 L535 540 L535 477 L421 477 Q468 432 468 360 Q468 275 411 222 Q356 171 273 171 Q228 171 190 191 Q154 160 154 123 Q154 62 250 62 L358 62 Q544 62 544 -66 Q544 -142 471 -195 Q394 -251 275 -251 ZM273 227 Q323 227 358 264 Q394 302 394 361 Q394 421 358 458 Q324 493 273 493 Q221 493 187 458 Q152 422 152 361 Q152 302 188 264 Q223 227 273 227 ZM286 -194 Q364 -194 416 -158 Q464 -124 464 -78 Q464 -7 351 -7 L252 -7 Q221 -7 183 2 Q124 -40 124 -95 Q124 -140 167 -167 Q210 -194 286 -194 Z" /><glyph glyph-name="" unicode="h" d="M95 796 L176 796 L176 575 L173 462 Q269 554 354 554 Q519 554 519 343 L519 0 L437 0 L437 333 Q437 483 330 483 Q261 483 176 395 L176 0 L95 0 L95 796 Z" /><glyph glyph-name="" unicode="i" d="M95 540 L176 540 L176 0 L95 0 L95 540 ZM136 656 Q110 656 94 672 Q77 687 77 711 Q77 767 136 767 Q161 767 178 752 Q195 736 195 711 Q195 687 178 672 Q160 656 136 656 Z" /><glyph glyph-name="" unicode="j" d="M35 -245 Q-10 -245 -42 -231 L-26 -169 Q9 -179 27 -179 Q66 -179 82 -149 Q95 -125 95 -70 L95 540 L176 540 L176 -71 Q176 -245 35 -245 ZM136 656 Q111 656 95 672 Q78 687 78 711 Q78 767 136 767 Q195 767 195 711 Q195 687 178 672 Q161 656 136 656 Z" /><glyph glyph-name="" unicode="k" d="M95 796 L174 796 L174 245 L177 245 L417 540 L507 540 L327 324 L532 0 L443 0 L280 267 L174 143 L174 0 L95 0 L95 796 Z" /><glyph glyph-name="" unicode="l" d="M183 -13 Q95 -13 95 99 L95 796 L176 796 L176 93 Q176 55 201 55 Q210 55 220 57 L232 -6 Q209 -13 183 -13 Z" /><glyph glyph-name="" unicode="m" d="M95 540 L161 540 L169 460 L172 460 Q257 554 340 554 Q455 554 489 449 Q587 554 669 554 Q833 554 833 343 L833 0 L751 0 L751 333 Q751 483 646 483 Q582 483 504 395 L504 0 L423 0 L423 333 Q423 483 317 483 Q252 483 176 395 L176 0 L95 0 L95 540 Z" /><glyph glyph-name="" unicode="n" d="M95 540 L161 540 L169 461 L172 461 Q267 554 354 554 Q519 554 519 343 L519 0 L437 0 L437 333 Q437 483 330 483 Q261 483 176 395 L176 0 L95 0 L95 540 Z" /><glyph glyph-name="" unicode="o" d="M301 -13 Q198 -13 128 61 Q53 140 53 269 Q53 400 128 479 Q197 554 301 554 Q405 554 475 479 Q550 400 550 269 Q550 140 475 61 Q405 -13 301 -13 ZM301 55 Q374 55 420 114 Q466 173 466 269 Q466 365 420 425 Q374 485 301 485 Q228 485 183 425 Q137 366 137 269 Q137 173 183 114 Q228 55 301 55 Z" /><glyph glyph-name="" unicode="p" d="M95 540 L161 540 L169 477 L172 477 Q268 554 346 554 Q450 554 507 479 Q562 406 562 279 Q562 145 491 64 Q424 -13 326 -13 Q254 -13 174 50 L176 -45 L176 -232 L95 -232 L95 540 ZM314 56 Q386 56 431 116 Q477 177 477 278 Q477 485 327 485 Q260 485 176 407 L176 115 Q244 56 314 56 Z" /><glyph glyph-name="" unicode="q" d="M440 -36 L444 65 Q364 -13 277 -13 Q174 -13 115 61 Q54 135 54 269 Q54 396 125 477 Q192 554 289 554 Q369 554 445 489 L448 489 L456 540 L521 540 L521 -232 L440 -232 L440 -36 ZM294 56 Q368 56 440 133 L440 425 Q372 485 302 485 Q232 485 186 425 Q139 364 139 270 Q139 170 179 113 Q220 56 294 56 Z" /><glyph glyph-name="" unicode="r" d="M95 540 L161 540 L169 441 L172 441 Q233 554 325 554 Q358 554 382 542 L366 471 Q339 480 315 480 Q226 480 176 352 L176 0 L95 0 L95 540 Z" /><glyph glyph-name="" unicode="s" d="M233 -13 Q122 -13 32 61 L73 116 Q151 51 236 51 Q290 51 320 77 Q348 102 348 141 Q348 202 222 247 Q146 275 112 301 Q59 342 59 403 Q59 468 107 510 Q157 554 242 554 Q331 554 406 494 L367 441 Q301 489 242 489 Q191 489 163 465 Q137 442 137 407 Q137 371 175 347 Q197 332 259 310 Q343 277 372 255 Q426 213 426 145 Q426 77 376 34 Q323 -13 233 -13 Z" /><glyph glyph-name="" unicode="t" d="M259 -13 Q110 -13 110 163 L110 473 L28 473 L28 535 L113 540 L122 693 L191 693 L191 540 L340 540 L340 473 L191 473 L191 160 Q191 54 276 54 Q303 54 339 68 L355 7 Q295 -13 259 -13 Z" /><glyph glyph-name="" unicode="u" d="M251 -13 Q87 -13 87 197 L87 540 L168 540 L168 207 Q168 129 193 94 Q218 58 275 58 Q349 58 427 153 L427 540 L508 540 L508 0 L441 0 L434 86 L431 86 Q345 -13 251 -13 Z" /><glyph glyph-name="" unicode="v" d="M13 540 L98 540 L205 226 Q224 162 256 67 L260 67 L311 226 L418 540 L498 540 L305 0 L210 0 L13 540 Z" /><glyph glyph-name="" unicode="w" d="M27 540 L110 540 L195 219 L228 70 L232 70 L251 144 Q262 190 270 219 L357 540 L439 540 L527 219 L565 70 L569 70 L604 219 L687 540 L765 540 L617 0 L518 0 L436 301 Q430 323 398 457 L393 457 Q370 350 354 300 L275 0 L179 0 L27 540 Z" /><glyph glyph-name="" unicode="x" d="M194 282 L29 540 L117 540 L193 417 Q210 387 248 327 L252 327 L373 540 L457 540 L293 274 L471 0 L382 0 L299 131 Q273 177 240 229 L235 229 L101 0 L15 0 L194 282 Z" /><glyph glyph-name="" unicode="y" d="M96 -236 Q61 -236 34 -225 L51 -159 Q73 -167 93 -167 Q177 -167 219 -45 L231 -3 L13 540 L98 540 L213 231 L267 79 L272 79 Q277 94 295 156 Q309 204 318 231 L419 540 L499 540 L293 -50 Q228 -236 96 -236 Z" /><glyph glyph-name="" unicode="z" d="M34 44 L326 473 L66 473 L66 540 L430 540 L430 497 L137 67 L439 67 L439 0 L34 0 L34 44 Z" /><glyph glyph-name="" unicode="{" d="M253 -169 Q185 -169 156 -139 Q124 -106 124 -23 Q124 19 129 89 Q134 158 134 195 Q134 283 38 284 L38 336 Q134 337 134 422 Q134 460 129 531 Q124 601 124 642 Q124 725 156 759 Q185 789 253 789 L299 789 L299 742 L269 742 Q224 742 207 717 Q191 694 191 637 Q191 604 194 538 Q197 472 197 432 Q197 330 133 312 L133 308 Q197 289 197 187 Q197 148 194 82 Q191 16 191 -17 Q191 -74 207 -97 Q224 -122 269 -122 L299 -122 L299 -169 L253 -169 Z" /><glyph glyph-name="" unicode="|" d="M103 836 L161 836 L161 -279 L103 -279 L103 836 Z" /><glyph glyph-name="" unicode="}" d="M32 -122 L62 -122 Q107 -122 124 -97 Q140 -74 140 -17 Q140 16 137 82 Q134 148 134 187 Q134 289 198 308 L198 312 Q134 330 134 432 Q134 472 137 538 Q140 604 140 637 Q140 694 124 717 Q107 742 62 742 L32 742 L32 789 L78 789 Q146 789 175 759 Q207 725 207 642 Q207 601 202 531 Q197 460 197 422 Q197 337 293 336 L293 284 Q197 283 197 195 Q197 158 202 89 Q207 19 207 -23 Q207 -106 175 -139 Q146 -169 78 -169 L32 -169 L32 -122 Z" /><glyph glyph-name="" unicode="~" d="M373 289 Q326 289 264 337 Q202 385 174 385 Q125 385 88 316 L41 348 Q97 447 176 447 Q223 447 285 399 Q347 351 375 351 Q425 351 461 419 L507 386 Q452 289 373 289 Z" /><glyph glyph-name="" unicode="&#x2500;" d="M0 400 L1000 400 L1000 360 L0 360 L0 400 Z" /><glyph glyph-name="" unicode="&#x2514;" d="M480 360 L480 880 L520 880 L520 400 L1000 400 L1000 360 L480 360 Z" /><glyph glyph-name="" unicode="&#x251c;" d="M520 360 L520 -120 L480 -120 L480 880 L520 880 L520 400 L1000 400 L1000 360 L520 360 Z" /><glyph glyph-name="" unicode="&#x3001;" d="M276 -53 Q174 73 54 169 L112 221 Q223 132 337 -2 L276 -53 Z" /><glyph glyph-name="" unicode="&#x3002;" d="M194 243 Q257 243 301 199 Q345 155 345 93 Q345 30 301 -14 Q257 -58 194 -58 Q132 -58 88 -14 Q44 30 44 93 Q44 155 88 199 Q132 243 194 243 ZM194 -11 Q238 -11 268 19 Q298 50 298 93 Q298 135 268 166 Q237 196 194 196 Q152 196 122 166 Q91 135 91 93 Q91 50 122 19 Q152 -11 194 -11 Z" /><glyph glyph-name="" unicode="&#x301c;&#xff5e;" d="M698 249 Q583 249 475 354 Q387 439 301 439 Q178 439 107 304 L42 338 Q138 511 302 511 Q417 511 525 406 Q613 321 699 321 Q822 321 893 456 L958 422 Q862 249 698 249 Z" /><glyph glyph-name="" unicode="&#x2f00;&#x4e00;" d="M956 426 L956 354 L48 354 L48 426 L956 426 Z" /><glyph glyph-name="" unicode="&#x4e07;" d="M410 694 Q406 565 397 483 L842 483 Q842 459 841 450 Q817 16 767 -36 Q740 -66 685 -69 Q629 -74 510 -65 Q508 -31 487 0 Q562 -8 661 -8 Q696 -8 708 4 Q750 42 771 419 L389 419 Q336 60 87 -78 Q71 -50 39 -28 Q225 70 293 292 Q335 429 341 694 L66 694 L66 759 L935 759 L935 694 L410 694 Z" /><glyph glyph-name="" unicode="&#x4e09;" d="M876 739 L876 672 L126 672 L126 739 L876 739 ZM799 413 L799 346 L189 346 L189 413 L799 413 ZM931 66 L931 -1 L69 -1 L69 66 L931 66 Z" /><glyph glyph-name="" unicode="&#x4e0a;" d="M946 38 L946 -28 L55 -28 L55 38 L432 38 L432 819 L501 819 L501 510 L878 510 L878 443 L501 443 L501 38 L946 38 Z" /><glyph glyph-name="" unicode="&#x4e0b;" d="M516 696 L516 515 L527 528 Q753 419 886 319 L840 259 Q730 348 516 461 L516 -74 L446 -74 L446 696 L59 696 L59 762 L942 762 L942 696 L516 696 Z" /><glyph glyph-name="" unicode="&#x4e0d;&#xf967;" d="M608 697 Q584 656 535 584 L535 -74 L464 -74 L464 495 Q300 305 95 196 Q75 225 49 253 Q354 405 524 697 L73 697 L73 764 L928 764 L928 697 L608 697 ZM610 525 Q846 374 954 262 L902 212 Q783 338 561 482 L610 525 Z" /><glyph glyph-name="" unicode="&#x4e0e;" d="M681 170 L62 170 L62 234 L681 234 L681 170 ZM881 411 Q842 30 779 -31 Q750 -60 690 -64 Q631 -66 514 -59 Q510 -22 489 7 Q578 -1 671 -1 Q710 -1 723 11 Q776 54 811 381 L223 381 L168 382 Q220 564 264 813 L330 806 Q320 745 309 695 L871 695 L871 631 L295 631 Q268 506 253 444 L884 444 L881 411 Z" /><glyph glyph-name="" unicode="&#x4e14;" d="M282 33 L727 33 L727 217 L282 217 L282 33 ZM282 712 L282 531 L727 531 L727 712 L282 712 ZM727 468 L282 468 L282 281 L727 281 L727 468 ZM944 33 L944 -32 L58 -32 L58 33 L216 33 L216 776 L795 776 L795 33 L944 33 Z" /><glyph glyph-name="" unicode="&#x4e1a;" d="M916 572 Q833 377 742 230 L688 260 Q794 433 856 601 L916 572 ZM226 239 Q188 376 88 585 L149 604 Q251 398 293 263 L226 239 ZM938 43 L938 -23 L65 -23 L65 43 L347 43 L347 823 L414 823 L414 43 L588 43 L588 822 L655 822 L655 43 L938 43 Z" /><glyph glyph-name="" unicode="&#x4e1c;" d="M329 244 Q256 84 133 -32 Q90 4 77 12 Q196 110 264 262 L329 244 ZM578 344 L578 20 Q578 -38 540 -54 Q505 -67 389 -67 Q384 -35 364 2 Q476 0 491 1 Q511 2 511 21 L511 344 L288 344 Q199 344 182 330 Q170 374 157 399 Q182 406 231 478 Q272 534 329 639 L82 639 L82 703 L361 703 Q390 758 424 841 L492 810 Q472 763 441 703 L911 703 L911 639 L408 639 Q344 521 265 409 L511 409 L511 559 L578 559 L578 409 L870 409 L870 344 L578 344 ZM720 264 Q868 122 934 13 L876 -21 Q806 99 666 235 L720 264 Z" /><glyph glyph-name="" unicode="&#x4e24;" d="M592 557 L592 701 L402 701 L402 557 L592 557 ZM657 557 L896 557 L896 13 Q896 -50 853 -65 Q819 -76 669 -76 Q664 -43 646 -9 Q745 -13 806 -10 Q830 -10 830 14 L830 494 L655 494 Q653 440 645 393 Q766 251 811 167 L771 117 Q727 201 630 320 Q593 172 491 69 Q471 99 444 116 Q578 243 591 494 L400 494 Q399 453 390 390 Q469 294 496 241 L456 188 Q431 239 374 316 Q334 167 236 69 Q220 96 190 116 Q323 245 336 494 L172 494 L172 -77 L106 -77 L106 557 L337 557 L337 701 L63 701 L63 765 L938 765 L938 701 L657 701 L657 557 Z" /><glyph glyph-name="" unicode="&#x4e25;" d="M427 452 L570 452 L570 719 L427 719 L427 452 ZM933 392 L184 392 L184 285 Q184 47 85 -75 Q63 -49 34 -29 Q119 76 119 285 L119 452 L362 452 L362 719 L109 719 L109 778 L902 778 L902 719 L636 719 L636 452 L933 452 L933 392 ZM240 476 Q219 569 151 663 L207 683 Q276 589 299 498 L240 476 ZM684 495 Q744 583 785 687 L853 664 Q784 538 737 474 L684 495 Z" /><glyph glyph-name="" unicode="&#x4e2a;" d="M466 547 L534 547 L534 -75 L466 -75 L466 547 ZM566 808 Q558 793 540 765 Q698 568 964 436 Q933 410 916 377 Q665 513 501 713 Q335 497 90 379 Q64 418 41 437 Q353 577 508 835 L566 808 Z" /><glyph glyph-name="" unicode="&#x4e2d;" d="M829 318 L829 592 L532 592 L532 318 L829 318 ZM463 318 L463 592 L167 592 L167 318 L463 318 ZM897 657 L897 194 L829 194 L829 252 L532 252 L532 -74 L463 -74 L463 252 L167 252 L167 189 L101 189 L101 657 L463 657 L463 836 L532 836 L532 657 L897 657 Z" /><glyph glyph-name="" unicode="&#x4e32;&#xf905;" d="M824 152 L824 305 L532 305 L532 152 L824 152 ZM463 152 L463 305 L178 305 L178 152 L463 152 ZM463 513 L463 659 L216 659 L216 513 L463 513 ZM532 659 L532 513 L780 513 L780 659 L532 659 ZM895 366 L895 51 L824 51 L824 91 L532 91 L532 -75 L463 -75 L463 91 L178 91 L178 49 L110 49 L110 366 L463 366 L463 453 L149 453 L149 719 L463 719 L463 835 L532 835 L532 719 L850 719 L850 453 L532 453 L532 366 L895 366 Z" /><glyph glyph-name="" unicode="&#x4e3a;" d="M276 632 Q242 700 169 782 L226 808 Q299 729 336 661 L276 632 ZM896 595 L895 560 Q874 30 825 -28 Q798 -61 747 -65 Q702 -68 589 -62 Q585 -23 566 7 Q633 0 721 0 Q752 0 764 15 Q806 56 825 529 L474 529 Q429 150 110 -62 Q90 -35 58 -14 Q360 183 406 529 L87 529 L87 595 L413 595 Q417 654 417 719 L417 834 L484 834 L484 718 Q484 652 480 595 L896 595 ZM641 176 Q599 261 503 374 L556 401 Q656 292 699 209 L641 176 Z" /><glyph glyph-name="" unicode="&#x4e3b;" d="M945 23 L945 -42 L60 -42 L60 23 L465 23 L465 278 L151 278 L151 342 L465 342 L465 570 L107 570 L107 634 L555 634 Q494 708 380 794 L434 831 Q555 744 616 668 L569 634 L895 634 L895 570 L535 570 L535 342 L854 342 L854 278 L535 278 L535 23 L945 23 Z" /><glyph glyph-name="" unicode="&#x4e3e;" d="M492 659 Q465 733 401 817 L457 841 Q523 756 551 686 L492 659 ZM533 187 L913 187 L913 124 L533 124 L533 -77 L467 -77 L467 124 L96 124 L96 187 L467 187 L467 317 L233 317 L233 379 L467 379 L467 504 L533 504 L533 379 L776 379 L776 317 L533 317 L533 187 ZM701 576 Q803 429 970 360 Q944 339 925 307 Q742 393 631 576 L374 576 Q271 386 79 299 Q59 331 35 350 Q210 420 306 576 L59 576 L59 638 L267 638 Q235 704 163 785 L219 812 Q292 738 328 665 L277 638 L639 638 Q718 730 766 823 L834 798 Q773 706 712 638 L943 638 L943 576 L701 576 Z" /><glyph glyph-name="" unicode="&#x4e48;" d="M515 798 Q350 541 117 361 Q95 388 67 409 Q310 587 447 823 L515 798 ZM878 -65 Q860 -26 818 43 Q161 -12 134 -22 Q127 4 106 46 Q142 55 239 143 Q451 326 662 622 L729 590 Q495 275 243 60 L777 105 Q704 213 634 296 L692 326 Q863 126 941 -30 L878 -65 Z" /><glyph glyph-name="" unicode="&#x4e49;" d="M517 575 Q494 660 419 816 L476 839 Q547 699 577 601 L517 575 ZM860 740 Q744 414 550 219 Q731 56 957 -16 Q936 -35 911 -75 Q679 3 500 171 Q328 15 77 -74 Q66 -46 41 -18 Q285 65 454 217 Q265 415 151 705 L211 723 Q317 452 503 264 Q691 454 793 762 L860 740 Z" /><glyph glyph-name="" unicode="&#x4e4b;" d="M525 642 Q487 719 420 809 L478 839 Q555 739 585 676 L525 642 ZM860 606 Q652 298 307 89 L323 78 Q333 72 339 67 Q413 20 595 20 Q776 20 957 37 Q940 -5 938 -34 Q773 -45 593 -45 Q407 -45 324 9 L231 67 Q194 67 103 -56 L53 4 Q169 129 232 129 Q237 129 247 127 Q550 302 747 571 L105 571 L105 636 L796 636 L810 640 L860 606 Z" /><glyph glyph-name="" unicode="&#x4e4e;" d="M944 298 L543 298 L543 17 Q543 -50 492 -66 Q452 -78 286 -78 Q276 -41 257 -9 Q369 -14 443 -11 Q473 -10 473 17 L473 298 L57 298 L57 365 L473 365 L473 704 Q321 689 139 684 Q138 708 123 744 Q608 762 817 819 L852 760 Q738 730 543 710 L543 365 L944 365 L944 298 ZM228 649 Q301 526 328 430 L266 406 Q245 499 171 629 L228 649 ZM673 430 Q744 547 785 666 L854 642 Q770 475 727 408 L673 430 Z" /><glyph glyph-name="" unicode="&#x4e50;" d="M305 256 Q221 112 97 -12 Q93 -8 43 31 Q164 140 242 277 L305 256 ZM553 368 L553 13 Q553 -47 513 -62 Q479 -75 346 -75 Q338 -39 322 -8 Q355 -9 462 -9 Q486 -8 486 13 L486 368 L247 368 Q145 368 131 355 Q122 390 108 419 Q124 424 139 482 Q174 626 175 757 Q634 769 830 823 L870 765 Q658 711 241 699 Q230 578 195 435 L486 435 L486 640 L553 640 L553 435 L921 435 L921 368 L553 368 ZM750 276 Q896 120 956 23 L896 -9 Q829 102 694 250 L750 276 Z" /><glyph glyph-name="" unicode="&#x4e5f;" d="M764 6 Q833 6 855 41 Q876 74 885 186 Q914 169 948 159 Q936 33 904 -8 Q866 -55 763 -55 L406 -55 Q297 -55 259 -25 Q220 6 220 96 L220 417 L53 366 L35 425 L220 481 L220 768 L284 768 L284 501 L501 568 L501 834 L566 834 L566 587 L805 661 L812 667 L826 676 L873 656 L869 642 Q864 350 837 276 Q813 211 756 202 Q704 195 640 199 Q635 239 623 261 Q659 258 725 258 Q763 258 779 305 Q801 368 804 597 L566 524 L566 135 L501 135 L501 504 L284 436 L284 94 Q284 41 307 24 Q330 6 403 6 L764 6 Z" /><glyph glyph-name="" unicode="&#x4e60;" d="M718 267 Q445 171 131 64 L107 131 Q324 197 705 329 L718 267 ZM279 608 Q464 485 547 406 L501 355 Q412 443 235 565 L279 608 ZM882 721 Q873 35 831 -23 Q803 -62 751 -66 Q699 -72 595 -64 Q593 -31 573 -1 Q642 -6 728 -6 Q756 -6 768 10 Q805 51 815 696 L122 696 L122 760 L882 760 L882 721 Z" /><glyph glyph-name="" unicode="&#x4e66;" d="M904 617 Q844 677 721 759 L761 802 Q878 728 946 667 L904 617 ZM492 391 L730 391 L730 595 L492 595 L492 391 ZM940 391 L938 360 Q916 91 878 54 Q853 28 805 25 Q765 22 654 28 Q650 64 631 92 Q695 85 781 85 Q813 85 823 95 Q851 118 868 328 L492 328 L492 -75 L424 -75 L424 328 L63 328 L63 391 L424 391 L424 595 L131 595 L131 659 L424 659 L424 831 L492 831 L492 659 L796 659 L796 391 L940 391 Z" /><glyph glyph-name="" unicode="&#x4e86;" d="M887 722 Q748 569 537 455 L537 14 Q537 -49 488 -64 Q447 -76 284 -76 Q278 -48 256 -9 Q371 -13 441 -10 Q468 -9 468 14 L468 488 Q623 564 756 690 L100 690 L100 755 L820 755 L835 759 L887 722 Z" /><glyph glyph-name="" unicode="&#x4e8b;" d="M780 209 L531 209 L531 129 L780 129 L780 209 ZM531 263 L780 263 L780 338 L531 338 L531 263 ZM464 511 L464 587 L239 587 L239 511 L464 511 ZM531 587 L531 511 L764 511 L764 587 L531 587 ZM950 209 L847 209 L847 32 L780 32 L780 77 L531 77 L531 3 Q531 -54 489 -68 Q455 -79 323 -79 Q319 -58 299 -22 Q390 -25 439 -22 Q464 -21 464 3 L464 77 L137 77 L137 129 L464 129 L464 209 L52 209 L52 263 L464 263 L464 338 L146 338 L146 389 L464 389 L464 463 L175 463 L175 635 L464 635 L464 697 L70 697 L70 753 L464 753 L464 835 L531 835 L531 753 L932 753 L932 697 L531 697 L531 635 L832 635 L832 463 L531 463 L531 389 L847 389 L847 263 L950 263 L950 209 Z" /><glyph glyph-name="" unicode="&#x2f06;&#x4e8c;" d="M857 692 L857 621 L144 621 L144 692 L857 692 ZM941 100 L941 27 L60 27 L60 100 L941 100 Z" /><glyph glyph-name="" unicode="&#x4e8e;" d="M943 370 L543 370 L543 25 Q543 -43 493 -58 Q452 -72 292 -70 Q284 -39 263 -1 Q377 -5 445 -2 Q474 -1 474 25 L474 370 L58 370 L58 436 L474 436 L474 697 L127 697 L127 763 L873 763 L873 697 L543 697 L543 436 L943 436 L943 370 Z" /><glyph glyph-name="" unicode="&#x4e92;" d="M666 257 Q689 442 693 482 L334 482 Q313 371 289 257 L666 257 ZM947 27 L947 -38 L57 -38 L57 27 L633 27 Q649 131 658 194 L202 194 Q257 410 306 711 L90 711 L90 775 L917 775 L917 711 L377 711 Q372 682 346 545 L706 545 L718 548 L767 542 Q746 321 701 27 L947 27 Z" /><glyph glyph-name="" unicode="&#x4e94;" d="M438 383 Q410 210 378 46 L669 46 Q690 240 701 383 L438 383 ZM943 46 L943 -20 L60 -20 L60 46 L306 46 Q336 183 368 383 L179 383 L179 448 L379 448 Q402 597 412 672 L124 672 L124 738 L870 738 L870 672 L483 672 Q473 602 449 448 L713 448 L724 451 L774 446 Q764 266 737 46 L943 46 Z" /><glyph glyph-name="" unicode="&#x4e9a;" d="M408 49 L577 49 L577 709 L408 709 L408 49 ZM950 49 L950 -15 L50 -15 L50 49 L338 49 L338 709 L75 709 L75 774 L928 774 L928 709 L647 709 L647 49 L950 49 ZM146 560 Q246 361 287 233 L225 208 Q185 340 88 540 L146 560 ZM684 234 Q783 395 841 559 L904 536 Q829 354 743 212 L684 234 Z" /><glyph glyph-name="" unicode="&#x4e9b;" d="M667 336 Q599 336 575 357 Q551 379 551 440 L551 834 L618 834 L618 632 Q775 691 847 737 L901 686 Q789 627 618 573 L618 440 Q618 414 628 407 Q638 399 673 399 L837 399 Q868 399 877 423 Q886 446 890 531 Q913 514 951 504 Q944 404 923 371 Q901 336 842 336 L667 336 ZM172 234 L841 234 L841 170 L172 170 L172 234 ZM503 366 Q320 340 55 306 L47 371 L114 378 L114 725 L176 725 L176 386 L271 397 L271 834 L336 834 L336 660 L496 660 L496 599 L336 599 L336 406 L502 426 L503 366 ZM61 16 L940 16 L940 -50 L61 -50 L61 16 Z" /><glyph glyph-name="" unicode="&#x4ea4;" d="M928 631 L71 631 L71 696 L490 696 Q470 750 422 822 L483 844 Q535 775 557 716 L507 696 L928 696 L928 631 ZM673 596 Q847 479 931 379 L876 336 Q796 438 622 558 L673 596 ZM387 571 Q289 445 127 340 Q103 368 76 390 Q230 478 324 596 L387 571 ZM721 409 Q661 256 553 153 Q707 33 954 -8 Q929 -34 913 -69 Q661 -21 503 109 Q352 -12 90 -79 Q75 -45 50 -18 Q307 37 455 153 Q351 254 290 403 L350 422 Q403 288 504 195 Q605 293 654 428 L721 409 Z" /><glyph glyph-name="" unicode="&#x4eae;" d="M834 -2 Q855 -2 862 18 Q869 38 871 109 Q891 94 931 83 Q926 -2 908 -31 Q890 -59 842 -59 L717 -59 Q658 -59 638 -41 Q619 -24 619 27 L619 183 L373 183 Q360 67 304 12 Q245 -47 100 -76 Q88 -43 63 -21 Q210 4 260 61 Q304 112 309 241 L688 241 L688 26 Q688 9 695 3 Q702 -2 726 -2 L834 -2 ZM84 366 L914 366 L914 207 L849 207 L849 312 L147 312 L147 206 L84 206 L84 366 ZM733 573 L271 573 L271 482 L733 482 L733 573 ZM802 622 L802 433 L205 433 L205 622 L802 622 ZM933 738 L933 681 L64 681 L64 738 L486 738 Q466 787 439 826 L504 841 Q543 787 561 738 L933 738 Z" /><glyph glyph-name="" unicode="&#x2f08;&#x4eba;" d="M538 832 Q535 739 531 688 Q601 149 960 -12 Q927 -39 912 -68 Q611 74 502 499 Q414 92 101 -71 Q85 -47 49 -20 Q315 113 412 428 Q460 585 465 832 L538 832 Z" /><glyph glyph-name="" unicode="&#x4ec0;&#xf9fd;" d="M361 813 Q320 710 260 605 L260 -74 L195 -74 L195 503 Q133 414 79 360 Q63 395 41 424 Q207 585 298 832 L361 813 ZM951 424 L678 424 L678 -76 L610 -76 L610 424 L327 424 L327 489 L610 489 L610 826 L678 826 L678 489 L951 489 L951 424 Z" /><glyph glyph-name="" unicode="&#x4ec5;" d="M366 808 Q320 696 257 591 L257 -74 L191 -74 L191 493 Q129 408 71 353 Q57 385 30 418 Q202 576 301 829 L366 808 ZM466 662 Q523 405 640 237 Q777 411 830 662 L466 662 ZM905 714 Q849 394 681 184 Q801 42 965 -18 Q940 -40 921 -72 Q759 -7 639 134 Q511 -3 337 -75 Q324 -45 298 -20 Q470 44 598 187 Q470 366 403 661 L408 662 L363 662 L363 725 L851 725 L863 728 L905 714 Z" /><glyph glyph-name="" unicode="&#x4eca;" d="M800 349 L851 323 Q728 160 532 -79 L465 -47 Q599 109 732 278 L164 278 L164 345 L789 345 L800 349 ZM581 371 Q526 436 392 537 L438 577 Q577 475 630 418 L581 371 ZM560 811 L542 785 Q709 585 959 476 Q937 459 908 418 Q680 531 502 735 Q333 532 90 413 Q68 447 40 469 Q340 606 497 842 L560 811 Z" /><glyph glyph-name="" unicode="&#x4ecb;" d="M282 445 L351 445 L351 314 Q351 190 314 109 Q263 -5 127 -77 Q108 -51 74 -29 Q201 37 249 137 Q282 206 282 316 L282 445 ZM655 447 L724 447 L724 -78 L655 -78 L655 447 ZM553 804 L537 778 Q698 560 973 478 Q947 454 926 417 Q668 507 501 727 Q328 505 74 405 Q59 441 35 468 Q174 514 303 618 Q432 722 499 840 L553 804 Z" /><glyph glyph-name="" unicode="&#x4ecd;" d="M296 812 Q266 717 218 614 L218 -76 L154 -76 L154 494 Q115 424 67 367 Q52 401 30 433 Q160 587 236 830 L296 812 ZM916 475 Q916 452 915 443 Q891 12 847 -36 Q822 -64 775 -68 Q737 -72 625 -66 Q623 -30 604 -1 Q679 -8 749 -8 Q778 -8 791 5 Q829 41 849 414 L659 414 Q684 504 720 701 L512 701 Q506 434 473 276 Q422 40 298 -79 Q274 -50 247 -35 Q436 140 445 701 L323 701 L323 763 L795 763 Q759 574 736 475 L916 475 Z" /><glyph glyph-name="" unicode="&#x4ece;" d="M458 164 Q412 264 303 412 Q250 91 111 -75 Q96 -60 48 -29 Q240 177 269 811 L340 808 Q330 628 314 499 Q448 339 508 210 L458 164 ZM721 809 Q708 622 686 483 Q760 125 953 -5 Q922 -36 905 -64 Q743 60 659 346 Q594 75 435 -71 Q416 -52 372 -25 Q513 92 578 313 Q631 493 649 812 L721 809 Z" /><glyph glyph-name="" unicode="&#x4ed4;" d="M336 816 Q292 695 230 587 L230 -76 L166 -76 L166 485 Q124 422 76 371 Q58 406 38 434 Q188 591 273 835 L336 816 ZM956 339 L669 339 L669 17 Q669 -45 625 -60 Q587 -73 444 -71 Q439 -40 421 -4 Q548 -8 579 -6 Q602 -5 602 17 L602 339 L312 339 L312 404 L602 404 L602 549 Q717 610 811 702 L374 702 L374 764 L870 764 L884 768 L930 735 Q831 620 669 520 L669 404 L956 404 L956 339 Z" /><glyph glyph-name="" unicode="&#x4ed6;" d="M334 813 Q287 696 231 600 L231 -74 L166 -74 L166 499 Q116 428 60 368 Q43 405 22 431 Q182 586 273 832 L334 813 ZM816 -2 Q861 -2 876 27 Q890 53 896 144 Q922 125 958 116 Q949 10 924 -24 Q895 -63 817 -63 L549 -63 Q462 -63 431 -36 Q400 -9 400 68 L400 402 L298 363 L273 421 L400 470 L400 739 L465 739 L465 496 L621 557 L621 834 L684 834 L684 581 L851 646 L870 662 L916 644 L913 632 Q913 314 899 259 Q889 201 840 190 Q802 182 740 184 Q736 223 723 246 Q752 245 802 245 Q830 245 838 276 Q848 309 850 577 L684 513 L684 144 L621 144 L621 488 L465 427 L465 68 Q465 25 481 12 Q497 -2 550 -2 L816 -2 Z" /><glyph glyph-name="" unicode="&#x4ed7;" d="M364 809 Q317 696 257 598 L257 -74 L191 -74 L191 499 Q126 411 66 354 Q50 390 24 418 Q201 578 301 829 L364 809 ZM727 550 Q727 298 627 149 Q752 24 968 -19 Q943 -43 926 -78 Q718 -30 586 97 Q498 -6 342 -78 Q326 -49 295 -24 Q452 47 539 149 Q441 275 391 470 L451 484 Q494 314 579 203 Q660 331 660 550 L660 560 L326 560 L326 623 L660 623 L660 832 L727 832 L727 623 L955 623 L955 560 L727 560 L727 550 Z" /><glyph glyph-name="" unicode="&#x4ee3;" d="M879 615 Q821 693 713 780 L761 811 Q870 727 930 652 L879 615 ZM382 805 Q333 693 272 600 L272 -73 L205 -73 L205 505 Q140 419 65 352 Q49 386 26 415 Q215 575 320 825 L382 805 ZM644 469 Q704 16 860 3 Q900 0 917 178 Q935 160 972 144 Q944 -78 862 -75 Q645 -59 580 462 L332 430 L322 493 L572 524 Q559 661 551 821 L618 821 Q622 678 637 532 L940 569 L950 508 L644 469 Z" /><glyph glyph-name="" unicode="&#x4ee4;" d="M847 349 Q747 243 566 65 Q636 12 679 -26 L628 -80 Q517 29 312 156 L359 202 Q432 159 512 103 Q638 223 721 311 L171 311 L171 375 L787 375 L798 379 L847 349 ZM555 406 Q504 481 403 562 L451 599 Q562 510 606 448 L555 406 ZM570 806 L544 773 Q716 589 968 490 Q943 470 919 430 Q680 540 504 727 Q328 539 88 429 Q66 461 40 483 Q347 614 510 838 L570 806 Z" /><glyph glyph-name="" unicode="&#x4ee5;" d="M528 476 Q485 579 379 714 L434 743 Q539 618 588 511 L528 476 ZM475 266 Q478 245 492 204 Q178 56 145 27 Q133 57 108 82 Q165 113 165 169 L165 756 L236 756 L236 156 L475 266 ZM833 793 Q809 409 724 229 Q890 72 960 -31 L903 -74 Q836 30 694 170 Q596 9 395 -82 Q379 -54 346 -25 Q575 65 667 266 Q744 436 763 797 L833 793 Z" /><glyph glyph-name="" unicode="&#x4eec;" d="M292 813 Q264 710 216 598 L216 -75 L152 -75 L152 467 Q113 399 78 353 Q63 391 41 418 Q160 572 232 829 L292 813 ZM343 638 L408 638 L408 -76 L343 -76 L343 638 ZM437 834 Q516 726 556 643 L501 612 Q465 695 385 808 L437 834 ZM918 13 Q918 -46 878 -61 Q849 -73 721 -73 Q716 -45 698 -9 Q793 -12 829 -10 Q852 -9 852 13 L852 737 L576 737 L576 798 L918 798 L918 13 Z" /><glyph glyph-name="" unicode="&#x4ef0;" d="M307 818 Q280 730 228 616 L228 -76 L164 -76 L164 495 Q121 421 71 360 Q48 406 34 425 Q167 581 247 836 L307 818 ZM611 764 Q522 724 406 693 L406 177 L569 233 Q571 206 577 178 Q365 97 340 76 Q327 106 307 126 Q345 151 345 203 L345 729 Q491 772 563 813 L611 764 ZM919 175 Q919 122 886 106 Q855 94 748 94 Q745 120 726 158 Q800 155 837 158 Q855 158 855 176 L855 668 L681 668 L681 -75 L617 -75 L617 728 L919 728 L919 175 Z" /><glyph glyph-name="" unicode="&#x4ef6;" d="M337 813 Q293 697 237 595 L237 -74 L174 -74 L174 492 Q130 426 76 366 Q61 400 38 431 Q189 587 274 832 L337 813 ZM947 272 L673 272 L673 -76 L607 -76 L607 272 L318 272 L318 336 L607 336 L607 565 L443 565 Q411 473 369 409 Q337 431 312 443 Q395 560 435 786 L498 774 Q483 690 463 629 L607 629 L607 823 L673 823 L673 629 L904 629 L904 565 L673 565 L673 336 L947 336 L947 272 Z" /><glyph glyph-name="" unicode="&#x4ef7;" d="M337 816 Q293 698 240 600 L240 -75 L173 -75 L173 488 Q132 424 83 370 Q62 410 44 434 Q188 584 275 835 L337 816 ZM442 451 L509 451 L509 314 Q509 50 333 -83 Q317 -59 285 -37 Q442 73 442 315 L442 451 ZM726 452 L793 452 L793 -73 L726 -73 L726 452 ZM669 825 L648 780 Q768 579 965 474 Q950 463 918 423 Q746 524 616 721 Q497 526 301 408 Q288 437 260 459 Q503 600 600 837 L669 825 Z" /><glyph glyph-name="" unicode="&#x4efb;" d="M365 816 Q321 710 257 603 L257 -76 L191 -76 L191 504 Q131 423 68 361 Q46 402 25 426 Q201 585 301 836 L365 816 ZM669 344 L669 27 L940 27 L940 -37 L340 -37 L340 27 L602 27 L602 344 L302 344 L302 408 L602 408 L602 680 Q492 661 356 644 Q354 662 336 700 Q697 748 864 809 L913 754 Q836 727 669 692 L669 408 L957 408 L957 344 L669 344 Z" /><glyph glyph-name="" unicode="&#x4eff;" d="M635 665 Q625 715 589 818 L653 832 Q693 726 703 684 L635 665 ZM336 815 Q293 698 235 594 L235 -74 L171 -74 L171 489 Q129 426 78 368 Q56 408 38 433 Q186 587 272 833 L336 815 ZM569 594 Q565 492 561 441 L880 441 L880 410 Q860 10 821 -36 Q798 -63 752 -66 Q723 -69 620 -65 Q618 -31 600 -3 Q654 -8 726 -8 Q750 -9 763 4 Q795 35 810 379 L555 379 Q519 54 334 -77 Q318 -52 285 -32 Q412 55 460 236 Q492 358 499 594 L325 594 L325 659 L954 659 L954 594 L569 594 Z" /><glyph glyph-name="" unicode="&#x4f17;" d="M561 814 Q549 789 534 766 Q680 554 956 481 Q933 459 910 422 Q657 501 501 716 Q358 512 98 416 Q79 452 51 477 Q375 583 497 840 L561 814 ZM466 89 Q404 165 305 250 Q244 44 111 -69 Q89 -49 54 -27 Q241 113 283 479 L350 473 Q341 397 322 314 Q457 208 513 137 L466 89 ZM709 467 Q701 396 690 339 Q766 83 946 -9 Q927 -26 900 -67 Q749 22 666 232 Q609 33 474 -76 Q460 -62 418 -34 Q609 105 642 474 L709 467 Z" /><glyph glyph-name="" unicode="&#x4f18;" d="M833 624 Q792 688 698 776 L744 809 Q834 728 882 662 L833 624 ZM340 815 Q299 698 235 585 L235 -75 L172 -75 L172 484 Q130 421 82 369 Q63 407 43 432 Q192 588 279 833 L340 815 ZM848 14 Q871 14 878 42 Q885 70 887 167 Q911 149 946 139 Q941 27 924 -10 Q905 -48 853 -48 L733 -48 Q678 -48 658 -27 Q639 -7 639 50 L639 454 L704 454 L704 50 Q704 27 710 21 Q717 14 740 14 L848 14 ZM946 598 L946 535 L583 535 Q550 91 329 -70 Q310 -42 280 -23 Q490 124 517 535 L292 535 L292 598 L521 598 Q525 698 525 824 L591 824 Q591 692 586 598 L946 598 Z" /><glyph glyph-name="" unicode="&#x4f1a;" d="M92 334 L914 334 L914 270 L473 270 Q362 123 263 31 L734 68 Q666 144 613 195 L669 224 Q823 87 897 -39 L838 -74 Q824 -47 781 9 Q192 -41 159 -53 Q146 -8 136 16 Q159 20 211 69 Q296 147 384 270 L92 270 L92 334 ZM569 807 L540 767 Q706 590 957 501 Q932 480 910 443 Q679 537 503 722 Q409 615 266 525 L740 525 L740 463 L263 463 L263 523 Q181 471 96 432 Q75 465 48 489 Q370 627 505 834 L569 807 Z" /><glyph glyph-name="" unicode="&#x4f20;" d="M335 813 Q285 690 230 595 L230 -74 L166 -74 L166 496 Q128 440 60 366 Q43 405 22 431 Q181 587 272 832 L335 813 ZM545 467 Q540 449 506 342 L833 342 L843 347 L890 317 Q813 227 669 68 Q743 12 781 -26 L731 -76 Q637 25 473 129 L521 168 Q564 141 619 105 Q704 197 775 280 L416 280 Q430 318 477 467 L293 467 L293 529 L496 529 L532 656 L350 656 L350 717 L548 717 Q565 777 578 831 L643 822 L615 717 L904 717 L904 656 L598 656 Q580 587 562 529 L949 529 L949 467 L545 467 Z" /><glyph glyph-name="" unicode="&#x4f2a;" d="M443 608 Q418 666 348 747 L402 774 Q473 695 502 639 L443 608 ZM342 813 Q296 698 238 599 L238 -74 L175 -74 L175 500 Q128 432 69 371 Q52 409 30 435 Q188 590 279 832 L342 813 ZM919 540 Q898 27 853 -27 Q829 -58 780 -62 Q736 -66 635 -61 Q631 -22 614 4 Q675 -1 753 -1 Q781 -1 793 13 Q833 53 850 510 L607 510 Q558 100 317 -68 Q294 -38 266 -22 Q495 129 540 510 L315 510 L315 575 L547 575 Q554 650 556 828 L624 828 Q622 663 614 575 L919 575 L919 540 ZM726 181 Q682 266 601 357 L656 387 Q744 290 783 215 L726 181 Z" /><glyph glyph-name="" unicode="&#x4f3c;" d="M616 411 Q583 550 490 723 L545 743 Q642 572 676 436 L616 411 ZM300 812 Q270 717 222 615 L222 -76 L158 -76 L158 496 Q113 419 58 353 Q43 392 22 419 Q158 576 240 830 L300 812 ZM617 281 Q623 252 636 222 Q391 52 368 22 Q354 54 331 81 Q365 112 365 164 L365 767 L430 767 L430 154 L617 281 ZM901 -44 Q868 67 786 238 Q722 42 578 -71 Q562 -48 525 -20 Q677 87 737 302 Q785 471 796 808 L863 806 Q851 496 812 326 Q922 123 963 -12 L901 -44 Z" /><glyph glyph-name="" unicode="&#x4f46;" d="M806 700 L462 700 L462 496 L806 496 L806 700 ZM806 434 L462 434 L462 224 L806 224 L806 434 ZM876 162 L394 162 L394 763 L876 763 L876 162 ZM348 812 Q306 703 243 596 L243 -74 L178 -74 L178 496 Q126 422 70 365 Q53 404 31 431 Q193 588 285 832 L348 812 ZM963 28 L963 -35 L307 -35 L307 28 L963 28 Z" /><glyph glyph-name="" unicode="&#x4f4d;" d="M621 666 Q605 742 573 824 L635 841 Q672 743 686 685 L621 666 ZM909 588 L371 588 L371 652 L909 652 L909 588 ZM507 79 Q489 288 437 509 L497 521 Q554 294 573 98 L507 79 ZM355 814 Q317 713 252 600 L252 -74 L186 -74 L186 496 Q145 437 80 366 Q63 405 42 431 Q200 586 293 832 L355 814 ZM951 30 L951 -34 L327 -34 L327 30 L678 30 Q739 252 776 531 L845 518 Q796 231 740 30 L951 30 Z" /><glyph glyph-name="" unicode="&#x4f4e;" d="M333 814 Q298 715 236 600 L236 -74 L172 -74 L172 495 Q121 419 64 357 Q44 400 26 421 Q183 583 272 832 L333 814 ZM628 146 Q688 47 721 -40 L669 -59 Q643 20 579 130 L628 146 ZM670 451 Q658 573 652 716 Q542 692 441 678 L441 451 L670 451 ZM740 389 Q784 15 873 11 Q900 9 913 158 Q933 138 962 126 Q937 -68 873 -66 Q727 -63 677 389 L441 389 L441 13 L588 50 Q588 21 590 -5 Q384 -64 362 -80 Q356 -50 337 -23 Q378 -6 378 37 L378 727 Q694 774 844 832 L902 780 Q814 751 715 728 Q721 577 733 451 L947 451 L947 389 L740 389 Z" /><glyph glyph-name="" unicode="&#x4f4f;" d="M634 651 Q611 719 548 817 L608 839 Q671 748 698 677 L634 651 ZM356 812 Q316 708 253 598 L253 -74 L186 -74 L186 494 Q141 429 80 366 Q60 409 41 431 Q201 586 292 832 L356 812 ZM958 22 L958 -41 L313 -41 L313 22 L606 22 L606 285 L373 285 L373 348 L606 348 L606 576 L339 576 L339 639 L943 639 L943 576 L673 576 L673 348 L913 348 L913 285 L673 285 L673 22 L958 22 Z" /><glyph glyph-name="" unicode="&#x4f53;" d="M320 814 Q281 701 229 598 L229 -74 L166 -74 L166 489 Q128 426 76 366 Q64 398 37 431 Q178 586 258 832 L320 814 ZM692 566 Q797 273 967 142 Q937 118 916 89 Q752 234 647 535 L647 173 L813 173 L813 113 L647 113 L647 -71 L583 -71 L583 113 L413 113 L413 173 L583 173 L583 531 Q476 235 309 87 Q283 119 261 137 Q434 274 540 566 L297 566 L297 630 L583 630 L583 833 L647 833 L647 630 L950 630 L950 566 L692 566 Z" /><glyph glyph-name="" unicode="&#x4f55;" d="M334 815 Q297 713 243 611 L243 -75 L177 -75 L177 500 Q131 430 80 373 Q67 406 42 437 Q186 589 272 834 L334 815 ZM434 467 L434 245 L617 245 L617 467 L434 467 ZM434 186 L434 115 L371 115 L371 526 L679 526 L679 186 L434 186 ZM958 673 L883 673 L883 20 Q883 -46 835 -62 Q791 -76 635 -74 Q631 -44 610 -5 Q745 -10 790 -6 Q817 -6 817 20 L817 673 L339 673 L339 737 L958 737 L958 673 Z" /><glyph glyph-name="" unicode="&#x4f59;" d="M341 184 Q248 58 113 -38 Q86 -9 61 7 Q195 91 279 206 L341 184 ZM539 273 L539 7 Q539 -49 499 -64 Q465 -76 340 -76 Q334 -46 313 -12 Q413 -15 448 -13 Q470 -12 470 7 L470 273 L96 273 L96 336 L470 336 L470 469 L241 469 L241 530 L759 530 L759 469 L539 469 L539 336 L912 336 L912 273 L539 273 ZM703 209 Q843 102 920 6 L863 -35 Q795 58 649 176 L703 209 ZM556 816 L538 795 Q688 624 972 507 Q946 487 927 451 Q657 573 500 750 Q320 556 76 439 Q46 479 30 493 Q336 626 504 845 L556 816 Z" /><glyph glyph-name="" unicode="&#x4f5c;" d="M356 812 Q312 702 253 597 L253 -74 L186 -74 L186 494 Q141 429 80 366 Q60 409 41 431 Q201 586 292 832 L356 812 ZM643 604 L643 454 L935 454 L935 392 L643 392 L643 234 L948 234 L948 171 L643 171 L643 -75 L576 -75 L576 604 L502 604 Q437 481 358 393 Q328 423 306 438 Q446 581 527 822 L591 806 Q572 754 534 668 L957 668 L957 604 L643 604 Z" /><glyph glyph-name="" unicode="&#x4f60;" d="M334 813 Q287 695 230 598 L230 -74 L166 -74 L166 499 Q118 430 59 366 Q41 406 20 431 Q180 586 271 832 L334 813 ZM518 400 Q468 192 371 59 Q333 85 314 96 Q404 206 454 413 L518 400 ZM680 579 L680 7 Q680 -48 647 -63 Q616 -77 517 -77 Q510 -44 493 -9 Q517 -10 598 -10 Q615 -10 615 7 L615 579 L456 579 Q413 479 359 403 Q319 436 305 445 Q412 579 468 831 L533 816 Q506 711 480 641 L898 641 L909 644 L953 633 Q933 513 909 424 L853 435 Q863 483 880 579 L680 579 ZM818 420 Q918 238 946 84 L883 63 Q853 223 759 401 L818 420 Z" /><glyph glyph-name="" unicode="&#x4f7f;" d="M345 818 Q305 715 241 609 L241 -80 L177 -80 L177 512 Q121 432 62 375 Q45 415 24 440 Q187 591 283 837 L345 818 ZM600 344 Q601 362 601 396 L601 502 L412 502 L412 344 L600 344 ZM666 502 L666 395 Q666 361 665 344 L860 344 L860 502 L666 502 ZM661 287 Q647 169 593 91 Q743 8 967 -18 Q946 -37 927 -78 Q704 -45 554 45 Q476 -35 324 -80 Q309 -48 284 -25 Q426 13 500 81 Q406 149 351 246 L406 264 Q453 187 539 125 Q584 188 596 287 L351 287 L351 558 L601 558 L601 661 L320 661 L320 722 L601 722 L601 832 L666 832 L666 722 L958 722 L958 661 L666 661 L666 558 L924 558 L924 287 L661 287 Z" /><glyph glyph-name="" unicode="&#x4f8b;" d="M280 818 Q254 726 211 623 L211 -73 L149 -73 L149 496 Q110 427 73 379 Q61 414 38 445 Q152 584 220 834 L280 818 ZM299 778 L645 778 L645 716 L475 716 Q459 634 436 557 L572 557 L583 560 L621 550 Q573 91 330 -78 Q309 -42 287 -26 Q399 43 472 200 Q427 243 361 293 L397 339 Q459 296 497 261 Q537 364 555 496 L418 496 Q369 353 306 263 Q285 284 255 304 Q358 440 411 716 L299 716 L299 778 ZM753 165 L693 165 L693 718 L753 718 L753 165 ZM918 832 L918 19 Q918 -41 880 -55 Q851 -68 729 -68 Q721 -33 707 -3 Q737 -4 834 -4 Q856 -3 856 18 L856 832 L918 832 Z" /><glyph glyph-name="" unicode="&#x4f9b;" d="M338 814 Q293 698 234 597 L234 -74 L169 -74 L169 496 Q123 430 63 367 Q44 410 25 432 Q185 587 276 833 L338 814 ZM549 159 Q474 25 359 -74 Q336 -49 306 -32 Q419 54 487 177 L549 159 ZM765 175 Q884 61 944 -40 L888 -77 Q835 22 714 145 L765 175 ZM532 302 L734 302 L734 555 L532 555 L532 302 ZM956 302 L956 237 L310 237 L310 302 L467 302 L467 555 L335 555 L335 619 L467 619 L467 824 L532 824 L532 619 L734 619 L734 824 L799 824 L799 619 L944 619 L944 555 L799 555 L799 302 L956 302 Z" /><glyph glyph-name="" unicode="&#x4f9d;" d="M619 652 Q599 719 548 811 L606 830 Q659 743 682 675 L619 652 ZM336 816 Q292 697 230 586 L230 -77 L166 -77 L166 484 Q126 423 76 369 Q63 399 38 433 Q189 592 273 835 L336 816 ZM948 438 Q850 349 733 269 Q832 84 966 7 Q941 -15 918 -47 Q687 98 579 511 Q531 445 478 390 L478 25 L660 91 Q664 59 671 33 Q431 -57 401 -77 L401 -78 Q389 -50 367 -28 Q413 4 413 54 L413 326 Q358 275 287 226 Q264 259 240 279 Q434 399 551 584 L298 584 L298 647 L940 647 L940 584 L627 584 L622 577 Q657 431 709 318 Q820 400 899 484 L948 438 Z" /><glyph glyph-name="" unicode="&#x4fbf;&#xf965;" d="M326 814 Q282 691 230 592 L230 -73 L166 -73 L166 482 Q127 420 81 366 Q69 394 41 431 Q182 585 263 832 L326 814 ZM603 308 Q604 326 604 364 L604 417 L419 417 L419 308 L603 308 ZM419 468 L604 468 L604 576 L419 576 L419 468 ZM669 576 L669 468 L842 468 L842 576 L669 576 ZM842 417 L669 417 L669 364 Q669 326 667 308 L842 308 L842 417 ZM662 255 Q645 147 582 74 Q734 8 964 -9 Q939 -32 925 -69 Q687 -47 535 29 Q455 -37 308 -78 Q292 -47 269 -23 Q402 7 478 61 Q385 120 331 207 L388 228 Q435 153 526 102 Q582 162 597 255 L357 255 L357 629 L604 629 L604 717 L328 717 L328 777 L943 777 L943 717 L669 717 L669 629 L906 629 L906 255 L662 255 Z" /><glyph glyph-name="" unicode="&#x4fdd;" d="M344 813 Q299 704 241 605 L241 -73 L177 -73 L177 506 Q126 433 64 370 Q49 404 26 435 Q189 588 282 832 L344 813 ZM443 536 L827 536 L827 728 L443 728 L443 536 ZM708 285 Q813 108 976 20 Q950 -1 929 -33 Q774 66 667 248 L667 -76 L600 -76 L600 246 Q486 61 323 -31 Q300 3 277 21 Q444 103 559 285 L304 285 L304 346 L600 346 L600 476 L379 476 L379 788 L894 788 L894 476 L667 476 L667 346 L950 346 L950 285 L708 285 Z" /><glyph glyph-name="" unicode="&#x4fe1;" d="M612 679 Q589 737 542 812 L599 835 Q649 765 672 705 L612 679 ZM321 814 Q289 719 235 612 L235 -79 L173 -79 L173 503 Q135 442 75 369 Q59 404 37 431 Q180 585 261 832 L321 814 ZM429 187 L429 20 L813 20 L813 187 L429 187 ZM370 243 L873 243 L873 -73 L813 -73 L813 -36 L429 -36 L429 -76 L370 -76 L370 243 ZM384 388 L863 388 L863 332 L384 332 L384 388 ZM863 472 L384 472 L384 527 L863 527 L863 472 ZM943 669 L943 612 L311 612 L311 669 L943 669 Z" /><glyph glyph-name="" unicode="&#x4fee;" d="M302 811 Q275 724 223 612 L223 -76 L159 -76 L159 494 Q117 423 60 352 Q47 386 24 419 Q160 574 242 829 L302 811 ZM308 558 L366 558 L366 79 L308 79 L308 558 ZM547 668 Q600 583 691 522 Q789 585 839 669 L547 668 ZM924 708 Q870 580 743 490 Q841 436 967 411 Q945 390 929 357 Q800 387 689 455 Q575 389 403 351 Q386 389 371 403 Q521 430 639 491 Q561 551 515 621 Q471 562 422 516 Q390 545 370 555 Q498 662 567 836 L628 820 Q607 771 582 725 L875 725 L885 728 L924 708 ZM844 264 Q735 146 503 83 Q485 112 467 128 Q692 179 793 286 L844 264 ZM749 364 Q661 273 491 216 Q473 242 453 256 Q620 308 698 386 L749 364 ZM947 154 Q808 -10 448 -73 Q434 -43 413 -19 Q761 32 889 179 L947 154 Z" /><glyph glyph-name="" unicode="&#x4ff1;" d="M335 816 Q292 703 232 599 L232 -74 L168 -74 L168 500 Q119 429 61 368 Q43 408 22 433 Q182 588 273 834 L335 816 ZM556 103 Q475 2 328 -77 Q313 -58 285 -32 Q422 38 503 138 L556 103 ZM736 137 Q880 43 953 -30 L907 -77 Q844 -9 694 97 L736 137 ZM455 218 L792 218 L792 314 L455 314 L455 218 ZM455 742 L455 650 L792 650 L792 742 L455 742 ZM455 458 L455 364 L792 364 L792 458 L455 458 ZM792 600 L455 600 L455 508 L792 508 L792 600 ZM953 218 L953 158 L291 158 L291 218 L392 218 L392 798 L857 798 L857 218 L953 218 Z" /><glyph glyph-name="" unicode="&#x500d;" d="M926 664 L350 664 L350 724 L609 724 Q601 767 580 833 L641 843 Q665 782 677 724 L926 724 L926 664 ZM485 454 Q472 534 423 632 L477 648 Q527 558 543 473 L485 454 ZM333 815 Q289 699 230 592 L230 -76 L166 -76 L166 489 Q127 430 73 369 Q60 396 35 433 Q184 589 271 834 L333 815 ZM460 229 L460 30 L802 30 L802 229 L460 229 ZM397 289 L867 289 L867 -72 L802 -72 L802 -30 L460 -30 L460 -75 L397 -75 L397 289 ZM955 441 L955 381 L310 381 L310 441 L694 441 Q738 529 780 653 L842 636 Q794 515 757 441 L955 441 Z" /><glyph glyph-name="" unicode="&#x5019;" d="M947 544 L400 544 L400 602 L767 602 Q778 666 786 729 L458 729 L458 786 L800 786 L811 790 L856 784 Q843 675 829 602 L947 602 L947 544 ZM298 812 Q269 712 214 589 L214 -78 L150 -78 L150 465 Q112 400 75 353 Q60 391 38 418 Q164 574 236 829 L298 812 ZM299 618 L358 618 L358 118 L299 118 L299 618 ZM716 187 Q768 34 962 -16 Q934 -38 922 -70 Q750 -22 678 128 Q618 -4 415 -78 Q400 -49 374 -29 Q595 43 632 187 L402 187 L402 245 L640 245 Q641 253 641 268 L641 382 L524 382 Q491 317 449 269 Q424 290 396 304 Q478 388 522 536 L582 522 Q564 466 552 439 L913 439 L913 382 L706 382 L706 268 Q706 253 705 245 L947 245 L947 187 L716 187 Z" /><glyph glyph-name="" unicode="&#x501f;" d="M350 814 Q306 702 244 594 L244 -74 L181 -74 L181 496 Q138 434 75 367 Q55 410 37 431 Q196 587 287 832 L350 814 ZM499 303 L499 194 L809 194 L809 303 L499 303 ZM809 26 L809 138 L499 138 L499 26 L809 26 ZM435 360 L877 360 L877 -73 L809 -73 L809 -30 L499 -30 L499 -75 L435 -75 L435 360 ZM566 505 L733 505 L733 642 L566 642 L566 505 ZM949 505 L949 444 L348 444 L348 505 L502 505 L502 642 L377 642 L377 702 L502 702 L502 835 L566 835 L566 702 L733 702 L733 835 L798 835 L798 702 L929 702 L929 642 L798 642 L798 505 L949 505 Z" /><glyph glyph-name="" unicode="&#x503c;" d="M331 815 Q289 697 227 586 L227 -75 L165 -75 L165 485 Q126 427 75 369 Q60 403 38 433 Q187 591 271 835 L331 815 ZM444 14 L800 14 L800 101 L444 101 L444 14 ZM444 522 L444 433 L800 433 L800 522 L444 522 ZM800 382 L444 382 L444 292 L800 292 L800 382 ZM444 151 L800 151 L800 242 L444 242 L444 151 ZM954 14 L954 -44 L287 -44 L287 14 L384 14 L384 574 L556 574 Q566 615 576 672 L329 672 L329 731 L586 731 Q596 790 600 836 L672 830 Q657 751 652 731 L923 731 L923 672 L640 672 Q635 649 616 574 L862 574 L862 14 L954 14 Z" /><glyph glyph-name="" unicode="&#x5047;" d="M907 487 L628 487 L628 545 L846 545 L846 732 L628 732 L628 790 L907 790 L907 487 ZM279 815 Q249 703 211 605 L211 -75 L148 -75 L148 467 Q113 401 77 354 Q67 385 41 420 Q154 569 216 830 L279 815 ZM378 733 L378 543 L528 543 L528 733 L378 733 ZM378 127 L378 -73 L316 -73 L316 790 L587 790 L587 486 L378 486 L378 373 L564 373 L564 316 L378 316 L378 184 L575 184 L575 127 L378 127 ZM675 348 Q702 242 760 153 Q819 235 849 348 L675 348 ZM921 394 Q884 218 795 104 Q867 16 962 -22 Q940 -42 921 -73 Q829 -31 757 58 Q675 -27 551 -77 Q538 -49 517 -28 Q636 14 722 107 Q658 205 622 337 L666 348 L600 348 L600 405 L871 405 L882 407 L921 394 Z" /><glyph glyph-name="" unicode="&#x504f;" d="M350 813 Q299 687 244 596 L244 -74 L181 -74 L181 498 Q129 424 73 367 Q59 403 36 431 Q195 585 288 832 L350 813 ZM423 669 L423 549 L845 549 L845 669 L423 669 ZM423 492 Q418 128 339 -65 Q317 -39 287 -26 Q361 155 361 521 L361 726 L615 726 Q595 778 570 823 L628 839 Q659 790 682 726 L910 726 L910 492 L423 492 ZM871 209 L871 367 L772 367 L772 209 L871 209 ZM725 209 L725 367 L629 367 L629 209 L725 209 ZM583 209 L583 367 L492 367 L492 209 L583 209 ZM926 -5 Q926 -47 902 -60 Q881 -70 809 -70 Q806 -50 791 -17 Q844 -19 859 -17 Q871 -17 871 -5 L871 155 L772 155 L772 -41 L725 -41 L725 155 L629 155 L629 -45 L583 -45 L583 155 L492 155 L492 -71 L438 -71 L438 421 L926 421 L926 -5 Z" /><glyph glyph-name="" unicode="&#x505a;" d="M300 813 Q267 710 220 612 L220 -76 L158 -76 L158 498 Q113 421 58 355 Q44 393 22 422 Q158 577 240 830 L300 813 ZM360 326 L360 93 L532 93 L532 326 L360 326 ZM360 35 L360 -30 L301 -30 L301 384 L416 384 L416 578 L273 578 L273 639 L416 639 L416 824 L479 824 L479 639 L613 639 L613 578 L479 578 L479 384 L591 384 L591 35 L360 35 ZM703 583 L697 566 Q719 366 770 235 Q826 368 850 583 L703 583 ZM909 583 Q879 319 801 165 Q866 41 967 -24 Q940 -51 926 -77 Q833 -11 767 107 Q694 -6 580 -78 Q562 -51 537 -32 Q665 41 737 168 Q683 295 659 462 Q636 409 609 365 Q584 398 564 414 Q656 556 696 835 L757 825 Q741 726 718 641 L956 641 L956 583 L909 583 Z" /><glyph glyph-name="" unicode="&#x50a8;" d="M405 606 Q370 671 293 748 L339 780 Q421 702 454 642 L405 606 ZM280 821 Q255 730 204 611 L204 -73 L145 -73 L145 491 Q109 424 64 364 Q51 395 29 426 Q148 576 224 837 L280 821 ZM508 134 Q515 106 525 80 Q367 -17 348 -40 Q339 -10 315 16 Q349 38 349 90 L349 452 L248 452 L248 516 L408 516 L408 76 L508 134 ZM849 304 L624 304 L624 198 L849 198 L849 304 ZM849 37 L849 147 L624 147 L624 37 L849 37 ZM698 530 L721 530 Q770 589 815 662 L698 662 L698 530 ZM748 469 Q695 406 643 360 L910 360 L910 -68 L849 -68 L849 -19 L624 -19 L624 -72 L566 -72 L566 297 Q524 267 486 241 Q470 267 443 294 Q565 364 667 469 L473 469 L473 530 L636 530 L636 662 L502 662 L502 720 L636 720 L636 836 L698 836 L698 720 L818 720 L818 667 Q859 735 885 799 L945 783 Q885 646 797 530 L954 530 L954 469 L748 469 Z" /><glyph glyph-name="" unicode="&#x50cf;" d="M332 813 Q283 683 229 587 L229 -73 L165 -73 L165 483 Q120 417 74 366 Q62 393 36 431 Q183 586 270 832 L332 813 ZM419 466 L563 466 Q596 516 604 573 L419 573 L419 466 ZM485 711 Q450 663 415 625 L607 625 Q640 661 670 711 L485 711 ZM831 573 L660 573 Q655 516 630 466 L831 466 L831 573 ZM902 326 Q868 303 788 259 Q844 94 965 32 Q939 9 921 -19 Q798 56 740 236 Q731 231 688 211 Q714 134 706 60 Q699 -11 665 -43 Q635 -73 580 -75 Q563 -75 519 -73 Q517 -42 503 -15 Q538 -19 569 -19 Q602 -19 619 0 Q661 38 643 149 Q510 25 318 -41 Q299 -10 279 6 Q500 72 631 203 Q620 236 604 264 Q492 164 325 103 Q309 128 288 147 Q467 201 580 302 Q559 332 533 353 Q456 292 328 250 Q312 274 290 293 Q440 341 518 414 L359 414 L359 570 Q342 554 302 522 Q283 549 258 564 Q409 672 490 835 L553 823 Q541 799 520 764 L705 764 L718 767 L757 739 Q723 681 677 625 L894 625 L894 414 L595 414 Q579 393 571 387 Q634 335 672 256 Q791 320 857 367 L902 326 Z" /><glyph glyph-name="" unicode="&#x2f09;&#x513f;" d="M701 795 L701 52 Q701 18 709 8 Q716 -2 741 -2 L851 -2 Q877 -2 886 41 Q894 79 897 209 Q929 184 959 179 Q954 35 935 -12 Q914 -65 855 -65 L733 -65 Q675 -65 655 -41 Q634 -16 634 53 L634 795 L701 795 ZM329 794 L329 471 Q329 286 289 175 Q233 20 84 -77 Q64 -47 37 -26 Q175 63 227 204 Q264 305 264 471 L264 794 L329 794 Z" /><glyph glyph-name="" unicode="&#x5141;" d="M841 7 Q874 7 885 41 Q894 73 898 194 Q916 179 961 165 Q954 31 933 -12 Q910 -57 845 -57 L687 -57 Q622 -57 598 -35 Q575 -13 575 49 L575 432 L417 420 Q403 202 344 102 Q270 -23 79 -79 Q62 -43 38 -24 Q216 24 283 132 Q336 219 348 414 Q180 399 152 388 Q143 422 129 455 Q155 461 208 522 Q331 656 433 842 L503 816 Q381 620 244 472 L731 506 Q667 590 597 677 L651 710 Q820 505 891 402 L832 362 Q813 392 773 448 L642 438 L642 49 Q642 22 652 15 Q661 7 694 7 L841 7 Z" /><glyph glyph-name="" unicode="&#x5143;" d="M855 692 L150 692 L150 756 L855 756 L855 692 ZM838 5 Q869 5 878 38 Q887 69 891 187 Q912 170 953 157 Q947 28 927 -13 Q905 -57 843 -57 L695 -57 Q631 -57 609 -36 Q586 -15 586 46 L586 411 L392 411 Q376 224 322 123 Q253 -9 96 -73 Q78 -40 54 -22 Q201 34 262 153 Q308 242 321 411 L63 411 L63 476 L938 476 L938 411 L654 411 L654 46 Q654 21 663 13 Q672 5 702 5 L838 5 Z" /><glyph glyph-name="" unicode="&#x5144;" d="M230 435 L774 435 L774 714 L230 714 L230 435 ZM839 -4 Q871 -4 881 28 Q890 59 894 175 Q915 158 955 147 Q950 17 929 -24 Q907 -67 843 -67 L689 -67 Q624 -67 601 -46 Q578 -25 578 35 L578 369 L394 369 Q379 185 323 93 Q253 -21 83 -76 Q71 -45 40 -18 Q198 28 261 128 Q310 207 322 369 L163 369 L163 780 L844 780 L844 369 L645 369 L645 34 Q645 10 655 3 Q664 -4 696 -4 L839 -4 Z" /><glyph glyph-name="" unicode="&#x5145;" d="M511 677 Q483 741 429 818 L494 838 Q552 757 578 701 L511 677 ZM837 13 Q867 13 876 41 Q885 69 889 171 Q911 152 952 141 Q946 26 925 -12 Q903 -51 842 -51 L687 -51 Q622 -51 598 -30 Q575 -9 575 49 L575 343 L420 334 Q404 163 344 77 Q272 -28 102 -77 Q89 -45 61 -19 Q217 23 281 111 Q334 183 348 330 Q183 320 152 310 Q140 352 129 378 Q152 382 198 426 Q273 495 355 610 L69 610 L69 674 L932 674 L932 610 L444 610 Q350 486 249 389 L738 413 Q677 473 599 535 L652 568 Q825 434 911 324 L854 286 Q830 316 795 354 L645 346 L645 50 Q645 27 654 20 Q664 13 695 13 L837 13 Z" /><glyph glyph-name="" unicode="&#x5148;" d="M841 4 Q870 4 878 31 Q887 58 890 156 Q910 139 951 128 Q945 15 925 -22 Q904 -59 847 -59 L701 -59 Q638 -59 617 -39 Q595 -19 595 39 L595 341 L397 341 Q380 176 323 85 Q253 -27 95 -81 Q76 -45 52 -26 Q200 20 264 118 Q315 195 330 341 L65 341 L65 405 L467 405 L467 612 L255 612 Q217 524 165 458 Q128 480 108 489 Q205 607 252 810 L320 797 Q302 734 281 676 L467 676 L467 835 L534 835 L534 676 L867 676 L867 612 L534 612 L534 405 L936 405 L936 341 L662 341 L662 38 Q662 16 670 10 Q679 4 708 4 L841 4 Z" /><glyph glyph-name="" unicode="&#x514d;" d="M540 524 Q532 415 515 341 L804 341 L804 524 L540 524 ZM446 341 Q461 407 470 524 L225 524 L225 341 L446 341 ZM327 700 Q280 639 225 584 L500 584 Q549 638 586 700 L327 700 ZM835 5 Q868 5 877 30 Q886 54 889 147 Q912 130 951 120 Q944 14 923 -20 Q901 -55 840 -55 L667 -55 Q598 -55 574 -36 Q550 -16 550 39 L550 281 L500 281 Q419 21 95 -66 Q82 -32 57 -9 Q353 64 430 281 L159 281 L159 524 Q120 492 95 475 Q78 503 48 523 Q238 648 339 837 L411 824 Q385 780 369 757 L625 757 L637 760 L681 731 Q641 658 577 584 L873 584 L873 281 L618 281 L618 40 Q618 18 628 12 Q638 5 673 5 L835 5 Z" /><glyph glyph-name="" unicode="&#x2f0a;&#x5165;" d="M341 811 Q494 702 644 399 Q786 110 958 8 Q932 -28 925 -65 Q779 17 675 192 Q643 246 593 346 Q539 458 514 502 Q401 104 106 -70 Q80 -40 46 -17 Q361 148 460 591 Q392 692 301 755 L341 811 Z" /><glyph glyph-name="" unicode="&#x5168;" d="M534 14 L926 14 L926 -47 L78 -47 L78 14 L465 14 L465 185 L203 185 L203 245 L465 245 L465 407 L198 407 L198 467 L806 467 L806 407 L534 407 L534 245 L808 245 L808 185 L534 185 L534 14 ZM554 819 L536 793 Q695 604 972 453 Q941 428 925 397 Q662 555 500 744 Q334 531 77 401 Q61 429 31 455 Q337 597 495 846 L554 819 Z" /><glyph glyph-name="" unicode="&#x5171;" d="M403 161 Q291 24 117 -76 Q100 -56 66 -29 Q249 72 334 187 L403 161 ZM647 188 Q839 52 929 -34 L867 -75 Q772 20 590 154 L647 188 ZM353 314 L647 314 L647 557 L353 557 L353 314 ZM953 314 L953 249 L52 249 L52 314 L285 314 L285 557 L93 557 L93 621 L285 621 L285 826 L353 826 L353 621 L647 621 L647 826 L715 826 L715 621 L916 621 L916 557 L715 557 L715 314 L953 314 Z" /><glyph glyph-name="" unicode="&#x5173;" d="M330 625 Q302 703 231 796 L285 825 Q353 745 389 657 L330 625 ZM558 304 Q675 64 954 -7 Q927 -30 907 -69 Q641 12 513 255 Q438 45 102 -75 Q85 -44 55 -17 Q392 99 450 304 L73 304 L73 370 L463 370 Q466 405 466 435 L466 556 L132 556 L132 621 L602 621 Q666 717 713 831 L784 806 Q731 705 673 621 L877 621 L877 556 L540 556 L540 434 Q540 403 537 370 L931 370 L931 304 L558 304 Z" /><glyph glyph-name="" unicode="&#x5176;" d="M309 199 L690 199 L690 315 L309 315 L309 199 ZM309 653 L309 547 L690 547 L690 653 L309 653 ZM309 373 L690 373 L690 489 L309 489 L309 373 ZM942 138 L58 138 L58 199 L244 199 L244 653 L86 653 L86 715 L244 715 L244 834 L309 834 L309 715 L690 715 L690 834 L757 834 L757 715 L919 715 L919 653 L757 653 L757 199 L942 199 L942 138 ZM425 76 Q294 -6 92 -73 Q71 -43 49 -23 Q253 39 364 117 L425 76 ZM621 113 Q816 43 945 -27 L886 -71 Q768 -1 577 70 L621 113 Z" /><glyph glyph-name="" unicode="&#x5177;" d="M275 206 L734 206 L734 302 L275 302 L275 206 ZM275 731 L275 640 L734 640 L734 731 L275 731 ZM275 446 L275 354 L734 354 L734 446 L275 446 ZM734 588 L275 588 L275 498 L734 498 L734 588 ZM947 145 L57 145 L57 206 L209 206 L209 787 L803 787 L803 206 L947 206 L947 145 ZM394 95 Q281 1 92 -75 Q77 -52 45 -26 Q238 45 332 133 L394 95 ZM651 135 Q820 61 951 -22 L900 -71 Q785 7 610 90 L651 135 Z" /><glyph glyph-name="" unicode="&#x5178;" d="M406 98 Q291 0 105 -77 Q83 -52 55 -29 Q242 42 342 135 L406 98 ZM644 137 Q821 52 936 -27 L878 -72 Q767 9 598 94 L644 137 ZM208 222 L359 222 L359 415 L208 415 L208 222 ZM208 652 L208 477 L359 477 L359 652 L208 652 ZM422 652 L422 477 L577 477 L577 652 L422 652 ZM640 652 L640 477 L798 477 L798 652 L640 652 ZM577 415 L422 415 L422 222 L577 222 L577 415 ZM640 222 L798 222 L798 415 L640 415 L640 222 ZM956 222 L956 158 L43 158 L43 222 L144 222 L144 714 L359 714 L359 837 L422 837 L422 714 L577 714 L577 837 L640 837 L640 714 L864 714 L864 222 L956 222 Z" /><glyph glyph-name="" unicode="&#x517c;" d="M568 242 L568 343 L422 343 L422 242 L568 242 ZM422 401 L568 401 L568 492 L422 492 L422 401 ZM422 546 L568 546 L568 640 L422 640 L422 546 ZM632 492 L632 401 L776 401 L776 492 L632 492 ZM776 343 L632 343 L632 242 L776 242 L776 343 ZM670 188 Q796 60 960 0 Q932 -24 915 -53 Q755 18 632 151 L632 -76 L568 -76 L568 188 L422 188 L422 -76 L358 -76 L358 141 Q244 13 87 -58 Q71 -32 42 -7 Q208 56 322 188 L136 188 L136 242 L358 242 L358 343 L61 343 L61 401 L358 401 L358 492 L143 492 L143 546 L358 546 L358 640 L77 640 L77 698 L313 698 Q278 749 213 811 L271 838 Q345 773 382 717 L343 698 L625 698 Q691 775 726 837 L795 814 Q749 749 704 698 L924 698 L924 640 L632 640 L632 546 L841 546 L841 401 L941 401 L941 343 L841 343 L841 188 L670 188 Z" /><glyph glyph-name="" unicode="&#x5185;" d="M899 16 Q899 -48 855 -63 Q818 -75 671 -75 Q666 -41 648 -7 Q746 -11 808 -8 Q833 -7 833 16 L833 599 L533 599 Q530 525 514 465 Q697 307 803 181 L749 139 Q666 244 495 402 Q429 234 247 128 Q226 158 200 177 Q455 316 466 599 L169 599 L169 -78 L103 -78 L103 664 L467 664 L467 836 L534 836 L534 664 L899 664 L899 16 Z" /><glyph glyph-name="" unicode="&#x518c;" d="M779 440 L779 707 L611 707 L611 440 L779 440 ZM372 440 L372 707 L223 707 L223 440 L372 440 ZM954 376 L845 376 L845 7 Q845 -48 809 -63 Q780 -76 665 -76 Q658 -42 642 -13 Q696 -14 759 -14 Q779 -13 779 8 L779 376 L609 376 Q597 80 493 -78 Q475 -50 444 -32 Q535 111 545 376 L436 376 L436 13 Q436 -41 402 -55 Q373 -67 263 -67 Q259 -46 241 -7 Q329 -9 353 -7 Q372 -7 372 13 L372 376 L221 376 Q207 75 93 -81 Q72 -49 45 -35 Q147 110 157 376 L46 376 L46 440 L159 440 L159 769 L436 769 L436 440 L546 440 L546 769 L845 769 L845 440 L954 440 L954 376 Z" /><glyph glyph-name="" unicode="&#x518d;" d="M770 229 L770 361 L530 361 L530 229 L770 229 ZM229 229 L463 229 L463 361 L229 361 L229 229 ZM229 546 L229 419 L463 419 L463 546 L229 546 ZM530 546 L530 419 L770 419 L770 546 L530 546 ZM958 167 L836 167 L836 9 Q836 -50 794 -65 Q760 -77 623 -77 Q616 -43 597 -13 Q694 -16 747 -13 Q770 -13 770 9 L770 167 L229 167 L229 -78 L163 -78 L163 167 L44 167 L44 229 L163 229 L163 607 L463 607 L463 711 L80 711 L80 773 L921 773 L921 711 L530 711 L530 607 L836 607 L836 229 L958 229 L958 167 Z" /><glyph glyph-name="" unicode="&#x5199;" d="M818 352 Q784 18 732 -32 Q706 -60 652 -61 Q608 -65 491 -58 Q489 -27 470 5 Q549 -3 631 -3 Q665 -3 677 8 Q721 45 749 324 L219 324 Q262 477 304 696 L371 690 Q360 633 347 577 L796 577 L796 518 L334 518 Q320 451 303 384 L821 384 L818 352 ZM661 148 L94 148 L94 210 L661 210 L661 148 ZM918 780 L918 592 L850 592 L850 718 L149 718 L149 592 L83 592 L83 780 L918 780 Z" /><glyph glyph-name="" unicode="&#x51b2;" d="M224 565 Q177 652 68 763 L117 798 Q230 687 278 605 L224 565 ZM57 11 Q146 149 237 339 L285 297 Q205 123 113 -32 L57 11 ZM867 311 L867 569 L661 569 L661 311 L867 311 ZM595 311 L595 569 L394 569 L394 311 L595 311 ZM933 632 L933 192 L867 192 L867 249 L661 249 L661 -74 L595 -74 L595 249 L394 249 L394 186 L331 186 L331 632 L595 632 L595 825 L661 825 L661 632 L933 632 Z" /><glyph glyph-name="" unicode="&#x51b3;" d="M209 563 Q168 643 56 763 L108 796 Q219 681 266 601 L209 563 ZM266 298 Q190 125 100 -30 L44 10 Q133 155 216 339 L266 298 ZM631 505 Q631 428 625 375 L791 375 L791 613 L631 613 L631 505 ZM668 311 Q746 57 962 -17 Q936 -42 918 -75 Q695 15 610 290 Q555 50 297 -78 Q282 -50 251 -25 Q499 88 546 311 L306 311 L306 375 L556 375 Q562 429 562 505 L562 613 L359 613 L359 676 L562 676 L562 833 L631 833 L631 676 L855 676 L855 375 L958 375 L958 311 L668 311 Z" /><glyph glyph-name="" unicode="&#x51b5;" d="M212 566 Q163 654 56 763 L107 799 Q220 684 266 607 L212 566 ZM271 297 Q192 124 100 -33 L43 11 Q132 149 223 339 L271 297 ZM442 449 L826 449 L826 727 L442 727 L442 449 ZM867 -5 Q887 -5 894 23 Q900 50 902 148 Q923 130 960 120 Q955 11 938 -26 Q921 -64 874 -64 L771 -64 Q719 -64 701 -44 Q683 -24 683 31 L683 387 L556 387 Q544 195 500 101 Q443 -17 302 -74 Q289 -46 260 -21 Q391 29 442 132 Q482 215 491 387 L376 387 L376 790 L895 790 L895 387 L749 387 L749 30 Q749 8 755 2 Q761 -5 780 -5 L867 -5 Z" /><glyph glyph-name="" unicode="&#x51c6;" d="M681 659 Q664 714 608 802 L664 828 Q722 741 741 688 L681 659 ZM190 542 Q148 635 53 763 L111 790 Q205 669 252 575 L190 542 ZM54 4 Q135 148 206 337 L265 304 Q201 137 120 -29 L54 4 ZM431 57 L647 57 L647 200 L431 200 L431 57 ZM647 597 L431 597 L431 458 L647 458 L647 597 ZM647 399 L431 399 L431 259 L647 259 L647 399 ZM948 -4 L431 -4 L431 -76 L369 -76 L369 519 Q321 446 266 386 Q235 420 216 433 Q365 576 449 826 L510 811 Q485 737 446 656 L927 656 L927 597 L711 597 L711 458 L907 458 L907 399 L711 399 L711 259 L906 259 L906 200 L711 200 L711 57 L948 57 L948 -4 Z" /><glyph glyph-name="" unicode="&#x51cf;" d="M889 684 Q841 744 761 798 L802 831 Q889 771 930 720 L889 684 ZM181 545 Q145 641 54 766 L106 790 Q199 666 236 573 L181 545 ZM238 312 Q175 133 99 -26 L42 2 Q124 164 187 341 L238 312 ZM467 338 L467 174 L596 174 L596 338 L467 338 ZM467 119 L467 60 L414 60 L414 393 L646 393 L646 119 L467 119 ZM653 475 L402 475 L402 528 L653 528 L653 475 ZM927 512 Q878 310 790 167 Q827 0 878 -3 Q905 -4 919 155 Q935 136 966 123 Q942 -79 879 -77 Q795 -74 744 102 Q668 2 562 -69 Q547 -50 517 -27 Q642 48 726 175 Q693 343 677 611 L361 611 L361 406 Q361 81 249 -80 Q228 -56 199 -45 Q301 103 301 406 L301 671 L674 671 L668 830 L727 830 Q728 774 732 671 L947 671 L947 611 L736 611 Q748 408 773 252 Q837 378 870 524 L927 512 Z" /><glyph glyph-name="" unicode="&#x2f0f;&#x51e0;" d="M858 12 Q880 12 888 50 Q894 83 897 202 Q925 178 960 171 Q955 40 937 -4 Q917 -53 862 -53 L748 -53 Q694 -53 674 -29 Q654 -5 654 62 L654 710 L328 710 L328 471 Q328 90 99 -78 Q78 -46 49 -27 Q259 126 259 472 L259 775 L722 775 L722 61 Q722 30 729 21 Q735 12 758 12 L858 12 Z" /><glyph glyph-name="" unicode="&#x51ed;" d="M585 726 Q467 714 358 706 Q355 724 341 755 Q693 783 844 824 L892 776 Q803 753 651 733 L651 610 L942 610 L942 552 L651 552 L651 425 L924 425 L924 367 L336 367 L336 425 L585 425 L585 552 L301 552 L301 610 L585 610 L585 726 ZM179 593 Q134 546 77 503 Q57 527 29 549 Q194 661 279 836 L340 819 Q304 745 243 667 L243 336 L179 336 L179 593 ZM869 1 Q891 1 897 23 Q904 44 906 126 Q925 112 965 101 Q961 5 942 -27 Q924 -59 875 -59 L754 -59 Q699 -59 679 -41 Q659 -22 659 30 L659 226 L336 226 L336 189 Q336 3 85 -77 Q72 -48 47 -20 Q269 45 269 191 L269 286 L725 286 L725 30 Q725 12 732 7 Q739 1 762 1 L869 1 Z" /><glyph glyph-name="" unicode="&#x51fa;" d="M890 339 L890 -74 L818 -74 L818 -16 L111 -16 L111 339 L183 339 L183 49 L463 49 L463 404 L154 404 L154 743 L223 743 L223 469 L463 469 L463 835 L535 835 L535 469 L779 469 L779 744 L851 744 L851 404 L535 404 L535 49 L818 49 L818 339 L890 339 Z" /><glyph glyph-name="" unicode="&#x51fb;" d="M536 47 L779 47 L779 302 L846 302 L846 -76 L779 -76 L779 -17 L153 -17 L153 303 L223 303 L223 47 L467 47 L467 382 L71 382 L71 449 L467 449 L467 612 L145 612 L145 678 L467 678 L467 835 L536 835 L536 678 L862 678 L862 612 L536 612 L536 449 L932 449 L932 382 L536 382 L536 47 Z" /><glyph glyph-name="" unicode="&#x51fd;" d="M468 604 Q575 653 672 730 L184 730 L184 792 L743 792 L758 795 L802 761 Q690 657 534 578 L534 435 Q568 409 585 395 Q682 498 736 583 L792 554 Q696 431 624 363 Q740 267 800 197 L758 151 Q685 240 534 366 L534 165 Q534 115 500 100 Q470 90 363 90 Q358 121 343 150 Q423 147 450 149 Q468 149 468 166 L468 334 Q408 291 221 163 L188 217 Q282 274 468 395 L468 604 ZM348 385 Q291 467 211 538 L254 572 Q341 500 393 426 L348 385 ZM910 616 L910 -75 L844 -75 L844 -19 L93 -19 L93 613 L159 613 L159 43 L844 43 L844 616 L910 616 Z" /><glyph glyph-name="" unicode="&#x5206;" d="M398 795 Q296 542 105 387 Q82 414 49 437 Q236 574 328 814 L398 795 ZM808 458 Q808 434 807 425 Q787 16 743 -33 Q717 -62 668 -65 Q611 -68 510 -62 Q506 -25 488 4 Q566 -3 641 -3 Q669 -3 684 9 Q719 44 737 392 L454 392 Q430 218 367 117 Q284 -16 110 -79 Q95 -47 69 -23 Q231 31 307 149 Q364 239 384 392 L187 392 L187 458 L808 458 ZM669 816 Q772 589 956 452 Q928 431 903 396 Q724 548 609 792 L669 816 Z" /><glyph glyph-name="" unicode="&#x5207;" d="M430 273 Q432 247 441 216 Q181 99 155 74 Q143 109 123 134 Q165 156 165 204 L165 486 L43 460 L32 520 L165 549 L165 796 L229 796 L229 562 L422 604 L433 545 L229 500 L229 188 L430 273 ZM935 746 L934 708 Q914 38 867 -22 Q841 -57 793 -63 Q742 -66 653 -61 Q649 -19 632 6 Q706 1 767 1 Q794 1 806 19 Q850 67 867 682 L652 682 Q646 392 603 245 Q538 29 362 -73 Q338 -38 313 -22 Q482 70 542 273 Q581 407 586 682 L423 682 L423 746 L935 746 Z" /><glyph glyph-name="" unicode="&#x5212;" d="M456 634 Q407 699 312 775 L357 811 Q454 738 503 674 L456 634 ZM278 502 Q296 365 333 241 Q417 346 468 476 L531 456 Q465 298 357 169 Q423 -7 489 -7 Q524 -7 532 155 Q555 130 588 119 Q578 9 556 -32 Q534 -73 485 -73 Q386 -73 308 115 Q211 16 90 -55 Q70 -27 43 -2 Q179 70 282 182 Q237 319 213 494 L47 475 L41 537 L205 555 Q188 705 187 834 L255 834 Q255 706 270 563 L589 600 L596 538 L278 502 ZM715 180 L651 180 L651 725 L715 725 L715 180 ZM908 825 L908 15 Q908 -45 867 -62 Q833 -75 702 -75 Q697 -45 680 -9 Q782 -12 819 -10 Q843 -9 843 14 L843 825 L908 825 Z" /><glyph glyph-name="" unicode="&#x5217;" d="M66 780 L570 780 L570 716 L300 716 Q280 632 255 558 L486 558 L498 561 L538 548 Q469 76 126 -81 Q109 -49 85 -25 Q242 38 341 183 Q272 249 184 305 L223 354 Q312 298 377 241 Q439 353 467 496 L232 496 Q179 362 112 279 Q87 304 60 322 Q175 458 233 716 L66 716 L66 780 ZM711 164 L646 164 L646 717 L711 717 L711 164 ZM917 832 L917 14 Q917 -44 878 -60 Q847 -72 730 -72 Q723 -40 707 -8 Q803 -10 829 -8 Q851 -8 851 14 L851 832 L917 832 Z" /><glyph glyph-name="" unicode="&#x5219;" d="M368 159 Q486 66 547 -1 L504 -50 Q438 28 326 117 L368 159 ZM533 781 L533 181 L469 181 L469 720 L174 720 L174 179 L111 179 L111 781 L533 781 ZM902 829 L902 22 Q902 -41 859 -58 Q820 -71 683 -70 Q675 -33 658 -3 Q769 -6 811 -4 Q837 -3 837 21 L837 829 L902 829 ZM715 746 L715 154 L652 154 L652 746 L715 746 ZM351 649 L351 367 Q351 51 92 -77 Q79 -46 51 -28 Q194 44 248 159 Q287 240 287 369 L287 649 L351 649 Z" /><glyph glyph-name="" unicode="&#x521a;" d="M435 116 Q400 208 353 304 Q286 147 215 44 Q201 55 165 76 Q245 186 319 367 Q259 484 186 602 L233 625 Q294 528 346 435 Q391 559 421 678 L476 667 Q436 517 380 371 Q448 243 485 144 L435 116 ZM583 24 Q583 -28 547 -43 Q518 -55 401 -55 Q396 -29 378 4 Q407 3 500 3 Q522 4 522 25 L522 726 L154 726 L154 -71 L92 -71 L92 786 L583 786 L583 24 ZM747 174 L687 174 L687 727 L747 727 L747 174 ZM914 817 L914 14 Q914 -42 876 -58 Q844 -70 720 -70 Q715 -41 699 -9 Q787 -12 829 -9 Q853 -9 853 14 L853 817 L914 817 Z" /><glyph glyph-name="" unicode="&#x521b;" d="M453 -3 Q488 -3 498 23 Q508 48 512 139 Q542 120 572 114 Q565 9 543 -25 Q521 -61 457 -61 L267 -61 Q197 -61 172 -41 Q146 -20 146 41 L146 471 L504 471 L502 443 Q489 211 460 180 Q442 159 405 156 Q370 153 308 156 Q306 187 291 214 Q328 210 378 210 Q398 210 407 219 Q426 242 437 412 L210 412 L210 41 Q210 13 222 5 Q233 -3 272 -3 L453 -3 ZM378 815 Q372 799 359 772 Q524 603 593 503 L544 459 Q473 569 329 718 Q233 547 81 429 Q61 453 32 474 Q227 615 318 833 L378 815 ZM710 170 L647 170 L647 719 L710 719 L710 170 ZM908 820 L908 17 Q908 -44 864 -60 Q826 -73 687 -72 Q678 -33 663 -9 Q699 -10 816 -10 Q842 -9 842 16 L842 820 L908 820 Z" /><glyph glyph-name="" unicode="&#x521d;" d="M251 667 Q225 726 165 807 L216 835 Q278 758 304 701 L251 667 ZM381 190 Q336 256 273 332 L273 -74 L205 -74 L205 320 Q140 244 77 193 Q59 237 40 254 Q215 388 313 596 L58 596 L58 657 L346 657 L359 660 L398 633 Q355 522 274 409 L310 369 Q364 425 391 467 L438 429 Q379 368 341 335 Q394 277 423 244 L381 190 ZM918 712 Q900 35 850 -27 Q824 -62 775 -68 Q723 -73 628 -66 Q624 -28 608 -2 Q684 -8 750 -8 Q776 -8 791 9 Q834 57 853 685 L651 685 Q637 390 589 229 Q530 35 397 -77 Q378 -49 346 -26 Q474 72 528 257 Q572 406 583 685 L413 685 L413 749 L918 749 L918 712 Z" /><glyph glyph-name="" unicode="&#x5220;" d="M557 447 L557 743 L457 743 L457 447 L557 447 ZM270 447 L270 744 L170 744 L170 447 L270 447 ZM614 447 L666 447 L666 385 L614 385 L614 9 Q614 -39 586 -52 Q563 -64 480 -64 Q476 -35 462 -6 Q499 -7 542 -7 Q557 -6 557 10 L557 385 L457 385 L457 365 Q457 60 387 -75 Q375 -60 340 -44 Q400 77 400 364 L400 385 L327 385 L327 9 Q327 -39 298 -52 Q276 -64 193 -64 Q189 -35 175 -6 L255 -6 Q270 -6 270 10 L270 385 L170 385 L170 335 Q170 47 92 -75 Q75 -54 44 -41 Q113 70 113 335 L113 385 L48 385 L48 447 L113 447 L113 803 L327 803 L327 447 L400 447 L400 802 L614 802 L614 447 ZM766 166 L711 166 L711 723 L766 723 L766 166 ZM914 818 L914 1 Q914 -50 882 -64 Q856 -76 757 -76 Q752 -49 737 -17 L837 -17 Q856 -17 856 2 L856 818 L914 818 Z" /><glyph glyph-name="" unicode="&#x5224;" d="M566 763 Q514 643 458 553 Q429 571 402 581 Q458 664 506 781 L566 763 ZM180 560 Q150 636 78 755 L133 776 Q204 665 238 586 L180 560 ZM353 431 Q353 349 347 296 L567 296 L567 234 L337 234 Q300 28 129 -82 Q95 -45 78 -35 Q229 62 268 234 L49 234 L49 296 L279 296 Q287 356 287 431 L287 472 L87 472 L87 535 L287 535 L287 831 L353 831 L353 535 L543 535 L543 472 L353 472 L353 431 ZM698 167 L634 167 L634 715 L698 715 L698 167 ZM908 816 L908 14 Q908 -47 865 -65 Q827 -79 688 -77 Q681 -46 664 -10 Q775 -13 816 -11 Q842 -10 842 14 L842 816 L908 816 Z" /><glyph glyph-name="" unicode="&#x5229;" d="M337 535 L548 535 L548 473 L337 473 L337 447 Q393 396 533 251 L495 197 Q433 271 337 372 L337 -74 L271 -74 L271 371 Q178 167 74 65 Q60 99 38 126 Q174 257 257 473 L57 473 L57 535 L271 535 L271 712 Q156 691 74 681 Q69 710 53 734 Q345 776 469 829 L519 779 Q453 751 337 726 L337 535 ZM695 170 L629 170 L629 718 L695 718 L695 170 ZM908 825 L908 20 Q908 -42 865 -58 Q830 -71 689 -71 Q682 -37 664 -4 Q700 -5 816 -5 Q842 -4 842 20 L842 825 L908 825 Z" /><glyph glyph-name="" unicode="&#x522b;" d="M427 731 L159 731 L159 529 L427 529 L427 731 ZM491 469 L98 469 L98 791 L491 791 L491 469 ZM507 352 L506 321 Q490 1 459 -37 Q438 -63 399 -66 Q357 -70 289 -65 Q287 -31 271 -2 Q315 -6 371 -6 Q393 -6 403 5 Q426 30 439 291 L293 291 Q258 21 80 -79 Q65 -47 38 -31 Q200 55 230 291 L59 291 L59 352 L237 352 Q241 409 242 443 L306 443 L300 352 L507 352 ZM694 167 L630 167 L630 715 L694 715 L694 167 ZM908 816 L908 14 Q908 -47 866 -64 Q834 -77 696 -77 Q687 -38 671 -10 Q706 -11 817 -11 Q842 -10 842 14 L842 816 L908 816 Z" /><glyph glyph-name="" unicode="&#x5230;" d="M363 93 L575 132 L579 74 Q251 9 81 -22 L67 40 L299 81 L299 255 L102 255 L102 315 L299 315 L299 426 L363 426 L363 315 L566 315 L566 255 L363 255 L363 93 ZM75 768 L585 768 L585 709 L314 709 Q256 596 193 514 L463 538 Q420 598 385 641 L433 670 Q541 540 585 456 L535 423 Q521 451 497 487 Q145 451 122 441 Q110 483 99 504 Q117 507 147 548 Q198 615 240 709 L75 709 L75 768 ZM706 149 L644 149 L644 750 L706 750 L706 149 ZM906 818 L906 35 Q906 -25 867 -40 Q832 -53 714 -53 Q706 -17 688 14 Q783 11 820 13 Q841 14 841 34 L841 818 L906 818 Z" /><glyph glyph-name="" unicode="&#x5236;" d="M359 518 L605 518 L605 457 L359 457 L359 351 L567 351 L567 75 Q567 28 538 15 Q514 4 421 4 Q419 26 402 63 Q470 60 492 62 Q506 62 506 76 L506 291 L359 291 L359 -74 L295 -74 L295 291 L157 291 L157 7 L96 7 L96 351 L295 351 L295 457 L49 457 L49 518 L295 518 L295 629 L159 629 Q131 558 107 522 Q83 537 48 547 Q110 638 150 811 L212 799 Q198 741 180 690 L295 690 L295 832 L359 832 L359 690 L565 690 L565 629 L359 629 L359 518 ZM744 194 L681 194 L681 743 L744 743 L744 194 ZM923 826 L923 22 Q923 -41 883 -58 Q848 -71 725 -71 Q716 -29 703 0 Q763 -2 837 -2 Q859 -1 859 21 L859 826 L923 826 Z" /><glyph glyph-name="" unicode="&#x524d;" d="M416 200 L416 307 L185 307 L185 200 L416 200 ZM185 464 L185 360 L416 360 L416 464 L185 464 ZM480 5 Q480 -46 446 -60 Q416 -71 307 -71 Q300 -40 285 -12 Q368 -15 397 -13 Q416 -12 416 5 L416 147 L185 147 L185 -71 L121 -71 L121 522 L480 522 L480 5 ZM810 543 L875 543 L875 11 Q875 -45 836 -60 Q803 -72 680 -72 Q673 -40 655 -8 Q754 -11 788 -9 Q810 -8 810 11 L810 543 ZM670 106 L608 106 L608 513 L670 513 L670 106 ZM944 676 L944 615 L57 615 L57 676 L309 676 Q277 742 215 814 L276 837 Q343 761 377 695 L328 676 L631 676 Q689 761 727 841 L796 817 Q741 725 705 676 L944 676 Z" /><glyph glyph-name="" unicode="&#x2f12;&#x529b;&#xf98a;" d="M903 616 Q902 589 901 580 Q869 31 812 -31 Q785 -65 730 -69 Q679 -74 572 -65 Q568 -26 549 2 Q630 -5 707 -5 Q738 -5 753 10 Q804 59 831 549 L481 549 Q453 133 109 -80 Q87 -46 58 -28 Q384 168 412 549 L87 549 L87 616 L415 616 Q416 634 416 667 L416 834 L485 834 L485 667 Q485 634 484 616 L903 616 Z" /><glyph glyph-name="" unicode="&#x529e;" d="M749 612 Q727 40 678 -18 Q650 -53 598 -57 Q553 -61 437 -55 Q435 -16 415 15 Q483 9 571 9 Q599 8 614 24 Q658 70 676 584 L465 584 Q457 385 392 244 Q304 50 100 -79 Q73 -43 47 -26 Q376 179 395 584 L91 584 L91 650 L397 650 L397 835 L467 835 L467 650 L749 650 L749 612 ZM250 469 Q187 282 113 188 L53 224 Q136 319 190 493 L250 469 ZM841 501 Q925 330 954 193 L888 170 Q862 311 779 481 L841 501 Z" /><glyph glyph-name="" unicode="&#x529f;" d="M443 219 Q323 184 60 111 L43 178 L118 197 Q172 211 206 219 L206 652 L56 652 L56 715 L420 715 L420 652 L272 652 L272 237 L436 281 L443 219 ZM937 571 Q915 29 866 -29 Q841 -62 792 -66 Q747 -70 645 -63 Q641 -26 625 2 Q687 -4 766 -4 Q796 -4 808 11 Q850 56 870 542 L661 542 Q647 317 589 182 Q516 13 357 -76 Q334 -42 309 -25 Q459 55 527 210 Q581 334 594 542 L426 542 L426 606 L597 606 Q600 708 600 818 L667 818 Q667 708 664 606 L937 606 L937 571 Z" /><glyph glyph-name="" unicode="&#x52a0;" d="M490 652 Q490 626 489 617 Q464 45 416 -13 Q392 -46 351 -49 Q311 -54 242 -49 Q240 -9 224 19 Q278 14 324 14 Q347 14 358 31 Q399 78 422 587 L274 587 Q251 116 98 -70 Q73 -41 45 -27 Q188 140 209 587 L67 587 L67 652 L211 652 Q213 776 213 833 L279 833 Q279 745 276 652 L490 652 ZM840 76 L840 645 L635 645 L635 76 L840 76 ZM909 709 L909 -55 L840 -55 L840 12 L635 12 L635 -62 L569 -62 L569 709 L909 709 Z" /><glyph glyph-name="" unicode="&#x52a1;" d="M864 280 Q863 259 861 250 Q830 2 784 -38 Q757 -63 707 -64 Q655 -66 562 -61 Q558 -29 541 -2 Q612 -9 689 -9 Q720 -9 732 1 Q770 33 792 221 L482 221 Q396 -2 96 -74 Q85 -46 60 -17 Q333 34 412 221 L131 221 L131 280 L431 280 Q445 329 451 382 L520 376 Q511 316 500 280 L864 280 ZM323 658 Q386 574 511 522 Q667 585 750 674 L338 674 L323 658 ZM853 707 Q769 581 587 494 Q733 446 956 431 Q933 405 919 371 Q674 392 509 460 Q328 389 76 358 Q68 391 49 417 Q259 436 436 495 Q339 548 280 620 Q206 561 138 523 Q119 555 96 571 Q292 676 387 837 L457 823 Q425 772 390 732 L801 732 L813 735 L853 707 Z" /><glyph glyph-name="" unicode="&#x52a8;" d="M477 693 L95 693 L95 753 L477 753 L477 693 ZM450 65 Q437 115 431 134 Q115 64 93 50 Q83 86 70 113 Q87 116 115 182 Q162 286 199 453 L58 453 L58 515 L495 515 L495 453 L267 453 Q228 290 162 138 L412 190 Q379 283 351 349 L406 364 Q473 210 509 85 L450 65 ZM941 569 Q923 29 880 -26 Q853 -57 810 -61 Q750 -65 671 -59 Q669 -24 650 6 Q709 0 783 0 Q810 0 822 15 Q859 56 874 540 L717 540 Q694 96 514 -75 Q490 -43 462 -28 Q630 126 653 540 L508 540 L508 604 L656 604 Q659 711 659 819 L724 819 Q724 699 720 604 L941 604 L941 569 Z" /><glyph glyph-name="" unicode="&#x52a9;" d="M171 116 L369 158 L369 298 L171 298 L171 116 ZM171 725 L171 570 L369 570 L369 725 L171 725 ZM369 510 L171 510 L171 357 L369 357 L369 510 ZM494 124 L51 22 L39 89 L111 104 L111 786 L432 786 L432 171 L489 184 L494 124 ZM925 573 Q911 20 871 -33 Q848 -64 801 -68 Q764 -72 664 -66 Q662 -29 644 -3 Q717 -8 776 -8 Q802 -8 814 7 Q848 46 860 544 L696 544 Q683 324 630 185 Q564 14 422 -78 Q402 -45 372 -29 Q507 54 569 211 Q619 338 631 544 L466 544 L466 607 L634 607 Q637 682 637 835 L702 835 Q702 682 699 607 L925 607 L925 573 Z" /><glyph glyph-name="" unicode="&#x52b1;" d="M167 416 Q167 82 89 -71 Q66 -50 35 -40 Q106 101 106 415 L106 778 L569 778 L569 717 L167 717 L167 416 ZM517 388 Q500 13 468 -25 Q449 -50 413 -52 Q387 -56 317 -52 Q315 -19 302 4 Q358 -2 388 0 Q408 -1 418 12 Q444 44 456 358 L336 358 Q312 44 192 -82 Q176 -55 146 -38 Q273 92 282 543 L172 543 L172 603 L536 603 L536 543 L343 543 Q343 499 339 417 L517 417 L517 388 ZM928 552 Q914 10 877 -40 Q854 -71 813 -75 Q787 -78 697 -74 Q695 -38 679 -12 Q726 -16 788 -16 Q809 -17 822 -2 Q853 39 865 524 L737 524 Q716 86 552 -78 Q534 -53 502 -35 Q657 116 676 524 L562 524 L562 586 L678 586 Q681 661 681 819 L743 819 Q743 699 740 586 L928 586 L928 552 Z" /><glyph glyph-name="" unicode="&#x52b3;" d="M846 325 L844 293 Q828 3 790 -36 Q766 -62 716 -65 Q659 -68 552 -62 Q548 -27 528 3 Q598 -4 690 -4 Q723 -4 733 6 Q761 32 775 262 L473 262 Q444 129 363 53 Q273 -31 90 -73 Q80 -44 53 -15 Q219 19 302 89 Q376 151 403 262 L138 262 L138 325 L415 325 Q421 366 427 449 L496 449 Q492 383 484 325 L846 325 ZM84 542 L913 542 L913 376 L846 376 L846 482 L148 482 L148 371 L84 371 L84 542 ZM940 739 L940 676 L707 676 L707 589 L640 589 L640 676 L359 676 L359 589 L290 589 L290 676 L62 676 L62 739 L290 739 L290 835 L359 835 L359 739 L640 739 L640 835 L707 835 L707 739 L940 739 Z" /><glyph glyph-name="" unicode="&#x52bf;" d="M54 547 Q158 563 221 574 L221 676 L68 676 L68 736 L221 736 L221 835 L282 835 L282 736 L414 736 L414 676 L282 676 L282 584 L418 609 L421 550 L282 524 L282 416 Q282 368 251 356 Q224 345 122 345 Q118 368 102 402 Q149 401 204 401 Q221 401 221 416 L221 513 L68 485 L54 547 ZM835 736 Q831 554 837 491 Q846 410 878 410 Q902 410 906 499 Q929 479 957 474 Q951 403 933 377 Q916 351 876 351 Q808 351 787 439 Q771 502 773 679 L643 679 Q634 600 613 538 Q701 482 745 445 L708 393 Q676 423 589 482 Q542 398 442 351 L499 351 Q492 307 485 278 L858 278 Q857 257 855 248 Q831 5 787 -36 Q763 -60 711 -63 Q667 -66 557 -59 Q553 -23 535 1 Q614 -5 690 -5 Q721 -5 732 4 Q764 32 786 219 L469 219 Q395 -8 85 -76 Q74 -44 49 -19 Q327 36 399 219 L96 219 L96 278 L417 278 Q424 307 431 351 Q417 376 395 394 Q495 437 537 517 Q479 555 433 581 L468 626 Q497 610 559 572 Q573 611 581 679 L436 679 L436 736 L586 736 Q588 768 590 836 L652 836 Q650 768 648 736 L835 736 Z" /><glyph glyph-name="" unicode="&#x52fe;" d="M676 97 Q667 117 638 171 Q196 120 168 108 Q158 145 143 177 Q169 182 210 245 Q301 359 380 552 L452 526 Q353 322 252 191 L607 229 Q570 296 506 397 L559 425 Q685 232 732 131 L676 97 ZM921 685 L920 647 Q896 41 840 -24 Q809 -62 747 -66 Q696 -70 559 -62 Q555 -23 532 8 Q619 1 728 1 Q762 0 777 15 Q829 62 850 620 L277 620 Q199 467 108 359 Q68 390 47 402 Q199 563 296 834 L364 815 Q337 746 309 685 L921 685 Z" /><glyph glyph-name="" unicode="&#x5305;" d="M269 637 Q190 524 95 446 Q55 483 40 494 Q214 623 306 841 L373 822 Q345 761 310 701 L869 701 Q869 677 868 668 Q854 227 819 181 Q798 155 757 150 Q711 146 641 151 Q637 190 623 214 Q668 210 726 210 Q749 210 760 223 Q788 258 800 637 L269 637 ZM264 468 L264 298 L538 298 L538 468 L264 468 ZM782 9 Q845 9 866 34 Q885 57 893 137 Q919 119 956 113 Q946 13 914 -19 Q880 -54 782 -54 L395 -54 Q280 -54 240 -28 Q198 -1 198 77 L198 528 L602 528 L602 237 L264 237 L264 77 Q264 36 287 23 Q311 9 390 9 L782 9 Z" /><glyph glyph-name="" unicode="&#x5316;" d="M384 815 Q342 712 284 618 L284 -76 L215 -76 L215 515 Q152 428 92 372 Q70 410 48 434 Q222 592 320 835 L384 815 ZM822 9 Q861 9 874 52 Q886 90 892 224 Q924 201 957 191 Q949 46 926 -2 Q899 -57 825 -57 L643 -57 Q571 -57 545 -29 Q519 -1 519 77 L519 262 Q451 216 377 178 Q355 206 328 228 Q422 274 519 342 L519 817 L589 817 L589 394 Q765 532 868 689 L932 647 Q804 467 589 310 L589 75 Q589 34 601 21 Q612 9 649 9 L822 9 Z" /><glyph glyph-name="" unicode="&#x5339;" d="M936 52 L936 -11 L100 -11 L100 769 L923 769 L923 705 L679 705 L679 280 Q679 256 686 250 Q693 243 716 243 L822 243 Q846 243 853 271 Q859 298 862 401 Q887 382 922 373 Q917 258 899 220 Q880 181 828 181 L709 181 Q653 181 634 201 Q615 222 615 280 L615 705 L437 705 Q432 463 401 353 Q361 207 248 136 Q230 167 205 186 Q307 249 342 382 Q368 479 372 705 L165 705 L165 52 L936 52 Z" /><glyph glyph-name="" unicode="&#x533a;" d="M948 19 L948 -45 L102 -45 L102 779 L924 779 L924 715 L168 715 L168 19 L948 19 ZM771 93 Q705 177 555 324 Q427 190 282 93 Q255 125 229 143 Q376 232 509 368 Q397 475 260 589 L307 627 Q429 529 553 415 Q660 536 732 664 L794 640 Q708 495 599 372 Q747 234 825 140 L771 93 Z" /><glyph glyph-name="" unicode="&#x533f;" d="M947 17 L947 -47 L100 -47 L100 779 L926 779 L926 716 L166 716 L166 17 L947 17 ZM444 132 L740 132 L740 256 L444 256 L444 132 ZM495 390 Q461 336 438 308 L804 308 L804 81 L382 81 L382 247 Q320 187 254 148 Q234 174 208 193 Q343 266 425 390 L223 390 L223 444 L458 444 Q478 484 493 526 L553 512 Q537 472 524 444 L898 444 L898 390 L495 390 ZM458 686 L458 619 L648 619 L648 686 L709 686 L709 619 L874 619 L874 565 L709 565 L709 502 L648 502 L648 565 L458 565 L458 502 L398 502 L398 565 L237 565 L237 619 L398 619 L398 686 L458 686 Z" /><glyph glyph-name="" unicode="&#x2f17;&#x5341;" d="M948 394 L536 394 L536 -75 L466 -75 L466 394 L58 394 L58 462 L466 462 L466 834 L536 834 L536 462 L948 462 L948 394 Z" /><glyph glyph-name="" unicode="&#x5343;" d="M946 378 L533 378 L533 -76 L463 -76 L463 378 L56 378 L56 443 L463 443 L463 689 Q328 669 128 650 Q125 677 110 708 Q582 753 796 821 L847 766 Q713 727 533 700 L533 443 L946 443 L946 378 Z" /><glyph glyph-name="" unicode="&#x5347;" d="M947 369 L729 369 L729 -76 L662 -76 L662 369 L347 369 Q341 223 294 127 Q234 3 92 -78 Q72 -48 45 -28 Q268 97 281 369 L55 369 L55 433 L282 433 L282 663 Q181 635 87 613 Q82 639 64 667 Q364 735 499 818 L550 764 Q465 720 348 683 L348 433 L662 433 L662 815 L729 815 L729 433 L947 433 L947 369 Z" /><glyph glyph-name="" unicode="&#x534a;" d="M852 785 Q776 642 715 558 L657 581 Q726 675 783 811 L852 785 ZM270 558 Q236 659 153 783 L212 808 Q297 686 333 586 L270 558 ZM945 212 L532 212 L532 -74 L463 -74 L463 212 L57 212 L57 278 L463 278 L463 446 L123 446 L123 511 L463 511 L463 835 L532 835 L532 511 L886 511 L886 446 L532 446 L532 278 L945 278 L945 212 Z" /><glyph glyph-name="" unicode="&#x5355;" d="M464 324 L464 439 L217 439 L217 324 L464 324 ZM217 493 L464 493 L464 606 L217 606 L217 493 ZM790 606 L532 606 L532 493 L790 493 L790 606 ZM790 439 L532 439 L532 324 L790 324 L790 439 ZM945 105 L532 105 L532 -75 L464 -75 L464 105 L58 105 L58 168 L464 168 L464 267 L153 267 L153 663 L340 663 Q299 738 242 804 L296 831 Q374 747 404 683 L367 663 L611 663 Q674 748 713 832 L783 807 Q728 719 685 663 L857 663 L857 267 L532 267 L532 168 L945 168 L945 105 Z" /><glyph glyph-name="" unicode="&#x535a;" d="M675 561 L675 499 L838 499 L838 561 L675 561 ZM838 391 L838 453 L675 453 L675 391 L838 391 ZM614 391 L614 453 L450 453 L450 391 L614 391 ZM450 561 L450 499 L614 499 L614 561 L450 561 ZM614 670 L340 670 L340 725 L614 725 L614 835 L675 835 L675 725 L865 725 Q819 750 731 795 L759 834 Q851 792 902 765 L876 725 L947 725 L947 670 L675 670 L675 610 L898 610 L898 277 L838 277 L838 345 L675 345 L675 280 L614 280 L614 345 L450 345 L450 271 L391 271 L391 610 L614 610 L614 670 ZM235 508 L235 -75 L170 -75 L170 508 L45 508 L45 570 L170 570 L170 835 L235 835 L235 570 L345 570 L345 508 L235 508 ZM457 150 Q556 74 600 33 L560 -12 Q504 44 418 112 L457 150 ZM956 163 L811 163 L811 -3 Q811 -51 777 -64 Q749 -73 635 -73 Q630 -47 616 -18 Q708 -20 731 -18 Q748 -18 748 -2 L748 163 L315 163 L315 221 L748 221 L748 280 L811 280 L811 221 L956 221 L956 163 Z" /><glyph glyph-name="" unicode="&#x5361;" d="M571 288 Q781 208 899 149 L863 90 Q731 161 536 237 L571 288 ZM945 466 L945 400 L516 400 L516 -76 L447 -76 L447 400 L56 400 L56 466 L445 466 L445 836 L514 836 L514 690 L843 690 L843 626 L514 626 L514 466 L945 466 Z" /><glyph glyph-name="" unicode="&#x5373;" d="M180 722 L180 584 L422 584 L422 722 L180 722 ZM422 377 L422 524 L180 524 L180 377 L422 377 ZM374 261 Q472 109 514 7 L455 -26 Q437 21 407 77 Q125 -25 100 -44 Q89 -4 72 23 Q113 44 113 86 L113 782 L488 782 L488 317 L180 317 L180 62 L379 129 Q360 166 319 235 L374 261 ZM909 204 Q909 149 874 134 Q843 121 728 123 Q721 161 708 186 Q796 183 824 185 Q843 185 843 204 L843 714 L651 714 L651 -76 L585 -76 L585 776 L909 776 L909 204 Z" /><glyph glyph-name="" unicode="&#x5374;" d="M422 303 Q513 138 540 32 L483 5 Q480 18 457 88 Q139 32 108 16 Q101 48 87 78 Q107 83 139 137 Q209 253 252 382 L63 382 L63 446 L274 446 L274 615 L96 615 L96 678 L274 678 L274 836 L339 836 L339 678 L500 678 L500 615 L339 615 L339 446 L525 446 L525 382 L325 382 Q267 232 185 101 L435 143 Q400 225 370 280 L422 303 ZM913 169 Q913 111 879 97 Q847 82 737 82 Q731 120 715 151 Q790 148 831 151 Q849 151 849 170 L849 713 L656 713 L656 -75 L593 -75 L593 776 L913 776 L913 169 Z" /><glyph glyph-name="" unicode="&#x538b;" d="M601 31 L949 31 L949 -33 L194 -33 L194 31 L534 31 L534 383 L259 383 L259 446 L534 446 L534 665 L601 665 L601 446 L899 446 L899 383 L601 383 L601 31 ZM732 305 Q829 222 875 153 L823 115 Q776 193 684 271 L732 305 ZM951 723 L184 723 L184 467 Q184 102 92 -76 Q70 -54 38 -39 Q120 120 120 467 L120 787 L951 787 L951 723 Z" /><glyph glyph-name="" unicode="&#x538c;" d="M202 709 L202 475 Q202 106 95 -73 Q70 -50 37 -37 Q136 126 136 475 L136 773 L935 773 L935 709 L202 709 ZM734 644 Q822 586 866 532 L816 497 Q773 552 687 614 L734 644 ZM622 398 Q734 91 958 -18 Q942 -30 913 -72 Q702 43 583 333 Q507 38 247 -78 Q228 -47 203 -28 Q469 84 531 398 L247 398 L247 460 L541 460 Q550 529 556 669 L624 669 Q618 540 607 460 L929 460 L929 398 L622 398 Z" /><glyph glyph-name="" unicode="&#x539f;" d="M436 178 Q348 54 259 -32 Q238 -16 203 6 Q298 87 375 199 L436 178 ZM361 306 L791 306 L791 404 L361 404 L361 306 ZM361 455 L791 455 L791 553 L361 553 L361 455 ZM607 252 L607 0 Q607 -51 572 -64 Q546 -74 416 -74 Q411 -48 395 -15 Q491 -18 523 -16 Q543 -16 543 1 L543 252 L297 252 L297 607 L495 607 Q515 645 534 703 L611 691 L566 607 L858 607 L858 252 L607 252 ZM751 197 Q871 75 933 -2 L878 -38 Q819 42 698 169 L751 197 ZM939 716 L202 716 L202 497 Q202 126 96 -56 Q72 -34 40 -22 Q137 147 137 497 L137 778 L939 778 L939 716 Z" /><glyph glyph-name="" unicode="&#x53bb;" d="M460 347 Q353 170 236 43 L748 80 Q676 184 607 260 L665 287 Q820 118 900 -30 L837 -65 Q821 -33 786 23 Q183 -25 147 -39 Q143 -8 125 27 Q149 30 198 91 Q279 175 378 347 L56 347 L56 414 L465 414 L465 609 L134 609 L134 675 L465 675 L465 836 L534 836 L534 675 L872 675 L872 609 L534 609 L534 414 L947 414 L947 347 L460 347 Z" /><glyph glyph-name="" unicode="&#x53c2;" d="M824 147 Q653 -23 214 -78 Q203 -46 182 -20 Q610 25 764 177 L824 147 ZM694 257 Q553 146 280 86 Q259 122 242 136 Q509 188 638 285 L694 257 ZM605 373 Q490 287 300 233 Q270 269 258 279 Q453 330 551 401 L605 373 ZM680 454 Q794 321 960 260 Q937 240 915 206 Q723 290 604 454 L401 454 Q286 293 95 199 Q75 225 45 251 Q212 323 318 454 L57 454 L57 514 L361 514 Q391 559 413 613 Q215 603 182 593 Q176 619 163 656 Q188 659 233 687 Q335 741 434 839 L494 805 Q401 724 303 666 L705 682 Q638 734 582 769 L633 804 Q803 701 888 605 L835 565 Q819 584 769 630 L478 616 L487 614 Q469 568 439 514 L945 514 L945 454 L680 454 Z" /><glyph glyph-name="" unicode="&#x2f1c;&#x53c8;" d="M246 695 Q333 426 502 251 Q689 429 770 695 L246 695 ZM851 744 Q769 420 550 206 Q722 52 963 -7 Q941 -26 919 -66 Q670 1 499 160 Q325 12 83 -67 Q69 -30 42 -8 Q284 66 452 206 Q276 391 180 695 L100 695 L100 761 L795 761 L808 765 L851 744 Z" /><glyph glyph-name="" unicode="&#x53ca;" d="M340 664 Q424 329 621 159 Q763 287 822 476 L560 476 Q595 585 624 715 L340 715 L340 664 ZM904 523 Q845 273 674 117 Q797 31 958 -7 Q935 -30 913 -68 Q746 -25 618 72 Q493 -22 315 -74 Q300 -39 277 -15 Q441 26 566 116 Q420 251 335 483 Q306 147 88 -60 Q75 -35 40 -5 Q271 213 271 629 L271 715 L93 715 L93 781 L705 781 Q682 677 648 539 L849 539 L861 542 L904 523 Z" /><glyph glyph-name="" unicode="&#x53cc;" d="M409 53 Q378 124 315 223 Q229 36 89 -75 Q64 -38 41 -23 Q179 77 272 289 Q165 446 81 547 L130 584 Q225 470 301 362 Q355 514 379 694 L69 694 L69 757 L396 757 L407 760 L450 748 Q422 489 347 296 Q426 180 465 97 L409 53 ZM585 694 Q621 444 699 273 Q803 451 841 694 L585 694 ZM914 748 Q874 421 736 202 Q824 50 959 -22 Q932 -44 911 -79 Q780 -2 694 141 Q591 4 448 -75 Q428 -39 403 -19 Q554 57 658 208 Q567 397 522 694 L495 694 L495 757 L860 757 L871 760 L914 748 Z" /><glyph glyph-name="" unicode="&#x53cd;" d="M380 465 Q442 290 565 176 Q696 293 757 465 L380 465 ZM843 513 Q781 285 617 132 Q748 33 931 -8 Q909 -29 889 -66 Q698 -19 566 88 Q430 -18 251 -71 Q237 -38 212 -11 Q385 34 514 134 Q385 259 314 465 L243 465 Q241 102 117 -80 Q98 -58 60 -40 Q175 129 175 485 L175 750 Q608 771 802 826 L855 773 Q654 716 243 693 L243 529 L785 529 L798 532 L843 513 Z" /><glyph glyph-name="" unicode="&#x53d1;" d="M802 639 Q772 681 674 788 L724 819 Q814 729 854 676 L802 639 ZM421 368 Q480 240 587 150 Q694 244 746 368 L421 368 ZM835 413 Q775 232 640 110 Q777 15 959 -20 Q937 -40 918 -79 Q725 -34 588 68 Q457 -28 278 -78 Q266 -49 243 -22 Q405 18 537 111 Q443 198 381 317 Q273 120 85 3 Q65 34 36 53 Q294 212 396 542 L255 542 Q163 542 150 526 Q132 580 127 590 Q144 594 162 629 Q204 699 228 806 L300 793 Q268 690 226 607 L414 607 Q443 717 456 839 L530 827 Q512 703 489 607 L926 607 L925 542 L471 542 Q453 479 434 432 L778 432 L790 435 L835 413 Z" /><glyph glyph-name="" unicode="&#x53d6;" d="M184 148 L362 177 L362 313 L184 313 L184 148 ZM184 727 L184 581 L362 581 L362 727 L184 727 ZM184 372 L362 372 L362 522 L184 522 L184 372 ZM427 129 L427 -74 L362 -74 L362 117 L58 63 L43 128 L120 139 L120 727 L51 727 L51 787 L502 787 L502 727 L427 727 L427 188 L513 202 L516 145 L427 129 ZM617 659 Q656 415 728 261 Q820 439 854 659 L617 659 ZM924 713 Q883 404 763 193 Q841 55 962 -16 Q936 -36 916 -68 Q804 3 725 132 Q639 4 524 -76 Q508 -49 481 -26 Q600 50 690 195 Q603 370 556 659 L505 659 L505 721 L871 721 L883 724 L924 713 Z" /><glyph glyph-name="" unicode="&#x53d7;" d="M864 785 Q601 728 103 707 Q102 724 87 764 Q577 785 817 838 L864 785 ZM485 557 Q475 624 434 707 L493 720 Q535 642 548 572 L485 557 ZM226 702 Q280 626 299 568 L240 548 Q220 611 169 686 L226 702 ZM140 347 L77 347 L77 548 L680 548 Q741 640 777 722 L843 701 Q800 622 747 548 L924 548 L924 347 L859 347 L859 489 L140 489 L140 347 ZM301 307 Q372 202 503 125 Q634 200 702 307 L301 307 ZM801 344 Q728 193 567 90 Q728 14 943 -12 Q920 -39 902 -74 Q669 -40 502 53 Q334 -34 95 -74 Q80 -40 57 -15 Q278 15 438 91 Q307 178 229 305 L234 307 L193 307 L193 369 L745 369 L758 372 L801 344 Z" /><glyph glyph-name="" unicode="&#x53d8;" d="M353 673 L74 673 L74 733 L489 733 Q468 780 437 828 L499 844 Q546 775 562 733 L927 733 L927 673 L645 673 L645 367 L579 367 L579 673 L420 673 L420 366 L353 366 L353 673 ZM743 621 Q853 523 914 430 L862 396 Q797 495 693 594 L743 621 ZM291 612 Q240 490 148 398 Q120 422 95 434 Q183 511 231 628 L291 612 ZM289 278 Q365 179 500 107 Q641 179 716 278 L289 278 ZM816 311 Q737 173 566 75 Q732 5 951 -20 Q927 -44 914 -78 Q667 -45 499 41 Q333 -37 90 -78 Q79 -46 57 -19 Q272 10 434 77 Q301 156 218 278 L137 278 L137 338 L762 338 L773 341 L816 311 Z" /><glyph glyph-name="" unicode="&#x53d9;" d="M198 253 Q159 111 96 17 Q65 38 45 47 Q104 129 140 266 L198 253 ZM331 327 L331 1 Q331 -50 300 -63 Q273 -75 178 -75 Q173 -46 157 -14 Q202 -15 253 -15 Q269 -14 269 1 L269 327 L63 327 L63 387 L269 387 L269 507 L134 507 L134 549 Q92 516 66 498 Q57 525 34 562 Q210 674 301 833 L359 812 Q352 799 336 773 Q456 692 535 614 L496 564 Q428 635 302 726 Q243 645 154 566 L478 566 L478 507 L331 507 L331 387 L531 387 L531 327 L331 327 ZM472 58 Q449 150 394 254 L449 273 Q508 161 529 81 L472 58 ZM606 684 Q645 412 726 245 Q825 423 859 684 L606 684 ZM929 740 Q893 393 762 176 Q840 46 953 -19 Q925 -44 905 -73 Q798 -4 722 115 Q634 -6 506 -81 Q493 -53 464 -28 Q593 40 687 179 Q590 365 545 683 L551 684 L520 684 L520 747 L876 747 L888 750 L929 740 Z" /><glyph glyph-name="" unicode="&#x2f1d;&#x53e3;" d="M800 103 L800 663 L201 663 L201 103 L800 103 ZM871 730 L871 -45 L800 -45 L800 36 L201 36 L201 -50 L133 -50 L133 730 L871 730 Z" /><glyph glyph-name="" unicode="&#x53e5;&#xf906;" d="M298 416 L298 180 L555 180 L555 416 L298 416 ZM298 120 L298 47 L234 47 L234 476 L621 476 L621 120 L298 120 ZM913 688 Q913 660 912 651 Q891 26 837 -37 Q809 -72 752 -78 Q698 -82 579 -75 Q575 -37 555 -6 Q632 -12 729 -12 Q761 -14 776 3 Q825 54 843 622 L280 622 Q199 461 100 358 Q81 377 43 403 Q206 557 293 835 L361 818 Q339 753 311 688 L913 688 Z" /><glyph glyph-name="" unicode="&#x53e6;" d="M769 725 L229 725 L229 540 L769 540 L769 725 ZM838 476 L163 476 L163 788 L838 788 L838 476 ZM876 297 Q856 3 816 -38 Q791 -64 741 -67 Q689 -70 588 -64 Q586 -31 566 1 Q641 -6 716 -6 Q745 -6 757 5 Q788 31 806 268 L488 268 Q451 138 368 60 Q270 -32 89 -77 Q79 -47 52 -18 Q349 50 417 268 L100 268 L100 328 L431 328 Q440 371 447 437 L518 437 Q511 374 502 328 L879 328 L876 297 Z" /><glyph glyph-name="" unicode="&#x53ea;" d="M652 220 Q851 69 940 -36 L880 -77 Q791 35 596 186 L652 220 ZM407 192 Q291 35 104 -79 Q85 -58 52 -32 Q244 78 338 217 L407 192 ZM230 378 L769 378 L769 697 L230 697 L230 378 ZM839 760 L839 314 L163 314 L163 760 L839 760 Z" /><glyph glyph-name="" unicode="&#x53ef;" d="M228 482 L228 240 L503 240 L503 482 L228 482 ZM228 177 L228 97 L164 97 L164 545 L568 545 L568 177 L228 177 ZM944 697 L820 697 L820 23 Q820 -46 771 -62 Q732 -74 567 -74 Q560 -46 538 -2 Q646 -7 724 -4 Q752 -3 752 24 L752 697 L60 697 L60 764 L944 764 L944 697 Z" /><glyph glyph-name="" unicode="&#x53f0;" d="M251 276 L251 44 L746 44 L746 276 L251 276 ZM184 340 L816 340 L816 -73 L746 -73 L746 -20 L251 -20 L251 -75 L184 -75 L184 340 ZM654 718 Q839 558 920 428 L863 388 Q836 431 800 476 Q159 440 127 427 Q122 454 106 492 Q132 498 187 552 Q317 675 421 837 L486 807 Q352 625 222 507 L752 533 Q681 613 602 684 L654 718 Z" /><glyph glyph-name="" unicode="&#x53f3;" d="M337 319 L337 44 L793 44 L793 319 L337 319 ZM413 582 Q370 471 317 383 L862 383 L862 -72 L793 -72 L793 -20 L337 -20 L337 -77 L271 -77 L271 313 Q188 199 80 121 Q65 145 36 174 Q233 309 342 582 L68 582 L68 647 L365 647 Q398 740 417 836 L486 822 Q462 722 436 647 L936 647 L936 582 L413 582 Z" /><glyph glyph-name="" unicode="&#x53f7;" d="M742 734 L255 734 L255 591 L742 591 L742 734 ZM811 532 L189 532 L189 794 L811 794 L811 532 ZM349 376 Q317 281 309 259 L811 259 Q809 237 807 228 Q771 -5 720 -48 Q695 -71 638 -74 Q570 -76 471 -69 Q467 -35 448 -6 Q529 -14 619 -14 Q654 -14 666 -5 Q706 26 732 198 L211 198 Q242 273 276 376 L67 376 L67 437 L930 437 L930 376 L349 376 Z" /><glyph glyph-name="" unicode="&#x5404;" d="M272 216 L272 27 L722 27 L722 216 L272 216 ZM205 277 L791 277 L791 -77 L722 -77 L722 -33 L272 -33 L272 -81 L205 -81 L205 277 ZM317 659 Q393 570 505 499 Q634 580 705 670 L327 670 L317 659 ZM812 702 Q730 573 564 463 Q750 360 963 316 Q943 297 920 256 Q696 308 505 426 Q311 312 66 252 Q56 283 33 312 Q253 358 446 465 Q347 534 275 617 Q199 545 112 490 Q82 522 61 538 Q268 655 378 843 L440 821 Q413 774 377 729 L755 729 L766 733 L812 702 Z" /><glyph glyph-name="" unicode="&#x5408;" d="M267 262 L267 47 L743 47 L743 262 L267 262 ZM200 322 L813 322 L813 -70 L743 -70 L743 -16 L267 -16 L267 -74 L200 -74 L200 322 ZM576 808 Q567 791 544 763 Q692 603 964 483 Q937 461 918 425 Q658 550 506 715 Q405 599 265 509 L752 509 L752 447 L250 447 L250 499 Q169 450 92 417 Q65 456 45 474 Q363 598 518 837 L576 808 Z" /><glyph glyph-name="" unicode="&#x540c;" d="M362 385 L362 186 L638 186 L638 385 L362 385 ZM362 129 L362 55 L300 55 L300 442 L700 442 L700 129 L362 129 ZM756 551 L249 551 L249 609 L756 609 L756 551 ZM910 11 Q910 -48 870 -64 Q838 -77 705 -77 Q697 -39 680 -12 Q783 -15 820 -13 Q845 -12 845 11 L845 720 L157 720 L157 -78 L92 -78 L92 783 L910 783 L910 11 Z" /><glyph glyph-name="" unicode="&#x540d;" d="M778 40 L778 275 L322 275 L322 40 L778 40 ZM845 -75 L778 -75 L778 -21 L322 -21 L322 -75 L256 -75 L256 259 Q165 227 87 209 Q78 241 53 270 Q255 312 429 407 Q360 472 271 533 L321 571 Q416 507 489 442 Q654 543 742 674 L363 674 Q260 574 123 502 Q104 531 77 552 Q302 661 412 838 L486 823 Q455 775 420 735 L784 735 L796 739 L840 711 Q721 484 434 336 L845 336 L845 -75 Z" /><glyph glyph-name="" unicode="&#x540e;" d="M379 285 L379 38 L806 38 L806 285 L379 285 ZM312 348 L875 348 L875 -76 L806 -76 L806 -24 L379 -24 L379 -77 L312 -77 L312 348 ZM949 559 L949 495 L223 495 L223 489 Q223 109 92 -78 Q71 -51 37 -32 Q155 137 155 489 L155 745 Q614 774 823 826 L879 772 Q648 718 223 690 L223 559 L949 559 Z" /><glyph glyph-name="" unicode="&#x5411;" d="M367 400 L367 193 L633 193 L633 400 L367 400 ZM367 133 L367 61 L306 61 L306 460 L695 460 L695 133 L367 133 ZM902 17 Q902 -48 858 -64 Q820 -75 671 -75 Q662 -34 646 -7 Q747 -11 811 -8 Q836 -8 836 17 L836 598 L169 598 L169 -75 L103 -75 L103 663 L378 663 Q416 750 443 838 L524 824 Q475 711 450 663 L902 663 L902 17 Z" /><glyph glyph-name="" unicode="&#x5413;" d="M124 686 L124 251 L277 251 L277 686 L124 686 ZM341 185 L124 185 L124 87 L61 87 L61 751 L341 751 L341 185 ZM710 552 Q854 445 928 368 L879 321 Q799 408 664 510 L710 552 ZM946 783 L946 719 L659 719 L659 -71 L592 -71 L592 719 L365 719 L365 783 L946 783 Z" /><glyph glyph-name="" unicode="&#x5417;" d="M140 678 L140 251 L274 251 L274 678 L140 678 ZM334 189 L140 189 L140 93 L79 93 L79 739 L334 739 L334 189 ZM789 143 L383 143 L383 204 L789 204 L789 143 ZM935 399 Q934 377 933 368 Q903 11 852 -41 Q827 -68 785 -69 Q740 -73 667 -68 Q663 -30 648 -7 Q697 -12 761 -12 Q787 -13 799 -1 Q841 41 868 340 L451 340 L451 341 L434 341 Q455 478 467 647 L528 643 Q520 528 503 399 L747 399 Q765 541 781 714 L419 714 L419 775 L792 775 L803 778 L850 773 Q839 639 810 399 L935 399 Z" /><glyph glyph-name="" unicode="&#x5426;" d="M466 579 Q306 454 87 370 Q67 406 41 430 Q349 531 520 715 L69 715 L69 777 L932 777 L932 715 L609 715 Q570 669 533 635 L533 325 L466 325 L466 579 ZM248 238 L248 34 L756 34 L756 238 L248 238 ZM181 297 L827 297 L827 -73 L756 -73 L756 -25 L248 -25 L248 -76 L181 -76 L181 297 ZM626 613 Q820 533 954 432 L907 382 Q774 488 579 569 L626 613 Z" /><glyph glyph-name="" unicode="&#x542b;" d="M748 200 L250 200 L250 34 L748 34 L748 200 ZM791 434 Q749 384 633 259 L817 259 L817 -73 L748 -73 L748 -25 L250 -25 L250 -74 L184 -74 L184 259 L547 259 Q623 338 674 395 L189 395 L189 455 L731 455 L743 459 L791 434 ZM447 622 Q551 565 606 515 L558 476 Q501 530 401 585 L447 622 ZM564 810 Q548 786 539 775 Q696 596 964 521 Q941 499 918 462 Q670 544 504 732 Q342 549 86 455 Q69 487 41 514 Q361 619 503 839 L564 810 Z" /><glyph glyph-name="" unicode="&#x542c;" d="M144 679 L144 232 L284 232 L284 679 L144 679 ZM349 167 L144 167 L144 91 L81 91 L81 744 L349 744 L349 167 ZM947 447 L814 447 L814 -74 L747 -74 L747 447 L542 447 Q538 99 411 -72 Q390 -48 355 -29 Q474 131 474 470 L474 731 Q724 778 842 830 L900 778 Q773 729 542 685 L542 512 L947 512 L947 447 Z" /><glyph glyph-name="" unicode="&#x542f;" d="M225 630 L225 483 L797 483 L797 630 L225 630 ZM225 421 Q218 90 94 -78 Q69 -47 40 -32 Q158 127 158 454 L158 692 L502 692 Q484 744 440 818 L502 836 Q547 767 570 706 L530 692 L863 692 L863 421 L225 421 ZM812 56 L812 247 L339 247 L339 56 L812 56 ZM879 309 L879 -70 L812 -70 L812 -5 L339 -5 L339 -72 L274 -72 L274 309 L879 309 Z" /><glyph glyph-name="" unicode="&#x544a;" d="M255 236 L255 34 L752 34 L752 236 L255 236 ZM189 298 L820 298 L820 -85 L752 -85 L752 -28 L255 -28 L255 -86 L189 -86 L189 298 ZM940 463 L940 401 L64 401 L64 463 L487 463 L487 628 L236 628 Q193 552 139 490 Q113 508 79 526 Q188 634 255 825 L321 810 Q303 760 270 690 L487 690 L487 836 L556 836 L556 690 L864 690 L864 628 L556 628 L556 463 L940 463 Z" /><glyph glyph-name="" unicode="&#x5462;" d="M137 679 L137 232 L263 232 L263 679 L137 679 ZM137 167 L137 91 L76 91 L76 744 L322 744 L322 167 L137 167 ZM474 728 L474 575 L846 575 L846 728 L474 728 ZM474 515 L474 447 Q474 91 336 -67 Q317 -48 283 -32 Q412 116 412 447 L412 788 L909 788 L909 515 L474 515 ZM838 -3 Q867 -3 876 22 Q885 47 888 137 Q911 119 947 111 Q941 7 921 -27 Q900 -63 842 -63 L673 -63 Q608 -63 586 -42 Q563 -22 563 38 L563 477 L626 477 L626 263 Q795 341 876 411 L927 365 Q830 293 626 205 L626 39 Q626 13 636 5 Q645 -3 678 -3 L838 -3 Z" /><glyph glyph-name="" unicode="&#x5468;" d="M470 456 L470 560 L287 560 L287 615 L470 615 L470 704 L534 704 L534 615 L727 615 L727 560 L534 560 L534 456 L753 456 L753 401 L262 401 L262 456 L470 456 ZM375 258 L375 107 L637 107 L637 258 L375 258 ZM375 54 L375 -2 L313 -2 L313 312 L700 312 L700 54 L375 54 ZM874 13 Q874 -48 832 -63 Q799 -75 659 -75 Q653 -42 636 -12 Q733 -15 782 -12 Q808 -12 808 12 L808 725 L219 725 L219 470 Q219 96 90 -82 Q68 -53 38 -39 Q154 123 154 470 L154 787 L874 787 L874 13 Z" /><glyph glyph-name="" unicode="&#x5473;" d="M139 679 L139 232 L271 232 L271 679 L139 679 ZM139 167 L139 91 L77 91 L77 744 L332 744 L332 167 L139 167 ZM711 365 Q809 141 957 38 Q930 16 907 -16 Q780 88 682 299 L682 -75 L616 -75 L616 296 Q510 80 353 -18 Q337 9 308 34 Q480 129 587 365 L370 365 L370 428 L616 428 L616 605 L410 605 L410 668 L616 668 L616 831 L682 831 L682 668 L902 668 L902 605 L682 605 L682 428 L946 428 L946 365 L711 365 Z" /><glyph glyph-name="" unicode="&#x547d;" d="M194 365 L194 147 L369 147 L369 365 L194 365 ZM432 87 L194 87 L194 2 L133 2 L133 424 L432 424 L432 87 ZM692 511 L299 511 L299 572 L692 572 L692 511 ZM872 143 Q872 89 838 75 Q811 64 686 64 Q683 87 667 126 Q697 125 789 125 Q808 126 808 144 L808 365 L607 365 L607 -76 L542 -76 L542 425 L872 425 L872 143 ZM558 808 Q553 800 541 786 Q696 606 962 537 Q935 513 913 473 Q666 551 503 741 Q331 553 78 468 Q61 506 40 533 Q177 570 306 658 Q435 745 504 846 L558 808 Z" /><glyph glyph-name="" unicode="&#x548c;" d="M319 542 L498 542 L498 480 L319 480 L319 453 Q427 336 488 255 L447 201 Q408 265 319 376 L319 -73 L252 -73 L252 380 Q168 182 67 73 Q58 93 30 134 Q158 264 236 480 L54 480 L54 542 L252 542 L252 714 Q178 702 83 690 Q78 714 65 743 Q332 779 443 826 L489 774 Q420 749 319 727 L319 542 ZM831 115 L831 679 L598 679 L598 115 L831 115 ZM898 743 L898 -25 L831 -25 L831 51 L598 51 L598 -32 L533 -32 L533 743 L898 743 Z" /><glyph glyph-name="" unicode="&#x54cd;" d="M138 678 L138 251 L265 251 L265 678 L138 678 ZM322 189 L138 189 L138 93 L79 93 L79 739 L322 739 L322 189 ZM600 439 L600 211 L728 211 L728 439 L600 439 ZM600 160 L600 103 L551 103 L551 489 L777 489 L777 160 L600 160 ZM929 6 Q929 -44 897 -59 Q866 -73 769 -71 Q764 -43 749 -9 Q779 -11 847 -11 Q864 -10 864 7 L864 608 L464 608 L464 -68 L401 -68 L401 667 L574 667 Q611 754 631 838 L707 821 Q667 719 641 667 L929 667 L929 6 Z" /><glyph glyph-name="" unicode="&#x54ea;" d="M131 677 L131 251 L230 251 L230 677 L131 677 ZM131 189 L131 91 L78 91 L78 739 L283 739 L283 189 L131 189 ZM560 311 Q561 339 561 396 L562 493 L472 493 Q472 392 462 311 L560 311 ZM472 551 L562 551 L563 728 L472 728 L472 551 ZM619 751 Q616 6 591 -35 Q574 -67 536 -72 Q500 -76 442 -73 Q440 -36 426 -12 Q463 -15 512 -15 Q531 -15 539 4 Q555 31 559 253 L453 253 Q417 46 309 -78 Q294 -52 268 -36 Q366 75 397 253 L321 253 L321 311 L406 311 Q416 391 416 493 L322 493 L322 551 L416 551 L416 728 L324 728 L324 786 L619 786 L619 751 ZM945 764 Q872 527 846 457 Q934 341 936 209 Q936 114 899 86 Q883 72 851 67 Q826 64 791 66 Q789 100 775 124 Q803 121 829 123 Q846 123 859 134 Q879 149 879 216 Q879 336 791 450 Q831 568 874 729 L743 729 L743 -76 L686 -76 L686 786 L895 786 L904 789 L945 764 Z" /><glyph glyph-name="" unicode="&#x552f;" d="M722 656 Q706 708 655 804 L710 827 Q765 731 781 682 L722 656 ZM139 679 L139 232 L264 232 L264 679 L139 679 ZM325 167 L139 167 L139 91 L78 91 L78 744 L325 744 L325 167 ZM512 59 L682 59 L682 203 L512 203 L512 59 ZM682 594 L512 594 L512 461 L682 461 L682 594 ZM682 400 L512 400 L512 264 L682 264 L682 400 ZM946 -3 L512 -3 L512 -76 L449 -76 L449 518 Q402 452 372 421 Q347 453 329 470 Q461 606 530 829 L595 811 Q565 728 530 655 L929 655 L929 594 L745 594 L745 461 L909 461 L909 400 L745 400 L745 264 L909 264 L909 203 L745 203 L745 59 L946 59 L946 -3 Z" /><glyph glyph-name="" unicode="&#x559c;" d="M464 711 L83 711 L83 763 L464 763 L464 836 L531 836 L531 763 L921 763 L921 711 L531 711 L531 638 L853 638 L853 587 L154 587 L154 638 L464 638 L464 711 ZM249 114 L249 7 L754 7 L754 114 L249 114 ZM184 164 L820 164 L820 -74 L754 -74 L754 -43 L249 -43 L249 -75 L184 -75 L184 164 ZM338 354 Q366 316 377 277 L616 277 Q639 317 654 354 L338 354 ZM265 401 L734 401 L734 486 L265 486 L265 401 ZM947 277 L947 223 L53 223 L53 277 L308 277 Q295 312 275 344 L309 354 L201 354 L201 534 L800 534 L800 354 L712 354 L728 350 Q710 317 683 277 L947 277 Z" /><glyph glyph-name="" unicode="&#x5668;" d="M807 732 L611 732 L611 582 L807 582 L807 732 ZM871 524 L550 524 L550 790 L871 790 L871 524 ZM795 14 L795 171 L607 171 L607 14 L795 14 ZM384 171 L207 171 L207 14 L384 14 L384 171 ZM374 732 L187 732 L187 582 L374 582 L374 732 ZM667 360 Q784 262 963 218 Q944 201 921 165 Q894 173 859 186 L859 -70 L795 -70 L795 -45 L607 -45 L607 -75 L545 -75 L545 230 L762 230 Q653 288 585 360 L394 360 Q325 287 231 230 L448 230 L448 -70 L384 -70 L384 -45 L207 -45 L207 -75 L146 -75 L146 184 Q93 160 73 152 Q65 179 37 202 Q197 260 306 360 L55 360 L55 419 L365 419 Q405 465 435 524 L127 524 L127 790 L438 790 L438 530 L440 534 L508 522 Q481 468 444 419 L738 419 Q688 454 612 482 L648 519 Q744 485 795 445 L771 419 L945 419 L945 360 L667 360 Z" /><glyph glyph-name="" unicode="&#x56db;" d="M836 98 L836 684 L631 684 L631 362 Q631 318 657 318 L760 318 Q800 318 816 323 Q818 292 821 266 Q807 261 762 261 L649 261 Q602 261 584 285 Q568 306 568 363 L568 684 L421 684 Q417 458 382 359 Q338 236 215 178 Q204 203 175 230 Q285 281 323 390 Q353 476 356 684 L159 684 L159 98 L836 98 ZM905 748 L905 -35 L836 -35 L836 34 L159 34 L159 -42 L93 -42 L93 748 L905 748 Z" /><glyph glyph-name="" unicode="&#x56de;" d="M623 505 L370 505 L370 266 L623 266 L623 505 ZM689 564 L689 206 L307 206 L307 564 L689 564 ZM844 42 L844 727 L154 727 L154 42 L844 42 ZM914 794 L914 -74 L844 -74 L844 -21 L154 -21 L154 -74 L87 -74 L87 794 L914 794 Z" /><glyph glyph-name="" unicode="&#x56e0;" d="M523 459 Q518 426 513 407 Q697 248 788 115 L740 75 Q661 195 498 347 Q436 150 255 66 Q241 96 213 118 Q416 207 458 459 L210 459 L210 520 L467 520 Q475 586 478 689 L543 689 Q537 577 531 520 L790 520 L790 459 L523 459 ZM851 33 L851 733 L149 733 L149 33 L851 33 ZM915 794 L915 -74 L851 -74 L851 -25 L149 -25 L149 -74 L87 -74 L87 794 L915 794 Z" /><glyph glyph-name="" unicode="&#x56f4;" d="M786 331 Q785 314 783 305 Q768 163 742 137 Q723 118 693 117 Q655 115 598 118 Q596 145 584 172 Q621 168 667 168 Q688 168 695 175 Q709 191 720 274 L526 274 L526 63 L463 63 L463 274 L208 274 L208 331 L463 331 L463 423 L265 423 L265 477 L463 477 L463 565 L222 565 L222 621 L463 621 L463 706 L526 706 L526 621 L779 621 L779 565 L526 565 L526 477 L740 477 L740 423 L526 423 L526 331 L786 331 ZM851 33 L851 734 L149 734 L149 33 L851 33 ZM915 794 L915 -74 L851 -74 L851 -25 L149 -25 L149 -74 L87 -74 L87 794 L915 794 Z" /><glyph glyph-name="" unicode="&#x56fa;" d="M654 334 L355 334 L355 180 L654 180 L654 334 ZM532 507 L532 387 L716 387 L716 127 L296 127 L296 387 L468 387 L468 507 L228 507 L228 563 L468 563 L468 681 L532 681 L532 563 L783 563 L783 507 L532 507 ZM841 32 L841 725 L160 725 L160 32 L841 32 ZM909 788 L909 -78 L841 -78 L841 -30 L160 -30 L160 -78 L94 -78 L94 788 L909 788 Z" /><glyph glyph-name="" unicode="&#x56fd;" d="M779 191 L779 134 L228 134 L228 191 L464 191 L464 368 L271 368 L271 426 L464 426 L464 577 L243 577 L243 637 L758 637 L758 577 L526 577 L526 426 L732 426 L732 368 L526 368 L526 191 L779 191 ZM638 346 Q710 283 741 234 L696 207 Q665 257 594 322 L638 346 ZM841 36 L841 727 L157 727 L157 36 L841 36 ZM910 789 L910 -77 L841 -77 L841 -26 L157 -26 L157 -77 L90 -77 L90 789 L910 789 Z" /><glyph glyph-name="" unicode="&#x56fe;" d="M310 201 Q535 176 712 115 L681 65 Q502 130 278 154 L310 201 ZM407 322 Q539 295 641 249 L613 202 Q516 252 379 281 L407 322 ZM376 565 Q422 512 506 462 Q599 516 650 574 L384 574 L376 565 ZM743 606 Q684 512 562 433 Q684 374 822 350 Q801 333 784 300 Q638 330 508 400 Q367 324 208 289 Q197 318 177 343 Q319 370 452 434 Q388 475 338 529 Q290 484 241 453 Q213 482 195 494 Q342 582 416 705 L472 687 Q458 664 430 627 L694 627 L705 630 L743 606 ZM846 27 L846 730 L153 730 L153 27 L846 27 ZM912 791 L912 -76 L846 -76 L846 -33 L153 -33 L153 -76 L89 -76 L89 791 L912 791 Z" /><glyph glyph-name="" unicode="&#x5706;" d="M662 634 L333 634 L333 553 L662 553 L662 634 ZM724 504 L273 504 L273 682 L724 682 L724 504 ZM308 182 L248 182 L248 442 L750 442 L750 186 L687 186 L687 389 L308 389 L308 182 ZM533 297 Q533 219 482 167 Q408 92 219 46 Q206 74 182 98 Q361 134 429 196 Q473 237 473 298 L473 358 L533 358 L533 297 ZM547 209 Q702 142 790 92 L763 43 Q656 106 519 167 L547 209 ZM848 20 L848 737 L150 737 L150 20 L848 20 ZM914 794 L914 -74 L848 -74 L848 -36 L150 -36 L150 -74 L86 -74 L86 794 L914 794 Z" /><glyph glyph-name="" unicode="&#x5708;" d="M335 581 Q319 628 278 672 L321 690 Q365 644 380 601 L335 581 ZM654 412 Q722 325 832 287 Q809 268 794 243 Q668 293 594 412 L412 412 Q380 371 347 339 L633 339 Q633 326 632 318 Q628 212 612 195 Q599 179 568 178 Q533 176 488 180 Q484 206 475 221 Q508 218 549 218 Q565 216 571 224 Q578 233 581 295 L389 295 L389 141 Q389 121 400 116 Q411 110 448 110 L630 110 Q657 110 666 124 Q674 139 677 192 Q700 178 725 173 Q721 108 703 86 Q685 64 636 64 L446 64 Q380 64 357 79 Q334 94 334 140 L334 327 Q276 275 205 238 Q191 262 167 284 Q274 335 342 412 L195 412 L195 459 L378 459 Q400 489 419 529 L244 529 L244 575 L440 575 Q463 629 479 710 L536 704 Q522 640 499 575 L607 575 Q647 642 664 693 L717 676 Q689 622 661 575 L770 575 L770 529 L480 529 Q457 481 443 459 L810 459 L810 412 L654 412 ZM851 23 L851 735 L149 735 L149 23 L851 23 ZM915 794 L915 -74 L851 -74 L851 -35 L149 -35 L149 -74 L87 -74 L87 794 L915 794 Z" /><glyph glyph-name="" unicode="&#x5728;" d="M386 614 Q335 502 266 410 L266 -72 L199 -72 L199 330 Q143 268 78 223 Q67 251 44 281 Q205 396 313 614 L67 614 L67 678 L341 678 Q374 752 396 835 L464 818 Q437 735 414 678 L935 678 L935 614 L386 614 ZM935 10 L935 -52 L333 -52 L333 10 L600 10 L600 302 L372 302 L372 364 L600 364 L600 561 L666 561 L666 364 L896 364 L896 302 L666 302 L666 10 L935 10 Z" /><glyph glyph-name="" unicode="&#x5730;" d="M239 232 Q307 262 356 282 L370 223 Q212 151 64 86 L38 152 Q80 166 176 207 L176 532 L46 532 L46 595 L176 595 L176 824 L239 824 L239 595 L359 595 L359 532 L239 532 L239 232 ZM823 8 Q866 8 881 36 Q894 63 899 153 Q926 133 959 126 Q950 21 926 -14 Q899 -52 825 -52 L573 -52 Q489 -52 460 -27 Q431 -1 431 75 L431 401 L347 365 L321 423 L431 469 L431 744 L494 744 L494 496 L638 557 L638 836 L701 836 L701 583 L843 643 L870 667 L917 648 L914 635 Q914 308 903 257 Q895 204 849 194 Q823 188 757 188 Q750 229 741 246 Q766 244 811 244 Q836 244 842 272 Q850 307 850 578 L701 515 L701 145 L638 145 L638 489 L494 428 L494 75 Q494 34 509 21 Q524 8 574 8 L823 8 Z" /><glyph glyph-name="" unicode="&#x573a;" d="M352 239 L363 179 Q217 120 62 60 L40 127 Q152 165 179 175 L179 529 L55 529 L55 592 L179 592 L179 824 L241 824 L241 592 L353 592 L353 529 L241 529 L241 198 L352 239 ZM934 512 Q933 488 932 479 Q903 23 854 -35 Q831 -63 790 -66 Q761 -70 685 -66 Q685 -35 667 -3 Q708 -7 763 -7 Q787 -8 797 7 Q840 50 864 449 L792 449 Q686 94 428 -76 Q407 -55 377 -37 Q629 112 729 449 L641 449 Q573 258 415 145 Q399 162 365 183 Q512 278 577 449 L495 449 Q422 449 409 438 Q404 458 381 501 Q413 505 480 549 Q607 634 706 725 L375 725 L375 788 L776 788 L790 794 L840 757 Q672 606 523 512 L934 512 Z" /><glyph glyph-name="" unicode="&#x573e;" d="M373 182 Q212 117 62 60 L40 127 Q102 148 181 176 L181 529 L53 529 L53 592 L181 592 L181 824 L243 824 L243 592 L362 592 L362 529 L243 529 L243 199 L361 243 L373 182 ZM543 708 Q539 608 529 503 Q590 299 708 162 Q799 278 841 437 L662 437 Q698 547 737 708 L543 708 ZM917 481 Q872 268 752 116 Q845 26 962 -18 Q940 -35 916 -73 Q798 -23 708 66 Q623 -22 511 -77 Q488 -42 464 -27 Q580 26 665 113 Q575 217 512 372 Q464 75 313 -77 Q293 -59 259 -37 Q376 71 427 265 Q469 425 480 708 L363 708 L363 770 L816 770 Q788 650 743 496 L864 496 L877 499 L917 481 Z" /><glyph glyph-name="" unicode="&#x5740;" d="M394 234 Q197 148 64 94 L39 158 L188 214 L188 532 L50 532 L50 595 L188 595 L188 823 L251 823 L251 595 L384 595 L384 532 L251 532 L251 240 L382 292 L394 234 ZM957 23 L957 -40 L313 -40 L313 23 L438 23 L438 618 L503 618 L503 23 L658 23 L658 829 L725 829 L725 488 L944 488 L944 424 L725 424 L725 23 L957 23 Z" /><glyph glyph-name="" unicode="&#x5747;" d="M381 277 L397 221 L64 52 L40 118 L175 179 L175 532 L47 532 L47 595 L175 595 L175 824 L239 824 L239 595 L362 595 L362 532 L239 532 L239 209 L381 277 ZM799 257 Q615 151 433 55 L406 116 Q512 165 784 310 L799 257 ZM667 299 Q598 375 485 465 L526 503 Q629 425 710 344 L667 299 ZM924 638 Q906 23 858 -36 Q832 -71 779 -75 Q728 -79 616 -72 Q612 -36 596 -8 Q667 -15 758 -15 Q787 -16 801 0 Q845 45 861 612 L533 612 Q474 512 404 442 Q381 473 359 493 Q498 624 571 836 L632 817 Q603 739 568 674 L924 674 L924 638 Z" /><glyph glyph-name="" unicode="&#x5750;" d="M387 391 Q343 449 245 551 Q185 423 94 341 Q77 362 43 388 Q197 516 251 789 L317 778 Q299 688 269 610 Q373 513 433 438 L387 391 ZM947 27 L947 -37 L57 -37 L57 27 L465 27 L465 227 L128 227 L128 290 L465 290 L465 822 L532 822 L532 413 Q684 531 738 786 L802 775 Q784 686 749 601 Q888 466 944 394 L897 347 Q836 429 721 544 Q665 435 582 364 Q547 399 532 411 L532 290 L879 290 L879 227 L532 227 L532 27 L947 27 Z" /><glyph glyph-name="" unicode="&#x5751;" d="M639 669 Q610 748 567 823 L627 843 Q679 754 702 691 L639 669 ZM955 593 L375 593 L375 657 L955 657 L955 593 ZM379 208 Q210 134 59 71 L40 139 Q80 153 177 190 L177 532 L54 532 L54 595 L177 595 L177 824 L240 824 L240 595 L358 595 L358 532 L240 532 L240 215 L366 266 L379 208 ZM865 -8 Q881 -8 890 -2 Q898 4 902 32 Q904 56 906 161 Q925 143 957 132 Q957 27 949 -8 Q941 -40 921 -54 Q902 -67 868 -67 L816 -67 Q781 -67 760 -49 Q738 -31 738 50 L738 428 L543 428 L543 306 Q543 41 358 -83 Q340 -49 313 -32 Q477 77 477 307 L477 490 L804 490 L804 44 Q804 3 811 -3 Q819 -8 831 -8 L865 -8 Z" /><glyph glyph-name="" unicode="&#x5757;" d="M369 229 Q213 156 66 92 L40 158 L178 213 L178 532 L55 532 L55 595 L178 595 L178 824 L241 824 L241 595 L354 595 L354 532 L241 532 L241 239 L355 287 L369 229 ZM653 489 Q653 424 649 375 L813 375 L813 602 L653 602 L653 489 ZM690 312 Q765 63 964 -19 Q938 -43 918 -78 Q717 18 636 287 Q588 48 339 -77 Q323 -50 294 -27 Q530 88 575 312 L371 312 L371 375 L584 375 Q589 421 589 489 L589 602 L402 602 L402 665 L589 665 L589 825 L653 825 L653 665 L876 665 L876 375 L947 375 L947 312 L690 312 Z" /><glyph glyph-name="" unicode="&#x5782;" d="M707 347 L535 347 L535 202 L707 202 L707 347 ZM467 202 L467 347 L297 347 L297 202 L467 202 ZM297 411 L467 411 L467 545 L297 545 L297 411 ZM535 545 L535 411 L707 411 L707 545 L535 545 ZM776 347 L776 202 L902 202 L902 140 L535 140 L535 14 L850 14 L850 -49 L150 -49 L150 14 L467 14 L467 140 L100 140 L100 202 L230 202 L230 347 L57 347 L57 411 L230 411 L230 545 L107 545 L107 607 L467 607 L467 718 Q324 707 152 702 Q149 724 136 760 Q598 776 820 823 L853 766 Q720 738 535 724 L535 607 L895 607 L895 545 L776 545 L776 411 L945 411 L945 347 L776 347 Z" /><glyph glyph-name="" unicode="&#x5783;" d="M636 665 Q623 736 589 824 L651 840 Q692 726 701 684 L636 665 ZM929 589 L391 589 L391 652 L929 652 L929 589 ZM529 79 Q512 277 459 509 L518 521 Q573 295 594 98 L529 79 ZM377 184 Q152 94 62 59 L41 127 Q129 157 178 175 L178 529 L56 529 L56 592 L178 592 L178 824 L243 824 L243 592 L354 592 L354 529 L243 529 L243 199 L365 244 L377 184 ZM956 30 L956 -33 L344 -33 L344 30 L693 30 Q755 258 790 531 L860 518 Q809 227 755 30 L956 30 Z" /><glyph glyph-name="" unicode="&#x578b;" d="M888 381 Q888 328 852 314 Q820 303 704 303 Q699 331 681 364 Q780 361 805 364 Q824 365 824 382 L824 830 L888 830 L888 381 ZM700 447 L639 447 L639 779 L700 779 L700 447 ZM263 592 L393 592 L393 735 L263 735 L263 592 ZM259 532 Q237 372 110 290 Q91 315 66 336 Q176 406 196 532 L72 532 L72 592 L201 592 L201 735 L105 735 L105 794 L553 794 L553 735 L456 735 L456 592 L573 592 L573 532 L456 532 L456 314 L393 314 L393 532 L259 532 ZM949 21 L949 -41 L50 -41 L50 21 L473 21 L473 156 L154 156 L154 217 L473 217 L473 335 L540 335 L540 217 L845 217 L845 156 L540 156 L540 21 L949 21 Z" /><glyph glyph-name="" unicode="&#x57df;" d="M894 690 Q852 740 771 799 L810 833 Q896 774 934 729 L894 690 ZM333 193 L66 61 L40 127 L155 177 L155 529 L47 529 L47 592 L155 592 L155 824 L218 824 L218 592 L311 592 L311 529 L218 529 L218 206 L315 252 L333 193 ZM655 136 Q445 73 313 36 L294 99 Q335 108 649 192 L655 136 ZM549 471 L411 471 L411 295 L549 295 L549 471 ZM604 526 L604 240 L358 240 L358 526 L604 526 ZM925 513 Q870 313 776 169 Q816 -12 872 -12 Q900 -12 906 135 Q924 116 954 101 Q946 0 928 -37 Q909 -75 865 -75 Q777 -75 729 102 Q647 -1 552 -66 Q541 -50 503 -22 Q624 55 710 179 Q678 348 668 625 L328 625 L328 686 L667 686 Q664 760 664 835 L728 835 Q728 734 729 686 L944 686 L944 625 L730 625 Q738 410 760 259 Q825 375 863 525 L925 513 Z" /><glyph glyph-name="" unicode="&#x57fa;" d="M532 9 L878 9 L878 -48 L127 -48 L127 9 L465 9 L465 121 L256 121 L256 177 L465 177 L465 265 L532 265 L532 177 L745 177 L745 121 L532 121 L532 9 ZM316 356 L687 356 L687 432 L316 432 L316 356 ZM316 679 L316 607 L687 607 L687 679 L316 679 ZM316 483 L687 483 L687 556 L316 556 L316 483 ZM732 299 Q823 187 962 137 Q934 113 919 86 Q757 156 663 299 L344 299 Q247 151 84 73 Q69 100 41 124 Q178 179 273 299 L51 299 L51 356 L250 356 L250 679 L96 679 L96 735 L250 735 L250 835 L316 835 L316 735 L687 735 L687 835 L754 835 L754 735 L907 735 L907 679 L754 679 L754 356 L950 356 L950 299 L732 299 Z" /><glyph glyph-name="" unicode="&#x586b;" d="M341 186 Q184 116 63 68 L39 134 Q77 145 159 178 L159 532 L44 532 L44 595 L159 595 L159 824 L223 824 L223 595 L338 595 L338 532 L223 532 L223 203 L329 245 L341 186 ZM592 69 Q498 -10 362 -76 Q352 -59 321 -30 Q460 34 534 106 L592 69 ZM742 107 Q865 37 938 -29 L894 -75 Q817 -4 700 67 L742 107 ZM484 171 L801 171 L801 242 L484 242 L484 171 ZM484 567 L484 499 L801 499 L801 567 L484 567 ZM801 457 L484 457 L484 394 L801 394 L801 457 ZM484 285 L801 285 L801 351 L484 351 L484 285 ZM955 171 L955 112 L333 112 L333 171 L424 171 L424 615 L571 615 Q579 643 587 685 L372 685 L372 741 L598 741 Q607 793 612 834 L683 829 L664 741 L928 741 L928 685 L650 685 L631 615 L862 615 L862 171 L955 171 Z" /><glyph glyph-name="" unicode="&#x5883;" d="M896 703 L398 703 L398 759 L617 759 Q608 785 588 829 L650 840 Q671 798 685 759 L896 759 L896 703 ZM922 521 L368 521 L368 578 L513 578 Q498 634 479 680 L534 691 Q562 628 571 591 L525 578 L704 578 Q730 633 748 689 L810 674 Q780 608 765 578 L922 578 L922 521 ZM351 174 Q199 113 61 60 L40 127 Q65 135 167 171 L167 529 L55 529 L55 592 L167 592 L167 824 L231 824 L231 592 L330 592 L330 529 L231 529 L231 194 L339 234 L351 174 ZM479 232 L804 232 L804 303 L479 303 L479 232 ZM479 349 L804 349 L804 418 L479 418 L479 349 ZM834 -10 Q863 -10 871 -6 Q884 -3 889 16 Q892 31 894 103 Q916 83 948 74 Q944 -2 936 -24 Q926 -46 900 -55 Q876 -62 839 -62 L772 -62 Q725 -62 705 -46 Q681 -32 681 32 L681 184 L588 184 Q576 70 525 14 Q470 -48 339 -79 Q327 -47 303 -27 Q423 -2 471 46 Q515 90 525 184 L418 184 L418 465 L868 465 L868 184 L743 184 L743 25 Q743 -1 753 -5 Q761 -10 782 -10 L834 -10 Z" /><glyph glyph-name="" unicode="&#x589e;" d="M516 694 Q493 745 445 809 L501 832 Q551 773 574 722 L516 694 ZM333 231 L345 172 Q289 149 200 114 L68 61 L46 128 Q83 139 168 170 L168 530 L58 530 L58 592 L168 592 L168 824 L230 824 L230 592 L331 592 L331 530 L230 530 L230 192 L333 231 ZM488 246 L488 158 L790 158 L790 246 L488 246 ZM790 27 L790 107 L488 107 L488 27 L790 27 ZM427 298 L853 298 L853 -73 L790 -73 L790 -25 L488 -25 L488 -73 L427 -73 L427 298 ZM504 611 Q559 533 577 469 L535 451 Q514 527 464 596 L504 611 ZM689 464 Q740 535 771 611 L817 592 Q756 489 725 448 L689 464 ZM843 642 L665 642 L665 413 L843 413 L843 642 ZM430 413 L612 413 L612 642 L430 642 L430 413 ZM901 691 L901 364 L374 364 L374 691 L692 691 Q747 768 777 837 L845 813 Q798 739 761 691 L901 691 Z" /><glyph glyph-name="" unicode="&#x2f20;&#x58eb;" d="M533 450 L533 47 L893 47 L893 -18 L113 -18 L113 47 L464 47 L464 450 L57 450 L57 515 L464 515 L464 832 L533 832 L533 515 L947 515 L947 450 L533 450 Z" /><glyph glyph-name="" unicode="&#x58f0;" d="M223 391 L223 314 Q223 269 219 229 L466 229 L466 391 L223 391 ZM796 391 L531 391 L531 229 L796 229 L796 391 ZM862 121 L796 121 L796 171 L210 171 Q181 14 84 -81 Q72 -62 34 -35 Q157 83 157 315 L157 448 L862 448 L862 121 ZM532 693 L532 588 L883 588 L883 530 L134 530 L134 588 L465 588 L465 693 L75 693 L75 751 L465 751 L465 838 L532 838 L532 751 L927 751 L927 693 L532 693 Z" /><glyph glyph-name="" unicode="&#x5904;" d="M689 103 L619 103 L619 833 L689 833 L689 573 L714 587 Q863 428 931 322 L873 287 Q816 381 689 526 L689 103 ZM251 615 Q240 578 222 529 Q260 362 324 255 Q401 401 431 615 L251 615 ZM506 667 Q473 380 367 195 Q504 25 792 25 Q922 25 958 26 Q939 -3 931 -44 L788 -44 Q480 -44 331 137 Q235 -3 93 -77 Q62 -39 39 -25 Q194 52 289 196 Q227 294 187 441 Q151 360 111 308 Q89 330 57 345 Q181 508 226 831 L296 813 Q285 747 267 677 L449 677 L462 680 L506 667 Z" /><glyph glyph-name="" unicode="&#x5907;" d="M244 299 L244 190 L466 190 L466 299 L244 299 ZM752 299 L533 299 L533 190 L752 190 L752 299 ZM752 16 L752 135 L533 135 L533 16 L752 16 ZM466 16 L466 135 L244 135 L244 16 L466 16 ZM176 358 L822 358 L822 -73 L752 -73 L752 -42 L244 -42 L244 -75 L176 -75 L176 358 ZM327 679 Q395 604 500 551 Q620 613 693 690 L339 690 L327 679 ZM801 725 Q722 607 568 519 Q747 444 967 421 Q947 399 927 360 Q681 394 500 481 Q305 387 65 345 Q53 384 35 408 Q252 440 431 519 Q345 569 281 636 Q217 582 128 533 Q105 567 82 581 Q281 677 372 838 L442 823 Q423 790 390 749 L746 749 L758 753 L801 725 Z" /><glyph glyph-name="" unicode="&#x590d;" d="M246 681 Q180 597 95 531 Q70 568 53 584 Q203 689 273 836 L333 817 Q305 763 287 737 L897 737 L897 681 L246 681 ZM313 202 Q382 131 505 81 Q637 134 706 202 L313 202 ZM284 371 L757 371 L757 443 L284 443 L284 371 ZM284 490 L757 490 L757 561 L284 561 L284 490 ZM811 229 Q737 125 586 53 Q741 5 958 -10 Q940 -30 920 -69 Q677 -46 508 20 Q325 -50 64 -76 Q58 -50 39 -16 Q262 1 431 55 Q332 105 270 173 Q214 123 145 80 Q124 105 98 124 Q242 201 330 321 L218 321 L218 610 L825 610 L825 321 L402 321 Q382 290 351 254 L758 254 L770 258 L811 229 Z" /><glyph glyph-name="" unicode="&#x5916;" d="M475 685 L520 670 Q445 125 98 -68 Q78 -38 44 -14 Q226 81 332 274 Q263 340 164 404 L204 448 Q297 390 360 334 Q418 464 442 619 L245 619 Q184 453 100 350 Q85 366 45 393 Q176 541 238 836 L303 824 Q290 762 266 682 L461 682 L475 685 ZM707 534 Q877 404 959 309 L906 263 Q835 349 682 474 L682 -75 L614 -75 L614 835 L682 835 L682 514 L707 534 Z" /><glyph glyph-name="" unicode="&#x591a;" d="M789 723 Q700 570 500 457 Q327 360 115 315 Q102 352 83 374 Q260 405 425 487 Q374 533 303 575 L351 610 Q433 564 483 519 Q615 594 688 688 L401 688 Q292 599 163 539 Q150 562 117 586 Q342 682 460 837 L533 822 Q505 787 466 748 L734 748 L746 751 L789 723 ZM939 376 Q761 1 109 -76 Q101 -40 82 -13 Q371 16 566 109 Q519 157 444 214 L499 245 Q569 196 626 140 Q769 223 842 340 L562 340 Q431 229 247 157 Q231 184 205 207 Q490 310 622 492 L696 476 Q659 430 628 400 L882 400 L895 404 L939 376 Z" /><glyph glyph-name="" unicode="&#x591f;" d="M671 699 Q606 617 522 562 Q504 587 478 602 Q618 691 686 834 L750 824 Q726 778 710 754 L867 754 L879 757 L920 739 Q830 471 528 367 Q514 395 491 416 Q595 448 680 510 Q639 550 587 582 L633 616 Q683 584 726 549 Q798 615 836 699 L671 699 ZM166 476 L166 235 L278 235 L278 476 L166 476 ZM463 672 Q453 43 416 -8 Q393 -41 350 -45 Q310 -49 230 -44 Q228 -9 211 17 Q261 13 326 13 Q349 13 360 30 Q389 70 400 646 L183 646 Q156 589 119 532 L331 532 L331 179 L166 179 L166 106 L112 106 L112 522 Q109 517 101 508 L90 493 Q83 501 35 529 Q129 640 184 830 L247 814 Q229 756 209 708 L463 708 L463 672 ZM963 354 Q870 24 496 -75 Q481 -41 460 -20 Q617 15 727 102 Q677 152 615 196 L662 231 Q721 191 773 143 Q844 214 881 311 L704 311 Q630 226 519 161 Q504 186 477 207 Q651 300 729 450 L794 439 Q775 403 749 367 L896 367 L896 368 L909 368 L922 371 L963 354 Z" /><glyph glyph-name="" unicode="&#x2f24;&#x5927;" d="M557 479 Q675 105 953 -12 Q926 -37 904 -74 Q626 57 501 437 Q414 70 98 -75 Q81 -47 48 -20 Q363 117 440 479 L66 479 L66 547 L452 547 Q465 638 468 834 L538 834 Q536 652 521 547 L938 547 L938 479 L557 479 Z" /><glyph glyph-name="" unicode="&#x5929;" d="M550 383 Q661 72 961 -15 Q937 -36 916 -74 Q625 23 501 336 Q423 66 91 -75 Q74 -46 47 -19 Q376 118 441 383 L70 383 L70 450 L453 450 Q460 498 460 569 L460 689 L104 689 L104 756 L892 756 L892 689 L529 689 L529 568 Q529 499 523 450 L935 450 L935 383 L550 383 Z" /><glyph glyph-name="" unicode="&#x592a;" d="M563 500 Q678 105 966 -17 Q938 -41 916 -78 Q629 58 506 463 Q471 285 380 156 L406 174 Q539 69 606 -18 L550 -63 Q489 20 361 130 Q260 -1 92 -76 Q71 -43 43 -21 Q374 117 443 500 L65 500 L65 568 L453 568 Q463 646 465 834 L536 834 Q534 663 523 568 L939 568 L939 500 L563 500 Z" /><glyph glyph-name="" unicode="&#x5931;" d="M559 320 Q666 51 966 -16 Q949 -32 922 -76 Q616 4 502 295 Q425 41 89 -78 Q74 -46 47 -21 Q366 88 436 320 L57 320 L57 386 L451 386 Q461 445 461 528 L461 591 L231 591 Q183 494 130 430 Q100 452 66 464 Q184 595 243 821 L312 807 Q284 712 260 658 L461 658 L461 836 L530 836 L530 658 L860 658 L860 591 L530 591 L530 528 Q530 446 521 386 L944 386 L944 320 L559 320 Z" /><glyph glyph-name="" unicode="&#x5934;" d="M424 618 Q347 682 198 740 L235 788 Q386 733 462 672 L424 618 ZM333 434 Q252 503 109 560 L150 606 Q294 553 376 485 L333 434 ZM571 219 Q797 113 937 -11 L892 -61 Q766 57 536 173 L571 219 ZM942 378 L942 315 L558 315 Q473 22 101 -72 Q91 -47 62 -16 Q406 67 488 315 L61 315 L61 378 L505 378 Q530 493 532 824 L600 824 Q598 502 573 378 L942 378 Z" /><glyph glyph-name="" unicode="&#x5939;" d="M563 295 Q673 54 949 -12 Q925 -33 906 -71 Q614 12 497 290 Q417 18 91 -75 Q78 -45 50 -19 Q351 64 427 295 L62 295 L62 362 L444 362 Q465 460 468 620 L93 620 L93 685 L469 685 L469 834 L539 834 Q539 733 538 685 L905 685 L905 620 L537 620 Q532 459 513 362 L938 362 L938 295 L563 295 ZM241 592 Q310 484 330 400 L268 381 Q247 468 182 575 L241 592 ZM626 395 Q693 488 739 595 L805 574 Q731 444 679 377 L626 395 Z" /><glyph glyph-name="" unicode="&#x5947;" d="M834 453 Q685 527 472 604 Q386 487 120 450 Q112 473 90 502 Q248 523 331 566 Q409 607 443 682 L107 682 L107 741 L462 741 Q471 777 478 836 L547 836 Q541 784 532 741 L899 741 L899 682 L515 682 Q507 662 503 654 Q721 578 882 501 L834 453 ZM225 240 L225 96 L489 96 L489 240 L225 240 ZM225 41 L225 -25 L161 -25 L161 295 L553 295 L553 41 L225 41 ZM946 379 L806 379 L806 8 Q806 -50 761 -65 Q721 -76 570 -76 Q564 -48 545 -12 Q597 -14 713 -14 Q738 -11 738 9 L738 379 L57 379 L57 440 L946 440 L946 379 Z" /><glyph glyph-name="" unicode="&#x5957;" d="M427 675 Q378 614 321 566 L696 566 Q638 613 586 675 L427 675 ZM328 512 L328 445 L744 445 L744 396 L328 396 L328 328 L744 328 L744 279 L328 279 L328 208 L938 208 L938 151 L408 151 Q333 71 262 20 L711 41 Q677 77 636 114 L691 142 Q823 23 875 -41 L818 -75 Q790 -41 758 -8 Q194 -39 166 -50 Q154 -5 145 14 Q169 17 204 45 Q260 87 321 151 L64 151 L64 208 L261 208 L261 518 Q176 458 85 417 Q67 447 42 465 Q224 543 345 675 L72 675 L72 733 L392 733 Q428 784 450 836 L521 823 Q494 768 469 733 L932 733 L932 675 L660 675 Q788 544 961 476 Q935 454 917 425 Q827 466 740 532 L740 512 L328 512 Z" /><glyph glyph-name="" unicode="&#x597d;" d="M205 568 Q179 445 144 316 Q211 273 263 230 Q331 372 353 568 L205 568 ZM423 622 Q398 357 316 188 Q397 119 433 72 L388 16 Q352 65 282 127 Q203 -2 72 -74 Q53 -41 30 -22 Q151 39 232 170 Q153 236 70 290 Q107 403 142 568 L45 568 L45 630 L154 630 Q176 741 188 835 L252 831 Q240 739 218 630 L370 630 L382 632 L423 622 ZM955 348 L731 348 L731 6 Q731 -50 690 -65 Q653 -77 537 -76 Q531 -49 511 -13 Q572 -14 641 -14 Q663 -13 663 6 L663 348 L428 348 L428 411 L663 411 L663 529 Q744 595 814 698 L474 698 L474 759 L860 759 L876 763 L922 730 Q843 608 731 512 L731 411 L955 411 L955 348 Z" /><glyph glyph-name="" unicode="&#x5982;" d="M240 568 Q210 430 175 314 Q248 264 310 216 Q383 358 405 568 L240 568 ZM475 624 Q453 341 362 173 Q433 116 474 65 L429 10 Q397 52 326 115 Q238 -12 93 -77 Q72 -41 52 -21 Q189 32 275 159 Q195 227 101 290 Q143 412 176 568 L51 568 L51 630 L190 630 Q210 725 224 835 L289 830 Q280 768 254 630 L422 630 L434 632 L475 624 ZM854 87 L854 664 L596 664 L596 87 L854 87 ZM919 727 L919 -36 L854 -36 L854 24 L596 24 L596 -51 L533 -51 L533 727 L919 727 Z" /><glyph glyph-name="" unicode="&#x5999;" d="M889 387 Q860 511 776 658 L831 678 Q914 541 950 408 L889 387 ZM703 220 L639 220 L639 835 L703 835 L703 220 ZM565 654 Q534 451 480 336 Q455 351 424 363 Q475 467 504 665 L565 654 ZM206 568 Q169 404 141 310 Q157 299 249 230 Q304 370 322 568 L206 568 ZM388 624 Q368 351 299 189 Q372 128 404 95 L360 45 Q324 85 271 130 Q201 -3 86 -74 Q71 -43 46 -21 Q152 37 222 172 Q160 225 71 290 Q107 392 145 568 L47 568 L47 630 L158 630 Q181 760 191 835 L254 831 Q241 740 219 630 L338 630 L349 632 L388 624 ZM901 330 Q790 24 398 -74 Q386 -42 361 -15 Q733 64 839 349 L901 330 Z" /><glyph glyph-name="" unicode="&#x59a5;" d="M864 766 Q591 707 111 690 Q111 710 96 747 Q589 769 831 822 L864 766 ZM649 470 Q734 581 792 708 L856 678 Q771 528 705 442 L649 470 ZM490 482 Q479 563 425 670 L484 687 Q541 586 554 500 L490 482 ZM240 447 Q215 534 139 638 L196 661 Q272 559 301 473 L240 447 ZM390 304 Q360 256 306 182 Q412 154 523 120 Q619 190 669 304 L390 304 ZM740 304 Q691 175 595 96 Q767 39 881 -16 L832 -69 Q715 -10 533 52 Q376 -43 88 -71 Q79 -39 61 -14 Q313 9 454 79 Q321 121 202 151 Q259 218 315 304 L58 304 L58 365 L353 365 Q380 409 410 471 L476 456 Q458 415 427 365 L938 365 L938 304 L740 304 Z" /><glyph glyph-name="" unicode="&#x59cb;" d="M203 568 Q172 428 141 314 Q197 277 251 233 Q305 368 323 568 L203 568 ZM389 625 Q370 355 301 191 Q375 126 411 78 L370 24 Q337 70 272 130 Q202 -3 85 -74 Q68 -43 45 -21 Q154 38 224 174 Q156 232 71 290 Q105 389 142 568 L47 568 L47 630 L154 630 Q175 747 185 832 L248 828 Q239 756 215 630 L339 630 L350 632 L389 625 ZM527 266 L527 28 L836 28 L836 266 L527 266 ZM465 326 L900 326 L900 -73 L836 -73 L836 -32 L527 -32 L527 -76 L465 -76 L465 326 ZM794 690 Q913 538 964 411 L907 383 Q896 411 874 453 Q459 423 428 411 Q424 439 406 475 Q428 479 471 540 Q564 666 634 837 L701 816 Q609 625 511 491 L843 512 Q803 582 742 665 L794 690 Z" /><glyph glyph-name="" unicode="&#x2f26;&#x5b50;" d="M949 325 L537 325 L537 15 Q537 -48 489 -63 Q450 -76 294 -76 Q286 -43 264 -7 Q388 -11 442 -9 Q469 -6 469 16 L469 325 L53 325 L53 391 L469 391 L469 537 Q610 600 731 701 L153 701 L153 766 L803 766 L817 770 L867 732 Q732 601 537 502 L537 391 L949 391 L949 325 Z" /><glyph glyph-name="" unicode="&#x5b57;" d="M150 529 L85 529 L85 729 L481 729 Q457 781 427 821 L491 842 Q539 777 559 729 L915 729 L915 529 L847 529 L847 666 L150 666 L150 529 ZM927 235 L534 235 L534 8 Q534 -48 490 -63 Q457 -75 323 -75 Q313 -38 294 -9 Q404 -12 442 -10 Q465 -10 465 9 L465 235 L72 235 L72 298 L465 298 L465 362 Q561 408 649 485 L235 485 L235 548 L716 548 L731 552 L776 517 Q678 416 534 338 L534 298 L927 298 L927 235 Z" /><glyph glyph-name="" unicode="&#x5b58;" d="M391 642 Q339 521 260 411 L260 -74 L194 -74 L194 332 Q137 269 71 222 Q49 263 36 281 Q209 404 319 642 L67 642 L67 705 L345 705 Q368 760 389 835 L457 819 Q437 755 417 705 L934 705 L934 642 L391 642 ZM953 202 L681 202 L681 6 Q681 -51 641 -65 Q608 -75 467 -75 Q462 -42 446 -12 Q555 -15 592 -13 Q614 -12 614 7 L614 202 L333 202 L333 264 L614 264 L614 349 Q697 393 771 462 L419 462 L419 523 L833 523 L846 527 L889 493 Q807 402 681 327 L681 264 L953 264 L953 202 Z" /><glyph glyph-name="" unicode="&#x5b59;" d="M255 315 L255 -1 Q255 -48 225 -61 Q200 -72 114 -72 Q109 -45 92 -15 L177 -15 Q193 -14 193 0 L193 289 L63 235 L47 303 L193 357 L193 530 Q265 602 335 712 L70 712 L70 773 L377 773 L390 777 L432 747 Q357 623 255 519 L255 381 L378 430 L390 371 L255 315 ZM572 586 Q516 315 438 167 Q417 183 380 199 Q460 334 508 596 L572 586 ZM646 830 L712 830 L712 15 Q712 -44 674 -58 Q644 -71 526 -71 Q522 -39 504 -6 Q584 -9 625 -6 Q646 -6 646 15 L646 830 ZM838 606 Q930 386 962 201 L897 181 Q872 354 779 587 L838 606 Z" /><glyph glyph-name="" unicode="&#x5b66;" d="M148 475 L85 475 L85 668 L252 668 Q223 727 163 800 L218 825 Q286 751 314 688 L276 668 L505 668 Q484 739 427 822 L485 843 Q548 757 567 688 L518 668 L685 668 Q745 743 790 829 L856 805 Q816 744 755 668 L923 668 L923 475 L858 475 L858 608 L148 608 L148 475 ZM942 211 L532 211 L532 9 Q532 -49 486 -63 Q448 -75 303 -75 Q297 -53 275 -10 Q402 -15 439 -11 Q465 -10 465 9 L465 211 L63 211 L63 273 L465 273 L465 347 Q561 381 649 441 L228 441 L228 501 L725 501 L739 504 L783 471 Q687 385 532 318 L532 273 L942 273 L942 211 Z" /><glyph glyph-name="" unicode="&#x5b83;" d="M724 14 Q782 14 800 44 Q817 72 825 173 Q850 155 891 145 Q880 27 850 -10 Q818 -51 724 -51 L407 -51 Q304 -51 268 -25 Q231 1 231 77 L231 534 L300 534 L300 301 Q587 380 727 459 L783 408 Q610 322 300 242 L300 77 Q300 38 320 26 Q340 14 405 14 L724 14 ZM906 699 L906 498 L838 498 L838 635 L156 635 L156 498 L90 498 L90 699 L489 699 Q467 761 429 823 L493 842 Q544 760 562 705 L543 699 L906 699 Z" /><glyph glyph-name="" unicode="&#x5b88;" d="M153 518 L87 518 L87 714 L488 714 Q470 761 435 822 L498 839 Q543 768 560 714 L911 714 L911 518 L841 518 L841 650 L153 650 L153 518 ZM238 327 Q354 217 405 119 L350 81 Q298 184 186 294 L238 327 ZM939 383 L681 383 L681 20 Q681 -42 635 -57 Q597 -70 448 -68 Q444 -45 424 -2 Q525 -6 587 -3 Q613 -3 613 21 L613 383 L62 383 L62 448 L613 448 L613 593 L681 593 L681 448 L939 448 L939 383 Z" /><glyph glyph-name="" unicode="&#x5b9a;" d="M152 511 L87 511 L87 722 L479 722 Q460 772 430 823 L495 841 Q534 779 555 722 L913 722 L913 511 L846 511 L846 658 L152 658 L152 511 ZM533 21 Q599 7 705 7 Q911 7 956 8 Q937 -21 931 -59 L702 -59 Q527 -59 429 -19 Q310 30 246 154 Q194 7 95 -79 Q71 -53 41 -34 Q195 85 230 377 L297 370 Q290 317 273 239 Q327 90 465 39 L465 464 L211 464 L211 528 L796 528 L796 464 L533 464 L533 294 L834 294 L834 231 L533 231 L533 21 Z" /><glyph glyph-name="" unicode="&#x5b9d;" d="M153 503 L88 503 L88 708 L492 708 Q463 771 434 826 L498 842 Q543 765 567 708 L911 708 L911 503 L844 503 L844 645 L153 645 L153 503 ZM935 16 L935 -46 L67 -46 L67 16 L463 16 L463 226 L187 226 L187 288 L463 288 L463 454 L163 454 L163 516 L837 516 L837 454 L533 454 L533 288 L817 288 L817 226 L533 226 L533 16 L935 16 ZM661 207 Q769 125 825 70 L777 30 Q715 93 615 174 L661 207 Z" /><glyph glyph-name="" unicode="&#x5b9e;" d="M161 521 L95 521 L95 718 L487 718 Q460 779 433 820 L498 841 Q541 778 565 718 L907 718 L907 521 L838 521 L838 655 L161 655 L161 521 ZM390 441 Q342 499 244 557 L284 599 Q382 545 433 488 L390 441 ZM184 447 Q293 387 341 334 L301 284 Q250 341 145 403 L184 447 ZM572 165 Q792 81 928 -18 L885 -69 Q761 30 540 117 L572 165 ZM932 253 L932 195 L514 195 Q428 -2 123 -72 Q111 -41 84 -14 Q354 41 438 195 L74 195 L74 253 L464 253 Q498 349 507 604 L576 604 Q569 367 536 253 L932 253 Z" /><glyph glyph-name="" unicode="&#x5ba2;" d="M146 562 L81 562 L81 744 L483 744 Q464 783 436 827 L500 844 Q529 804 560 744 L919 744 L919 562 L852 562 L852 682 L146 682 L146 562 ZM751 230 Q617 267 502 330 Q390 269 268 230 L751 230 ZM706 17 L706 173 L300 173 L300 17 L706 17 ZM347 529 Q404 459 503 401 Q607 463 667 532 L351 532 L347 529 ZM770 560 Q697 452 565 367 Q733 287 960 255 Q945 241 919 194 Q843 205 773 224 L773 -73 L706 -73 L706 -40 L300 -40 L300 -74 L236 -74 L236 219 Q172 199 72 177 Q61 210 40 236 Q261 276 440 367 Q356 424 301 489 Q220 425 139 386 Q120 415 94 432 Q286 520 379 661 L451 648 Q425 612 403 586 L714 586 L726 589 L770 560 Z" /><glyph glyph-name="" unicode="&#x5bb6;" d="M154 543 L89 543 L89 745 L465 745 Q447 790 426 821 L494 841 Q528 787 545 745 L918 745 L918 543 L851 543 L851 683 L154 683 L154 543 ZM846 436 Q770 375 687 320 Q765 95 961 20 Q938 2 917 -34 Q724 51 636 287 Q624 279 584 255 Q610 161 596 74 Q582 -9 539 -41 Q501 -73 440 -74 Q402 -74 354 -71 Q354 -38 336 -9 Q396 -14 427 -14 Q470 -14 492 6 Q551 47 533 191 Q347 46 101 -27 Q89 3 66 30 Q346 95 520 253 Q506 296 491 329 Q336 222 118 152 Q104 181 84 205 Q314 260 464 374 Q447 403 413 438 Q286 368 122 317 Q106 349 85 370 Q311 427 446 522 L210 522 L210 580 L789 580 L789 522 L534 522 Q504 496 462 467 Q531 401 567 308 Q701 394 791 479 L846 436 Z" /><glyph glyph-name="" unicode="&#x5bb9;" d="M152 566 L87 566 L87 742 L480 742 Q463 783 437 825 L505 842 Q535 797 557 742 L913 742 L913 566 L846 566 L846 680 L152 680 L152 566 ZM634 628 Q807 527 898 434 L851 389 Q758 489 591 590 L634 628 ZM397 608 Q298 481 138 387 Q118 413 91 438 Q246 517 335 629 L397 608 ZM728 256 Q601 334 501 444 Q413 339 288 256 L728 256 ZM711 18 L711 196 L287 196 L287 18 L711 18 ZM556 516 L537 490 Q679 326 955 215 Q927 191 912 160 Q860 182 778 226 L778 -72 L711 -72 L711 -42 L287 -42 L287 -77 L223 -77 L223 216 Q156 176 85 147 Q58 186 42 200 Q351 317 498 543 L556 516 Z" /><glyph glyph-name="" unicode="&#x5bbd;" d="M142 569 L79 569 L79 746 L477 746 Q452 801 436 825 L504 845 Q538 788 557 746 L923 746 L923 569 L858 569 L858 687 L142 687 L142 569 ZM722 106 L722 356 L273 356 L273 101 L206 101 L206 414 L791 414 L791 106 L722 106 ZM826 526 L668 526 L668 450 L601 450 L601 526 L399 526 L399 451 L332 451 L332 526 L175 526 L175 581 L332 581 L332 651 L399 651 L399 581 L601 581 L601 651 L668 651 L668 581 L826 581 L826 526 ZM446 319 L517 319 L517 240 Q517 138 448 69 Q349 -30 90 -90 Q72 -58 47 -35 Q295 17 387 101 Q446 156 446 242 L446 319 ZM833 -4 Q871 -4 882 22 Q893 49 897 150 Q919 132 957 124 Q950 10 928 -26 Q904 -63 838 -63 L649 -63 Q576 -63 550 -45 Q525 -27 525 26 L525 190 L591 190 L591 27 Q591 8 603 2 Q614 -4 653 -4 L833 -4 Z" /><glyph glyph-name="" unicode="&#x5bdf;" d="M136 602 L73 602 L73 750 L479 750 Q459 796 441 824 L505 839 Q536 791 553 750 L927 750 L927 602 L860 602 L860 694 L136 694 L136 602 ZM354 129 Q268 22 109 -58 Q90 -31 63 -9 Q221 58 294 150 L354 129 ZM542 177 L542 2 Q542 -47 507 -60 Q478 -69 361 -69 Q358 -53 340 -12 Q430 -15 459 -13 Q478 -12 478 3 L478 177 L163 177 L163 236 L837 236 L837 177 L542 177 ZM683 152 Q856 56 933 -2 L887 -47 Q800 20 640 112 L683 152 ZM596 552 Q638 481 696 431 Q750 485 793 552 L596 552 ZM881 583 Q825 483 737 397 Q833 324 960 293 Q938 274 921 240 Q780 279 677 368 L677 317 L335 317 L335 361 Q231 265 79 211 Q65 240 45 259 Q138 289 220 344 Q188 376 141 409 L182 436 Q228 407 262 373 Q302 405 319 424 Q280 457 236 484 L271 514 Q317 488 353 460 Q392 507 417 558 L267 558 Q192 472 87 413 Q74 436 49 453 Q207 534 278 670 L339 659 L305 604 L432 604 L432 605 L444 605 L454 608 L492 589 Q448 470 348 374 L670 374 Q549 481 490 653 L543 667 Q554 634 568 605 L829 605 L841 609 L881 583 Z" /><glyph glyph-name="" unicode="&#x5bf9;" d="M436 707 Q402 479 317 303 Q386 200 432 109 L381 62 Q345 137 283 237 Q197 85 82 -4 Q61 30 34 49 Q154 133 242 302 Q149 446 65 555 L111 594 Q185 500 274 368 Q335 504 363 659 L56 659 L56 719 L382 719 L393 722 L436 707 ZM955 549 L833 549 L833 17 Q833 -42 792 -60 Q757 -75 629 -73 Q621 -35 606 -6 Q638 -7 743 -7 Q767 -6 767 16 L767 549 L477 549 L477 613 L767 613 L767 833 L833 833 L833 613 L955 613 L955 549 ZM623 171 Q597 276 505 416 L560 440 Q652 307 682 200 L623 171 Z" /><glyph glyph-name="" unicode="&#x5bfc;" d="M208 735 L208 622 L759 622 L759 735 L208 735 ZM345 394 Q225 394 183 415 Q140 437 140 503 L140 793 L824 793 L824 563 L208 563 L208 503 Q208 471 232 461 Q257 451 339 451 L748 451 Q809 451 828 468 Q846 485 851 543 Q878 527 916 521 Q906 444 875 420 Q843 394 751 394 L345 394 ZM942 225 L720 225 L720 8 Q720 -49 676 -61 Q642 -71 486 -71 Q481 -43 463 -12 Q501 -13 628 -13 Q653 -12 653 9 L653 225 L265 225 Q374 135 428 49 L378 6 Q327 94 218 189 L261 225 L65 225 L65 288 L653 288 L653 368 L720 368 L720 288 L942 288 L942 225 Z" /><glyph glyph-name="" unicode="&#x5c06;" d="M585 699 Q499 629 398 581 Q382 601 354 624 Q541 703 631 834 L697 815 Q675 784 645 754 L871 754 L883 757 L925 734 Q799 468 395 376 Q382 407 362 429 Q501 458 604 510 Q566 563 507 612 L556 640 Q618 592 658 539 Q773 608 833 699 L585 699 ZM185 495 Q144 573 49 665 L96 700 Q198 604 234 536 L185 495 ZM236 834 L301 834 L301 -75 L236 -75 L236 286 Q143 195 81 138 L43 193 Q108 246 236 365 L236 834 ZM479 252 Q572 159 615 76 L557 43 Q518 127 425 222 L479 252 ZM946 287 L823 287 L823 6 Q823 -50 784 -64 Q754 -75 624 -75 Q620 -53 601 -12 Q700 -15 737 -13 Q758 -12 758 7 L758 287 L351 287 L351 349 L758 349 L758 476 L823 476 L823 349 L946 349 L946 287 Z" /><glyph glyph-name="" unicode="&#x2f29;&#x5c0f;" d="M539 820 L539 20 Q539 -47 492 -64 Q450 -76 304 -76 Q293 -35 276 -7 Q398 -10 441 -8 Q470 -7 470 20 L470 820 L539 820 ZM771 594 Q930 344 970 153 L901 124 Q858 325 709 570 L771 594 ZM281 574 Q216 283 99 140 Q71 161 37 176 Q157 315 208 587 L281 574 Z" /><glyph glyph-name="" unicode="&#x5c11;" d="M294 659 Q214 463 116 333 Q84 353 58 365 Q154 480 232 675 L294 659 ZM761 677 Q895 486 948 374 L891 341 Q828 476 707 650 L761 677 ZM826 293 Q636 0 70 -74 Q60 -40 38 -10 Q592 52 766 321 L826 293 ZM519 835 L519 224 L453 224 L453 835 L519 835 Z" /><glyph glyph-name="" unicode="&#x5c14;" d="M261 606 Q195 490 119 409 Q88 436 59 449 Q206 590 295 836 L361 819 Q338 754 296 670 L882 670 L894 674 L943 655 Q878 506 817 426 L760 448 Q807 509 849 606 L261 606 ZM337 395 Q260 200 128 65 Q103 88 71 106 Q196 219 271 412 L337 395 ZM473 550 L541 550 L541 12 Q541 -49 498 -64 Q464 -75 320 -75 Q316 -52 297 -9 Q408 -12 449 -10 Q473 -9 473 12 L473 550 ZM716 409 Q861 225 918 98 L857 67 Q796 205 660 385 L716 409 Z" /><glyph glyph-name="" unicode="&#x5c1d;" d="M833 794 Q775 711 716 651 L662 674 Q721 742 765 819 L833 794 ZM159 454 L92 454 L92 651 L276 651 Q244 715 182 791 L241 817 Q309 740 339 680 L278 651 L465 651 L465 836 L535 836 L535 651 L912 651 L912 454 L843 454 L843 592 L159 592 L159 454 ZM191 430 L191 493 L800 493 L800 430 L191 430 ZM444 252 Q345 117 243 24 L739 56 Q673 132 614 188 L671 219 Q832 71 899 -43 L837 -78 Q814 -39 784 -1 Q179 -46 143 -59 Q132 -18 120 12 Q145 17 192 64 Q261 123 353 252 L68 252 L68 317 L928 317 L928 252 L444 252 Z" /><glyph glyph-name="" unicode="&#x5c31;" d="M868 613 Q834 688 767 760 L813 786 Q883 713 916 643 L868 613 ZM512 651 L58 651 L58 710 L276 710 Q257 765 229 823 L289 836 Q329 761 345 710 L512 710 L512 651 ZM206 260 Q170 114 105 23 Q79 42 56 55 Q118 138 150 272 L206 260 ZM173 385 L408 385 L408 511 L173 511 L173 385 ZM325 330 L325 -2 Q325 -46 297 -59 Q270 -71 192 -69 Q190 -49 172 -14 Q234 -16 251 -14 Q265 -14 265 -1 L265 330 L114 330 L114 566 L469 566 L469 330 L325 330 ZM442 86 Q425 162 370 262 L418 284 Q476 183 492 109 L442 86 ZM712 516 Q677 95 486 -76 Q470 -57 438 -37 Q619 120 651 516 L521 516 L521 576 L656 576 Q660 640 662 833 L724 833 Q722 645 717 576 L949 576 L949 516 L712 516 ZM861 1 Q885 1 893 5 Q904 11 908 33 Q911 52 913 140 Q932 123 965 113 Q963 28 955 -3 Q946 -32 924 -41 Q907 -51 868 -51 L804 -51 Q763 -51 744 -36 Q721 -20 721 53 L721 431 L780 431 L780 45 Q780 11 789 6 Q798 1 814 1 L861 1 Z" /><glyph glyph-name="" unicode="&#x5c3d;" d="M267 130 Q563 70 763 -21 L725 -81 Q538 13 233 79 L267 130 ZM359 378 Q543 333 662 269 L629 212 Q512 277 327 327 L359 378 ZM252 615 Q252 579 251 560 L787 560 L787 732 L252 732 L252 615 ZM699 497 Q789 252 965 161 Q933 134 918 106 Q727 216 634 497 L247 497 Q222 235 91 93 Q64 128 40 142 Q184 298 184 616 L184 795 L854 795 L854 497 L699 497 Z" /><glyph glyph-name="" unicode="&#x5c3e;" d="M205 728 L205 609 L813 609 L813 728 L205 728 ZM205 550 L205 496 Q205 111 94 -74 Q68 -52 36 -40 Q139 131 139 495 L139 787 L880 787 L880 550 L205 550 ZM821 0 Q854 0 865 21 Q875 42 879 113 Q902 97 940 87 Q932 -2 911 -30 Q888 -61 825 -61 L616 -61 Q541 -61 515 -40 Q488 -18 488 44 L488 126 L226 85 L216 141 L488 183 L488 281 L261 246 L250 300 L488 338 L488 429 Q413 415 275 397 Q270 420 256 446 Q581 488 727 544 L784 500 Q693 469 553 441 L553 347 L840 391 L850 337 L553 291 L553 193 L911 249 L921 194 L553 136 L553 45 Q553 17 565 9 Q578 0 619 0 L821 0 Z" /><glyph glyph-name="" unicode="&#x5c40;" d="M372 245 L372 102 L625 102 L625 245 L372 245 ZM372 47 L372 -11 L310 -11 L310 301 L687 301 L687 47 L372 47 ZM223 724 L223 590 L773 590 L773 724 L223 724 ZM908 442 L907 411 Q888 2 851 -43 Q829 -69 784 -73 Q729 -77 650 -71 Q646 -33 630 -9 Q697 -15 756 -15 Q782 -15 793 -2 Q826 34 839 382 L217 382 Q192 105 85 -50 Q70 -29 33 -8 Q157 172 157 546 L157 782 L839 782 L839 532 L223 532 Q223 506 221 442 L908 442 Z" /><glyph glyph-name="" unicode="&#x5c42;" d="M205 728 L205 603 L814 603 L814 728 L205 728 ZM205 544 L205 497 Q205 111 94 -74 Q66 -50 36 -41 Q139 131 139 496 L139 787 L881 787 L881 544 L205 544 ZM304 396 L304 455 L870 455 L870 396 L304 396 ZM531 226 Q455 108 369 16 L771 40 Q733 101 686 168 L742 193 Q858 27 906 -54 L845 -85 Q839 -73 804 -14 Q314 -46 284 -57 Q273 -17 261 6 Q283 9 320 52 Q376 108 446 226 L237 226 L237 285 L939 285 L939 226 L531 226 Z" /><glyph glyph-name="" unicode="&#x5c4f;" d="M207 728 L207 620 L817 620 L817 728 L207 728 ZM207 561 L207 465 Q207 95 93 -78 Q72 -57 36 -41 Q141 119 141 465 L141 787 L887 787 L887 561 L207 561 ZM411 427 Q384 477 349 528 L409 547 Q446 497 472 450 L411 427 ZM682 217 L682 360 L476 360 L476 260 Q476 232 475 217 L682 217 ZM942 159 L748 159 L748 -77 L682 -77 L682 159 L468 159 Q436 3 258 -78 Q240 -48 214 -29 Q369 39 400 159 L224 159 L224 217 L409 217 Q411 232 411 261 L411 360 L250 360 L250 418 L672 418 Q715 487 742 551 L810 531 Q773 466 737 418 L914 418 L914 360 L748 360 L748 217 L942 217 L942 159 Z" /><glyph glyph-name="" unicode="&#x5c55;" d="M211 728 L211 620 L818 620 L818 728 L211 728 ZM211 561 L211 496 Q211 109 94 -76 Q63 -52 36 -42 Q145 129 145 496 L145 787 L885 787 L885 561 L211 561 ZM463 286 L672 286 L672 397 L463 397 L463 286 ZM890 183 Q819 127 725 78 Q821 6 957 -22 Q932 -46 916 -77 Q643 -8 539 227 L395 227 L395 14 L618 65 Q613 27 616 9 Q330 -63 311 -76 Q306 -49 283 -19 Q331 6 331 55 L331 227 L218 227 L218 286 L401 286 L401 397 L247 397 L247 455 L401 455 L401 548 L463 548 L463 455 L672 455 L672 548 L734 548 L734 455 L907 455 L907 397 L734 397 L734 286 L946 286 L946 227 L601 227 Q630 168 684 113 Q768 162 840 218 L890 183 Z" /><glyph glyph-name="" unicode="&#x5c5e;" d="M209 737 L209 643 L814 643 L814 737 L209 737 ZM209 589 L209 501 Q209 115 94 -69 Q69 -48 37 -36 Q144 135 144 501 L144 792 L881 792 L881 589 L209 589 ZM538 309 L538 385 L352 385 L352 309 L538 309 ZM599 385 L599 309 L790 309 L790 385 L599 385 ZM897 -13 Q897 -55 866 -66 Q844 -75 739 -75 Q736 -58 721 -26 Q794 -29 819 -27 Q835 -27 835 -13 L835 156 L599 156 L599 74 L699 78 Q686 98 666 124 L706 138 Q765 65 802 1 L761 -17 Q751 1 730 32 Q673 29 531 23 Q414 17 360 15 L356 66 Q422 69 538 72 L538 156 L313 156 L313 -77 L251 -77 L251 205 L538 205 L538 265 L291 265 L291 429 L538 429 L538 487 Q412 480 284 478 Q282 495 270 523 Q621 529 795 561 L836 520 Q759 505 599 492 L599 429 L853 429 L853 265 L599 265 L599 205 L897 205 L897 -13 Z" /><glyph glyph-name="" unicode="&#x5d4c;" d="M655 590 Q649 552 636 496 L896 496 L907 498 L948 486 Q908 330 884 271 L833 285 Q851 330 876 437 L621 437 Q590 324 541 248 Q516 269 487 283 Q561 386 594 601 L655 590 ZM882 627 L121 627 L121 802 L188 802 L188 684 L465 684 L465 836 L533 836 L533 684 L813 684 L813 802 L882 802 L882 627 ZM381 410 L194 410 L194 274 L381 274 L381 410 ZM381 71 L381 218 L194 218 L194 71 L381 71 ZM443 410 L443 -62 L381 -62 L381 11 L194 11 L194 -75 L131 -75 L131 410 L47 410 L47 471 L131 471 L131 579 L194 579 L194 471 L381 471 L381 579 L443 579 L443 471 L524 471 L524 410 L443 410 ZM756 349 Q756 300 750 259 Q811 52 955 -25 Q928 -47 910 -75 Q794 -6 723 158 Q669 19 520 -76 Q504 -53 469 -34 Q690 99 690 350 L690 384 L756 384 L756 349 Z" /><glyph glyph-name="" unicode="&#x2f2f;&#x5de5;" d="M947 69 L947 2 L56 2 L56 69 L462 69 L462 653 L107 653 L107 721 L898 721 L898 653 L535 653 L535 69 L947 69 Z" /><glyph glyph-name="" unicode="&#x5de6;" d="M392 589 Q289 181 78 -13 Q58 15 34 39 Q229 215 325 589 L72 589 L72 654 L341 654 Q357 730 375 835 L442 826 Q427 733 408 654 L926 654 L926 589 L392 589 ZM945 19 L945 -45 L232 -45 L232 19 L561 19 L561 328 L334 328 L334 392 L898 392 L898 328 L629 328 L629 19 L945 19 Z" /><glyph glyph-name="" unicode="&#x5de7;" d="M418 244 L425 181 Q288 148 52 94 L37 162 Q98 173 199 196 L199 639 L46 639 L46 705 L406 705 L406 639 L266 639 L266 209 L418 244 ZM630 708 Q595 543 568 433 L930 433 Q929 410 928 401 Q900 23 848 -28 Q822 -57 761 -62 Q702 -65 582 -57 Q579 -25 556 10 Q646 2 741 2 Q778 2 790 13 Q833 49 858 369 L481 369 Q522 502 562 708 L412 708 L412 774 L955 774 L955 708 L630 708 Z" /><glyph glyph-name="" unicode="&#x5dee;" d="M413 332 Q387 280 365 247 L861 247 L861 185 L628 185 L628 32 L933 32 L933 -30 L225 -30 L225 32 L560 32 L560 185 L356 185 L356 233 Q257 84 92 -10 Q77 17 44 45 Q234 141 337 332 L64 332 L64 395 L368 395 Q383 428 404 490 L156 490 L156 550 L422 550 Q436 601 444 642 L109 642 L109 704 L311 704 Q281 761 242 809 L299 833 Q357 765 384 704 L621 704 Q663 761 698 837 L769 815 Q729 751 695 704 L899 704 L899 642 L514 642 Q503 594 491 550 L850 550 L850 490 L475 490 Q454 428 440 395 L937 395 L937 332 L413 332 Z" /><glyph glyph-name="" unicode="&#x2f30;&#x5df1;" d="M750 12 Q829 12 854 46 Q877 79 886 196 Q913 178 952 170 Q940 35 903 -7 Q863 -53 748 -53 L362 -53 Q242 -53 201 -28 Q156 -1 156 78 L156 451 L756 451 L756 709 L144 709 L144 776 L825 776 L825 322 L756 322 L756 386 L224 386 L224 78 Q224 39 250 26 Q276 12 357 12 L750 12 Z" /><glyph glyph-name="" unicode="&#x5df2;" d="M738 19 Q820 19 845 57 Q869 92 880 216 Q907 197 947 189 Q933 48 895 3 Q854 -47 737 -47 L356 -47 Q237 -47 195 -18 Q151 12 151 99 L151 604 L218 604 L218 435 L753 435 L753 706 L96 706 L96 772 L821 772 L821 320 L753 320 L753 370 L218 370 L218 97 Q218 50 244 34 Q269 19 350 19 L738 19 Z" /><glyph glyph-name="" unicode="&#x5e03;" d="M393 616 Q350 522 284 429 L513 429 L513 566 L580 566 L580 429 L881 429 L881 106 Q881 53 843 39 Q813 28 674 28 Q670 54 651 88 Q685 87 793 87 Q814 88 814 107 L814 365 L580 365 L580 -77 L513 -77 L513 365 L291 365 L291 17 L225 17 L225 353 Q156 275 76 218 Q53 254 36 273 Q209 392 319 616 L64 616 L64 680 L349 680 Q378 745 404 836 L473 820 Q450 747 422 680 L937 680 L937 616 L393 616 Z" /><glyph glyph-name="" unicode="&#x5e08;" d="M161 240 L101 240 L101 721 L161 721 L161 240 ZM259 835 L321 835 L321 436 Q321 262 293 157 Q256 17 155 -75 Q134 -48 105 -32 Q259 109 259 437 L259 835 ZM687 721 L687 592 L903 592 L903 147 Q903 100 874 87 Q850 75 762 75 Q757 103 741 134 Q782 133 826 133 Q841 133 841 148 L841 532 L687 532 L687 -74 L624 -74 L624 532 L482 532 L482 67 L421 67 L421 592 L624 592 L624 721 L384 721 L384 782 L944 782 L944 721 L687 721 Z" /><glyph glyph-name="" unicode="&#x5e27;" d="M546 125 L488 125 L488 591 L652 591 L652 833 L716 833 L716 744 L942 744 L942 683 L716 683 L716 591 L889 591 L889 127 L829 127 L829 533 L546 533 L546 125 ZM413 204 Q413 162 392 148 Q373 136 318 136 Q315 166 298 195 L351 195 Q360 195 360 206 L360 585 L274 585 L274 -76 L216 -76 L216 585 L134 585 L134 129 L82 129 L82 645 L216 645 L216 834 L274 834 L274 645 L413 645 L413 204 ZM721 282 Q721 168 671 92 Q603 -14 432 -77 Q420 -50 393 -25 Q555 29 617 121 Q659 184 659 282 L659 458 L721 458 L721 282 ZM739 105 Q879 33 949 -31 L912 -78 Q837 -8 702 63 L739 105 Z" /><glyph glyph-name="" unicode="&#x5e2e;" d="M317 431 Q260 317 122 261 Q107 282 76 309 Q190 349 243 431 L54 431 L54 485 L269 485 Q280 518 280 550 L280 569 L92 569 L92 622 L280 622 L280 699 L71 699 L71 754 L280 754 L280 835 L347 835 L347 754 L534 754 L534 699 L347 699 L347 622 L515 622 L515 569 L347 569 L347 549 Q347 521 338 485 L542 485 L542 431 L317 431 ZM861 55 Q861 4 822 -9 Q791 -19 654 -19 Q648 8 631 38 Q744 36 772 38 Q793 39 793 56 L793 200 L532 200 L532 -75 L464 -75 L464 200 L222 200 L222 -23 L155 -23 L155 261 L464 261 L464 340 L532 340 L532 261 L861 261 L861 55 ZM931 768 Q856 663 805 604 Q921 533 923 458 Q923 398 875 373 Q850 360 816 356 Q761 351 699 356 Q695 386 677 413 Q736 406 789 410 Q812 411 832 418 Q858 430 858 462 Q856 527 733 595 Q781 656 832 735 L650 735 L650 303 L586 303 L586 793 L875 793 L886 796 L931 768 Z" /><glyph glyph-name="" unicode="&#x5e38;" d="M834 802 Q777 723 733 681 L680 703 Q729 761 766 827 L834 802 ZM307 389 L699 389 L699 493 L307 493 L307 389 ZM855 41 Q855 -10 819 -24 Q791 -34 660 -34 Q654 -9 637 26 Q734 23 768 25 Q788 26 788 41 L788 190 L546 190 L546 -76 L479 -76 L479 190 L223 190 L223 -31 L156 -31 L156 251 L479 251 L479 337 L244 337 L244 544 L766 544 L766 337 L546 337 L546 251 L855 251 L855 41 ZM233 826 Q291 760 319 707 L256 678 Q233 729 174 801 L233 826 ZM917 678 L917 468 L851 468 L851 619 L155 619 L155 468 L91 468 L91 678 L473 678 L473 836 L541 836 L541 678 L917 678 Z" /><glyph glyph-name="" unicode="&#x5e55;" d="M300 713 L62 713 L62 769 L300 769 L300 835 L364 835 L364 769 L631 769 L631 835 L696 835 L696 769 L937 769 L937 713 L696 713 L696 664 L631 664 L631 713 L364 713 L364 664 L300 664 L300 713 ZM734 182 Q682 218 643 261 L358 261 Q315 218 263 182 L464 182 L464 242 L529 242 L529 182 L734 182 ZM242 418 L766 418 L766 488 L242 488 L242 418 ZM242 531 L766 531 L766 600 L242 600 L242 531 ZM715 261 Q821 173 962 137 Q935 112 921 87 Q856 108 797 143 L797 17 Q797 -26 767 -39 Q747 -47 644 -47 Q640 -26 625 4 Q695 1 717 3 Q732 4 732 17 L732 128 L529 128 L529 -73 L464 -73 L464 128 L277 128 L277 -51 L213 -51 L213 150 Q161 117 81 84 Q66 113 42 132 Q172 181 270 261 L56 261 L56 316 L328 316 Q355 348 372 373 L178 373 L178 645 L832 645 L832 373 L446 373 Q432 348 407 316 L944 316 L944 261 L715 261 Z" /><glyph glyph-name="" unicode="&#x2f32;&#x5e72;" d="M945 362 L533 362 L533 -75 L461 -75 L461 362 L58 362 L58 431 L461 431 L461 695 L109 695 L109 762 L899 762 L899 695 L533 695 L533 431 L945 431 L945 362 Z" /><glyph glyph-name="" unicode="&#x5e73;" d="M946 279 L532 279 L532 -75 L464 -75 L464 279 L56 279 L56 345 L464 345 L464 701 L108 701 L108 767 L890 767 L890 701 L532 701 L532 345 L946 345 L946 279 ZM239 650 Q312 519 337 421 L274 400 Q248 502 180 633 L239 650 ZM647 414 Q713 526 758 656 L828 635 Q759 481 703 396 L647 414 Z" /><glyph glyph-name="" unicode="&#x5e74;&#xf98e;" d="M516 220 L516 427 L284 427 L284 220 L516 220 ZM950 156 L583 156 L583 -76 L516 -76 L516 156 L52 156 L52 220 L217 220 L217 490 L516 490 L516 649 L268 649 Q197 528 113 449 Q67 484 55 491 Q203 618 285 838 L351 822 Q329 763 303 713 L903 713 L903 649 L583 649 L583 490 L882 490 L882 427 L583 427 L583 220 L950 220 L950 156 Z" /><glyph glyph-name="" unicode="&#x5e76;" d="M327 633 Q299 711 222 810 L282 836 Q362 737 391 661 L327 633 ZM646 342 L646 565 L358 565 L358 342 L646 342 ZM945 278 L715 278 L715 -76 L646 -76 L646 278 L354 278 Q330 33 105 -82 Q86 -52 58 -30 Q260 73 285 278 L56 278 L56 342 L290 342 L290 565 L94 565 L94 629 L614 629 Q669 726 708 838 L783 815 Q726 698 685 629 L913 629 L913 565 L715 565 L715 342 L945 342 L945 278 Z" /><glyph glyph-name="" unicode="&#x5e78;" d="M532 157 L922 157 L922 97 L532 97 L532 -76 L463 -76 L463 97 L80 97 L80 157 L463 157 L463 279 L133 279 L133 339 L304 339 Q286 402 244 469 L306 488 Q351 420 371 356 L320 339 L623 339 Q666 412 694 487 L764 467 Q705 364 690 339 L875 339 L875 279 L532 279 L532 157 ZM950 549 L950 489 L52 489 L52 549 L463 549 L463 667 L157 667 L157 726 L463 726 L463 836 L532 836 L532 726 L846 726 L846 667 L532 667 L532 549 L950 549 Z" /><glyph glyph-name="" unicode="&#x5e8f;" d="M897 341 L944 320 Q832 170 782 122 L729 149 Q784 203 840 279 L611 279 L611 4 Q611 -52 566 -67 Q531 -77 383 -77 Q377 -49 359 -14 Q461 -18 521 -15 Q544 -14 544 5 L544 279 L228 279 L228 337 L592 337 Q477 397 373 443 L412 482 Q474 456 562 415 Q656 463 733 530 L288 530 L288 586 L792 586 L807 589 L850 557 Q759 462 621 387 Q684 355 701 345 L694 337 L884 337 L897 341 ZM947 722 L947 660 L189 660 L189 446 Q189 94 92 -79 Q69 -55 37 -42 Q125 115 125 446 L125 722 L522 722 Q508 753 474 821 L536 840 Q572 780 598 722 L947 722 Z" /><glyph glyph-name="" unicode="&#x5e93;" d="M190 671 L190 446 Q190 92 92 -81 Q68 -57 36 -42 Q124 112 124 446 L124 734 L519 734 Q495 784 471 816 L534 835 Q571 789 594 734 L948 734 L948 671 L190 671 ZM950 83 L661 83 L661 -75 L595 -75 L595 83 L231 83 L231 144 L595 144 L595 265 L418 265 Q341 265 325 251 Q317 288 303 316 Q325 321 357 375 Q397 443 418 485 L260 485 L260 546 L447 546 Q468 592 486 646 L554 622 Q538 585 519 546 L907 546 L907 485 L490 485 Q443 394 396 325 L595 325 L595 434 L661 434 L661 325 L885 325 L885 265 L661 265 L661 144 L950 144 L950 83 Z" /><glyph glyph-name="" unicode="&#x5e94;" d="M192 642 L192 433 Q192 88 98 -83 Q76 -61 41 -46 Q125 110 125 433 L125 705 L527 705 Q493 785 470 825 L534 842 Q573 776 600 709 L587 705 L937 705 L937 642 L192 642 ZM568 203 Q550 332 485 544 L545 562 Q609 356 631 221 L568 203 ZM374 148 Q347 280 265 490 L323 514 Q403 312 436 173 L374 148 ZM951 36 L951 -28 L209 -28 L209 36 L609 36 Q755 270 822 567 L891 542 Q813 269 677 36 L951 36 Z" /><glyph glyph-name="" unicode="&#x5e95;" d="M190 673 L190 446 Q190 94 92 -81 Q73 -59 37 -42 Q125 112 125 446 L125 734 L525 734 Q508 778 480 817 L541 838 Q574 795 599 734 L948 734 L948 673 L190 673 ZM567 176 Q641 45 670 -31 L617 -56 Q585 30 517 157 L567 176 ZM612 350 Q597 445 593 530 Q484 520 366 515 L366 350 L612 350 ZM688 290 Q718 158 766 78 Q814 -2 863 -2 Q894 -2 900 143 Q924 122 953 113 Q946 11 925 -28 Q905 -65 859 -65 Q782 -65 718 34 Q658 128 624 290 L366 290 L366 35 L524 86 Q522 61 527 31 Q310 -45 286 -64 Q281 -35 263 -8 Q304 7 304 47 L304 568 Q640 581 821 619 L874 568 Q780 548 657 536 Q661 441 677 350 L917 350 L917 290 L688 290 Z" /><glyph glyph-name="" unicode="&#x5ea6;" d="M197 463 Q197 104 101 -76 Q79 -58 42 -46 Q131 119 131 463 L131 734 L519 734 Q501 776 475 824 L541 840 Q569 795 594 734 L944 734 L944 671 L197 671 L197 463 ZM450 499 L450 387 L703 387 L703 499 L450 499 ZM387 333 L387 499 L222 499 L222 555 L387 555 L387 645 L450 645 L450 555 L703 555 L703 645 L769 645 L769 555 L933 555 L933 499 L769 499 L769 333 L387 333 ZM400 209 Q460 131 576 76 Q698 128 763 209 L400 209 ZM860 244 Q794 124 647 46 Q786 -3 957 -18 Q935 -41 919 -76 Q715 -50 575 13 Q425 -47 218 -70 Q209 -44 190 -13 Q365 1 505 48 Q400 108 338 194 L374 209 L237 209 L237 264 L806 264 L819 267 L860 244 Z" /><glyph glyph-name="" unicode="&#x5ef6;" d="M653 711 Q567 697 418 679 Q411 714 399 733 Q726 771 879 829 L930 778 Q858 751 719 723 L719 506 L937 506 L937 446 L719 446 L719 185 L945 185 L945 127 L438 127 L438 557 L500 557 L500 185 L653 185 L653 711 ZM364 474 Q337 263 267 124 Q387 16 674 14 Q914 14 963 15 Q941 -17 936 -49 L673 -49 Q370 -49 235 70 Q175 -25 88 -81 Q68 -54 39 -34 Q128 19 189 116 Q125 195 84 322 L137 344 Q167 241 220 173 Q271 280 293 424 L77 424 Q150 540 237 710 L55 710 L55 770 L334 770 Q252 610 182 483 L313 483 L324 485 L364 474 Z" /><glyph glyph-name="" unicode="&#x5efa;" d="M655 693 L655 615 L811 615 L811 693 L655 693 ZM811 560 L655 560 L655 480 L811 480 L811 560 ZM592 693 L396 693 L396 747 L592 747 L592 830 L655 830 L655 747 L871 747 L871 615 L943 615 L943 560 L871 560 L871 426 L655 426 L655 345 L892 345 L892 293 L655 293 L655 206 L930 206 L930 151 L655 151 L655 46 L592 46 L592 151 L339 151 L339 206 L592 206 L592 293 L381 293 L381 345 L592 345 L592 426 L388 426 L388 480 L592 480 L592 560 L329 560 L329 615 L592 615 L592 693 ZM332 486 Q310 283 245 136 Q364 11 657 11 Q911 11 958 12 Q940 -12 932 -50 L656 -50 Q348 -50 217 81 Q165 -11 91 -69 Q62 -35 42 -23 Q119 32 174 131 Q120 204 84 323 L134 343 Q160 254 202 190 Q246 300 265 435 L103 435 Q173 555 248 712 L68 712 L68 772 L344 772 Q283 643 203 495 L283 495 L295 496 L332 486 Z" /><glyph glyph-name="" unicode="&#x5f00;" d="M652 414 L652 705 L365 705 L365 459 Q365 429 364 414 L652 414 ZM945 350 L720 350 L720 -77 L652 -77 L652 350 L361 350 Q337 63 111 -79 Q88 -50 59 -31 Q270 100 293 350 L56 350 L56 414 L297 414 Q298 429 298 459 L298 705 L94 705 L94 769 L913 769 L913 705 L720 705 L720 414 L945 414 L945 350 Z" /><glyph glyph-name="" unicode="&#x5f02;" d="M210 731 L210 610 L761 610 L761 731 L210 731 ZM349 369 Q228 369 187 391 Q144 413 144 481 L144 789 L826 789 L826 552 L210 552 L210 482 Q210 449 234 439 Q259 429 343 429 L753 429 Q815 429 834 447 Q852 465 857 529 Q886 511 921 506 Q911 423 880 397 Q848 369 754 369 L349 369 ZM947 161 L720 161 L720 -73 L655 -73 L655 161 L322 161 Q289 4 102 -79 Q87 -54 58 -29 Q221 41 253 161 L56 161 L56 222 L264 222 Q265 234 265 257 L265 336 L331 336 L331 256 Q331 234 330 222 L655 222 L655 335 L720 335 L720 222 L947 222 L947 161 Z" /><glyph glyph-name="" unicode="&#x5f0f;" d="M852 663 Q805 722 707 790 L752 827 Q848 762 899 705 L852 663 ZM342 78 Q474 106 560 125 L566 66 Q247 -9 84 -45 L63 19 L276 63 L276 363 L93 363 L93 427 L533 427 L533 363 L342 363 L342 78 ZM646 582 Q665 319 722 157 Q780 -9 857 -9 Q894 -9 904 181 Q926 159 962 145 Q953 16 930 -31 Q907 -78 852 -78 Q737 -78 665 112 Q600 283 578 582 L58 582 L58 647 L574 647 Q570 707 568 831 L638 831 Q638 726 642 647 L943 647 L943 582 L646 582 Z" /><glyph glyph-name="" unicode="&#x5f15;" d="M545 340 Q544 318 543 309 Q519 6 475 -38 Q449 -65 399 -68 Q343 -71 241 -65 Q239 -28 217 2 Q284 -4 375 -4 Q407 -4 418 6 Q452 33 473 278 L93 278 Q124 402 147 563 L475 563 L475 731 L108 731 L108 794 L540 794 L540 501 L205 501 Q183 380 174 340 L545 340 ZM851 826 L851 -76 L785 -76 L785 826 L851 826 Z" /><glyph glyph-name="" unicode="&#x5f1f;" d="M230 421 Q215 350 201 292 L468 292 L468 421 L230 421 ZM534 482 L804 482 L804 620 L534 620 L534 482 ZM917 262 Q898 43 863 9 Q841 -14 799 -17 Q756 -20 664 -15 Q662 21 644 48 Q710 42 770 42 Q798 42 808 51 Q832 75 847 231 L534 231 L534 -76 L468 -76 L468 182 Q325 27 106 -50 Q88 -17 60 8 Q291 77 428 231 L120 231 Q150 331 176 482 L468 482 L468 620 L115 620 L115 682 L303 682 Q280 739 230 813 L291 833 Q349 753 371 694 L340 682 L630 682 Q679 762 707 836 L777 816 Q742 748 700 682 L872 682 L872 421 L534 421 L534 292 L920 292 L917 262 Z" /><glyph glyph-name="" unicode="&#x5f20;" d="M912 771 Q814 595 646 480 Q609 514 595 523 Q757 624 847 790 L912 771 ZM365 339 L363 310 Q347 0 311 -39 Q289 -63 246 -66 Q199 -70 121 -65 Q117 -30 100 -6 Q152 -10 220 -10 Q244 -11 255 0 Q281 26 295 278 L95 278 Q112 395 123 572 L295 572 L295 733 L98 733 L98 795 L359 795 L359 509 L180 509 Q169 378 164 339 L365 339 ZM722 382 Q794 93 967 -8 Q939 -31 921 -61 Q735 62 659 382 L556 382 L556 29 L713 89 Q713 56 717 28 Q493 -66 475 -82 Q464 -47 446 -24 Q491 -4 491 42 L491 382 L376 382 L376 446 L491 446 L491 816 L556 816 L556 446 L954 446 L954 382 L722 382 Z" /><glyph glyph-name="" unicode="&#x5f31;" d="M463 409 L461 378 Q438 7 397 -38 Q376 -63 334 -67 Q297 -70 216 -65 Q214 -34 199 -5 Q245 -10 306 -10 Q331 -10 341 2 Q363 24 375 129 L81 25 L56 82 Q138 106 381 187 Q388 246 394 351 L102 351 Q115 475 115 607 L388 607 L388 742 L88 742 L88 802 L455 802 L455 546 L177 546 Q173 450 170 409 L463 409 ZM128 317 Q266 278 338 232 L311 180 Q239 228 100 270 L128 317 ZM919 409 Q919 387 918 378 Q899 -1 860 -45 Q837 -72 790 -75 Q755 -79 647 -73 Q643 -37 629 -13 Q688 -19 765 -19 Q792 -19 804 -7 Q826 13 837 138 Q812 128 540 28 L516 85 Q598 110 842 195 Q850 310 852 351 L544 351 Q554 448 558 607 L840 607 L840 741 L532 741 L532 801 L906 801 L906 546 L621 546 Q618 484 613 409 L919 409 ZM576 317 Q706 280 786 232 L758 180 Q680 230 547 270 L576 317 Z" /><glyph glyph-name="" unicode="&#x5f3a;" d="M62 782 L367 782 L367 499 L143 499 Q133 402 123 332 L361 332 L359 302 Q340 0 303 -40 Q282 -65 240 -68 Q194 -72 126 -66 Q122 -31 107 -5 Q165 -10 214 -10 Q239 -10 248 1 Q277 27 293 272 L52 272 Q78 412 89 560 L305 560 L305 721 L62 721 L62 782 ZM629 238 L629 388 L486 388 L486 238 L629 238 ZM693 388 L693 238 L839 238 L839 388 L693 388 ZM510 595 L811 595 L811 725 L510 725 L510 595 ZM903 -84 Q892 -52 871 -14 Q690 -29 391 -50 L382 14 L629 29 L629 181 L427 181 L427 444 L629 444 L629 538 L449 538 L449 782 L874 782 L874 538 L693 538 L693 444 L901 444 L901 181 L693 181 L693 33 Q715 34 766 38 L840 43 Q809 93 778 136 L832 159 Q927 36 960 -57 L903 -84 Z" /><glyph glyph-name="" unicode="&#x5f53;" d="M876 775 Q794 618 730 528 L675 552 Q752 666 806 800 L876 775 ZM257 536 Q219 646 127 766 L186 791 Q277 678 320 564 L257 536 ZM535 482 L863 482 L863 -77 L794 -77 L794 -33 L120 -33 L120 33 L794 33 L794 199 L171 199 L171 263 L794 263 L794 416 L139 416 L139 482 L464 482 L464 836 L535 836 L535 482 Z" /><glyph glyph-name="" unicode="&#x5f55;" d="M867 328 Q775 247 668 179 Q786 67 950 21 Q924 -1 907 -36 Q668 39 534 251 L534 -1 Q534 -53 494 -68 Q459 -79 338 -77 Q333 -56 314 -18 Q407 -23 445 -20 Q467 -19 467 0 L467 150 Q293 71 109 -6 L74 53 Q159 85 467 212 L467 399 L70 399 L70 458 L731 458 L737 557 L168 557 L168 618 L741 618 L745 717 L140 717 L140 778 L754 778 L766 782 L817 778 Q814 625 799 458 L937 458 L937 399 L534 399 L534 367 Q569 290 628 220 Q744 300 811 369 L867 328 ZM322 190 Q261 253 141 322 L185 362 Q310 293 368 236 L322 190 Z" /><glyph glyph-name="" unicode="&#x5f62;" d="M910 793 Q803 657 624 559 Q595 593 576 605 Q751 692 848 818 L910 793 ZM940 520 Q819 370 633 268 Q605 301 586 315 Q771 408 879 545 L940 520 ZM411 446 L411 711 L241 711 L241 446 L411 446 ZM476 384 L476 -75 L411 -75 L411 384 L240 384 Q235 77 92 -81 Q73 -56 43 -36 Q171 104 178 384 L46 384 L46 446 L179 446 L179 711 L61 711 L61 773 L572 773 L572 711 L476 711 L476 446 L586 446 L586 384 L476 384 ZM964 251 Q836 41 581 -76 Q558 -40 534 -22 Q784 80 902 275 L964 251 Z" /><glyph glyph-name="" unicode="&#x5f71;" d="M905 789 Q802 653 642 555 Q615 586 593 601 Q751 689 843 814 L905 789 ZM938 521 Q828 376 641 274 Q618 303 594 320 Q781 414 877 547 L938 521 ZM490 753 L177 753 L177 689 L490 689 L490 753 ZM490 644 L177 644 L177 579 L490 579 L490 644 ZM556 532 L114 532 L114 799 L556 799 L556 532 ZM590 410 L64 410 L64 465 L299 465 L274 513 L334 528 Q356 494 369 465 L590 465 L590 410 ZM217 128 Q179 37 108 -35 Q82 -11 61 2 Q126 62 160 144 L217 128 ZM183 218 L480 218 L480 308 L183 308 L183 218 ZM363 170 L363 -2 Q363 -48 333 -59 Q310 -69 217 -69 Q213 -46 197 -14 Q268 -16 284 -14 Q298 -14 298 -1 L298 170 L121 170 L121 356 L545 356 L545 170 L363 170 ZM467 146 Q531 68 563 4 L512 -24 Q480 46 421 123 L467 146 ZM959 234 Q840 41 609 -70 Q592 -45 563 -20 Q788 80 898 257 L959 234 Z" /><glyph glyph-name="" unicode="&#x5f81;" d="M317 809 Q231 675 84 572 Q69 603 49 626 Q187 719 254 833 L317 809 ZM332 589 Q302 534 250 463 L250 -75 L183 -75 L183 382 Q128 321 72 274 Q59 305 35 338 Q184 450 273 611 L332 589 ZM958 16 L958 -48 L318 -48 L318 16 L419 16 L419 498 L483 498 L483 16 L630 16 L630 696 L381 696 L381 759 L924 759 L924 696 L696 696 L696 405 L908 405 L908 343 L696 343 L696 16 L958 16 Z" /><glyph glyph-name="" unicode="&#x5f85;" d="M323 809 Q229 670 84 572 Q69 603 49 626 Q191 720 260 833 L323 809 ZM334 591 Q306 537 254 468 L254 -75 L190 -75 L190 390 Q121 316 70 276 Q62 299 34 340 Q190 455 276 613 L334 591 ZM474 237 Q560 142 595 65 L539 32 Q505 111 421 207 L474 237 ZM814 447 L814 331 L951 331 L951 269 L814 269 L814 9 Q814 -49 776 -63 Q743 -74 618 -74 Q614 -51 595 -10 Q682 -13 729 -10 Q749 -10 749 9 L749 269 L340 269 L340 331 L749 331 L749 447 L328 447 L328 509 L610 509 L610 643 L387 643 L387 704 L610 704 L610 830 L675 830 L675 704 L905 704 L905 643 L675 643 L675 509 L958 509 L958 447 L814 447 Z" /><glyph glyph-name="" unicode="&#x5f88;" d="M322 809 Q230 670 84 573 Q63 610 48 625 Q189 718 258 832 L322 809 ZM334 590 Q302 531 251 464 L251 -76 L187 -76 L187 387 Q126 320 71 276 Q45 324 33 338 Q187 453 275 613 L334 590 ZM467 416 L802 416 L802 548 L467 548 L467 416 ZM467 732 L467 604 L802 604 L802 732 L467 732 ZM918 275 Q853 221 734 149 Q824 35 959 -10 Q934 -32 914 -68 Q662 32 571 357 L467 357 L467 19 L649 64 Q649 23 653 4 Q421 -60 397 -76 Q389 -51 367 -20 Q402 0 402 47 L402 791 L867 791 L867 357 L630 357 Q657 269 703 195 Q811 263 874 321 L918 275 Z" /><glyph glyph-name="" unicode="&#x5f8b;&#xf9d8;" d="M324 808 Q230 670 85 572 Q73 598 50 625 Q192 719 260 832 L324 808 ZM331 592 Q294 526 251 470 L251 -74 L188 -74 L188 394 Q132 329 70 278 Q59 309 34 340 Q188 457 274 614 L331 592 ZM659 430 L816 430 L816 522 L659 522 L659 430 ZM659 580 L816 580 L816 671 L659 671 L659 580 ZM659 373 L659 290 L896 290 L896 232 L659 232 L659 142 L945 142 L945 82 L659 82 L659 -75 L594 -75 L594 82 L321 82 L321 142 L594 142 L594 232 L365 232 L365 290 L594 290 L594 373 L379 373 L379 430 L594 430 L594 522 L335 522 L335 580 L594 580 L594 671 L383 671 L383 727 L594 727 L594 835 L659 835 L659 727 L881 727 L881 580 L955 580 L955 522 L881 522 L881 373 L659 373 Z" /><glyph glyph-name="" unicode="&#x5f97;" d="M816 752 L475 752 L475 667 L816 667 L816 752 ZM816 617 L475 617 L475 530 L816 530 L816 617 ZM883 479 L411 479 L411 804 L883 804 L883 479 ZM319 808 Q227 672 79 572 Q63 605 43 626 Q187 721 256 832 L319 808 ZM330 591 Q295 529 249 469 L249 -75 L185 -75 L185 393 Q117 320 62 278 Q49 311 26 340 Q182 455 273 613 L330 591 ZM462 180 Q547 105 589 39 L539 3 Q500 67 415 149 L462 180 ZM950 200 L799 200 L799 0 Q799 -53 762 -66 Q733 -77 610 -77 Q608 -55 588 -16 Q682 -19 712 -17 Q732 -16 732 1 L732 200 L324 200 L324 259 L732 259 L732 349 L347 349 L347 406 L933 406 L933 349 L799 349 L799 259 L950 259 L950 200 Z" /><glyph glyph-name="" unicode="&#x5faa;" d="M284 813 Q202 677 87 579 Q71 606 50 630 Q159 718 222 834 L284 813 ZM303 606 Q277 555 229 484 L229 -75 L167 -75 L167 402 Q127 352 74 302 Q59 332 37 362 Q167 475 246 628 L303 606 ZM642 608 Q646 691 647 728 Q543 713 410 703 L410 608 L642 608 ZM829 381 L533 381 L533 297 L829 297 L829 381 ZM829 27 L829 116 L533 116 L533 27 L829 27 ZM533 165 L829 165 L829 248 L533 248 L533 165 ZM701 550 L690 438 L893 438 L893 -72 L829 -72 L829 -26 L533 -26 L533 -76 L472 -76 L472 438 L629 438 L638 550 L410 550 L410 426 Q410 88 343 -83 Q317 -61 291 -50 Q348 108 348 426 L348 752 Q690 780 837 821 L888 771 Q814 752 713 736 Q709 647 705 608 L945 608 L945 550 L701 550 Z" /><glyph glyph-name="" unicode="&#x5fae;" d="M614 519 L305 519 L305 754 L353 754 L353 575 L436 575 L436 835 L488 835 L488 575 L564 575 L564 754 L614 754 L614 519 ZM264 813 Q186 685 69 586 Q54 612 32 636 Q144 727 203 835 L264 813 ZM283 618 Q253 555 213 492 L213 -74 L152 -74 L152 404 Q118 355 61 295 Q41 330 21 352 Q147 475 225 638 L283 618 ZM659 186 Q668 154 677 138 Q542 46 524 22 Q516 53 499 79 Q526 96 526 140 L526 263 L387 263 L387 199 Q387 23 296 -73 Q280 -47 253 -29 Q328 52 328 200 L328 317 L581 317 L581 136 L659 186 ZM732 570 Q729 556 721 528 Q745 354 786 238 Q838 365 862 570 L732 570 ZM920 570 Q888 311 815 163 Q875 32 962 -20 Q935 -43 918 -72 Q836 -16 781 101 Q714 -7 608 -78 Q601 -60 570 -29 Q684 41 753 167 Q711 283 688 425 Q669 381 653 351 Q638 370 614 392 L614 384 L283 384 L283 442 L614 442 L614 413 Q687 553 713 835 L775 825 Q763 722 745 628 L955 628 L955 570 L920 570 Z" /><glyph glyph-name="" unicode="&#x2f3c;&#x5fc3;" d="M390 797 Q574 668 658 574 L611 525 Q523 628 346 754 L390 797 ZM825 507 Q928 294 960 131 L896 106 Q862 277 764 483 L825 507 ZM205 469 Q171 225 115 80 L49 109 Q111 251 141 482 L205 469 ZM365 559 L365 60 Q365 26 378 16 Q391 5 434 5 L635 5 Q682 5 697 45 Q710 82 716 217 Q738 199 779 186 Q770 40 746 -6 Q718 -58 638 -58 L431 -58 Q353 -58 325 -33 Q297 -8 297 62 L297 559 L365 559 Z" /><glyph glyph-name="" unicode="&#x5fc5;" d="M566 592 Q446 696 313 785 L356 832 Q491 744 610 645 L566 592 ZM215 512 Q168 281 98 173 L37 199 Q116 320 153 529 L215 512 ZM650 -2 Q693 -2 707 35 Q720 70 725 193 Q751 174 791 164 Q783 26 757 -19 Q730 -68 653 -68 L446 -68 Q368 -68 340 -43 Q312 -17 312 56 L312 120 Q191 39 80 -14 Q65 11 37 37 Q183 104 312 200 L312 590 L381 590 L381 254 Q647 477 794 776 L860 749 Q675 399 381 171 L381 54 Q381 19 394 9 Q407 -2 450 -2 L650 -2 ZM800 501 Q920 329 966 180 L903 150 Q859 300 741 474 L800 501 Z" /><glyph glyph-name="" unicode="&#x5feb;" d="M33 390 Q71 481 85 644 L136 637 Q126 478 86 371 L33 390 ZM175 836 L241 836 L241 -74 L175 -74 L175 836 ZM322 471 Q304 546 249 655 L296 676 Q356 564 372 496 L322 471 ZM649 507 Q649 430 643 376 L808 376 L808 613 L649 613 L649 507 ZM676 312 Q765 57 969 -18 Q940 -44 922 -79 Q719 10 625 271 Q569 43 345 -80 Q326 -51 299 -28 Q524 86 568 312 L329 312 L329 376 L578 376 Q583 432 583 507 L583 613 L384 613 L384 675 L583 675 L583 836 L649 836 L649 675 L873 675 L873 376 L963 376 L963 312 L676 312 Z" /><glyph glyph-name="" unicode="&#x5ff5;" d="M47 1 Q105 82 149 244 L205 224 Q159 51 105 -28 L47 1 ZM176 487 L742 487 L752 490 L797 461 Q725 341 605 239 Q578 262 555 272 Q636 337 699 428 L176 428 L176 487 ZM549 516 Q504 569 410 619 L449 658 Q546 608 590 559 L549 516 ZM416 344 Q540 241 590 159 L537 121 Q481 213 366 311 L416 344 ZM646 10 Q685 10 697 31 Q708 51 712 126 Q736 111 774 101 Q766 8 743 -21 Q719 -51 650 -51 L413 -51 Q329 -51 301 -32 Q273 -13 273 45 L273 251 L338 251 L338 45 Q338 23 352 17 Q367 10 415 10 L646 10 ZM805 260 Q914 115 951 14 L891 -14 Q850 102 749 236 L805 260 ZM542 828 L535 819 Q530 812 527 809 Q689 645 958 561 Q935 540 912 504 Q666 594 489 764 Q335 600 79 494 Q65 524 39 552 Q339 657 481 852 L542 828 Z" /><glyph glyph-name="" unicode="&#x6001;" d="M59 -4 Q123 84 160 240 L219 220 Q172 47 119 -35 L59 -4 ZM648 7 Q688 7 699 28 Q710 48 715 125 Q737 109 775 99 Q768 7 745 -23 Q720 -53 651 -53 L412 -53 Q329 -53 301 -34 Q272 -15 272 42 L272 241 L337 241 L337 42 Q337 20 351 14 Q366 7 414 7 L648 7 ZM438 448 Q543 388 601 327 L543 288 Q486 352 383 413 L438 448 ZM461 298 Q570 206 627 129 L572 93 Q520 169 410 268 L461 298 ZM808 256 Q900 111 932 -7 L868 -30 Q836 93 749 237 L808 256 ZM570 631 Q679 398 951 335 Q924 308 906 274 Q615 355 503 631 L500 631 Q414 358 87 271 Q70 306 50 327 Q349 402 430 631 L60 631 L60 693 L448 693 Q462 758 470 838 L539 838 Q529 753 516 693 L943 693 L943 631 L570 631 Z" /><glyph glyph-name="" unicode="&#x600e;" d="M285 664 Q215 527 120 441 Q93 468 66 485 Q215 611 286 838 L352 822 Q334 767 313 723 L922 723 L922 664 L486 664 L486 570 L872 570 L872 515 L486 515 L486 418 L896 418 L896 361 L486 361 L486 269 L461 269 Q570 193 630 138 L585 92 Q525 150 403 239 L437 269 L419 269 L419 664 L285 664 ZM65 -10 Q117 76 159 219 L217 197 Q163 32 125 -37 L65 -10 ZM649 -2 Q689 -2 701 18 Q713 37 717 110 Q738 94 778 85 Q771 -5 747 -34 Q723 -63 654 -63 L416 -63 Q332 -63 304 -44 Q275 -25 275 31 L275 215 L340 215 L340 31 Q340 11 354 4 Q369 -2 418 -2 L649 -2 ZM815 234 Q907 74 946 -13 L880 -36 Q825 90 752 216 L815 234 Z" /><glyph glyph-name="" unicode="&#x601d;" d="M777 732 L530 732 L530 598 L777 598 L777 732 ZM777 542 L530 542 L530 406 L777 406 L777 542 ZM212 406 L465 406 L465 542 L212 542 L212 406 ZM212 598 L465 598 L465 732 L212 732 L212 598 ZM843 347 L149 347 L149 791 L843 791 L843 347 ZM591 136 Q519 208 382 283 L425 323 Q568 251 636 181 L591 136 ZM54 6 Q121 91 163 245 L222 225 Q170 48 113 -25 L54 6 ZM623 7 Q661 7 672 30 Q683 53 687 138 Q713 121 748 113 Q741 11 719 -21 Q695 -54 629 -54 L421 -54 Q344 -54 317 -35 Q290 -15 290 40 L290 244 L356 244 L356 40 Q356 20 369 13 Q382 7 425 7 L623 7 ZM801 257 Q906 121 945 12 L880 -17 Q845 94 742 233 L801 257 Z" /><glyph glyph-name="" unicode="&#x6027;" d="M33 392 Q71 483 85 647 L136 639 Q124 479 86 374 L33 392 ZM178 836 L244 836 L244 -74 L178 -74 L178 836 ZM305 676 Q356 581 377 508 L327 483 Q306 562 258 655 L305 676 ZM943 24 L943 -40 L334 -40 L334 24 L623 24 L623 282 L408 282 L408 345 L623 345 L623 559 L470 559 Q442 474 399 401 Q366 420 339 431 Q423 554 463 789 L527 779 Q511 691 490 622 L623 622 L623 832 L689 832 L689 622 L920 622 L920 559 L689 559 L689 345 L898 345 L898 282 L689 282 L689 24 L943 24 Z" /><glyph glyph-name="" unicode="&#x602a;" d="M35 390 Q75 482 85 645 L138 637 Q134 481 89 370 L35 390 ZM184 836 L248 836 L248 -73 L184 -73 L184 836 ZM331 474 Q310 557 259 655 L309 677 Q362 572 383 502 L331 474 ZM686 17 L956 17 L956 -44 L333 -44 L333 17 L620 17 L620 196 L381 196 L381 256 L620 256 L620 369 L686 369 L686 256 L919 256 L919 196 L686 196 L686 17 ZM517 725 Q567 626 654 555 Q753 630 804 725 L517 725 ZM893 768 Q836 621 706 516 Q820 442 967 414 Q945 392 925 356 Q770 392 652 477 Q522 393 357 353 Q343 386 322 409 Q476 441 601 518 Q505 605 453 723 L458 725 L392 725 L392 785 L839 785 L852 788 L893 768 Z" /><glyph glyph-name="" unicode="&#x603b;" d="M367 633 Q337 713 264 804 L320 831 Q399 736 427 662 L367 633 ZM741 570 L261 570 L261 385 L741 385 L741 570 ZM814 322 L191 322 L191 632 L574 632 Q642 728 687 834 L755 805 Q668 662 648 632 L814 632 L814 322 ZM458 310 Q580 228 640 150 L592 107 Q528 191 411 273 L458 310 ZM48 11 Q109 83 144 224 L206 211 Q170 63 108 -19 L48 11 ZM651 -4 Q688 -4 699 14 Q710 33 714 100 Q739 83 776 75 Q768 -10 746 -36 Q722 -64 656 -64 L427 -64 Q343 -64 314 -45 Q285 -26 285 31 L285 240 L354 240 L354 31 Q354 9 368 3 Q382 -4 430 -4 L651 -4 ZM810 244 Q918 119 951 27 L898 -6 Q862 95 759 215 L810 244 Z" /><glyph glyph-name="" unicode="&#x606f;" d="M735 688 L262 688 L262 602 L735 602 L735 688 ZM735 550 L262 550 L262 464 L735 464 L735 550 ZM735 412 L262 412 L262 325 L735 325 L735 412 ZM801 271 L198 271 L198 742 L431 742 Q459 805 471 845 L546 831 Q509 760 499 742 L801 742 L801 271 ZM471 270 Q561 194 610 117 L556 84 Q511 161 420 241 L471 270 ZM51 0 Q102 69 154 201 L211 177 Q141 17 111 -29 L51 0 ZM637 4 Q678 4 690 24 Q701 44 705 122 Q729 104 767 96 Q760 3 736 -27 Q712 -57 642 -57 L406 -57 Q323 -57 295 -39 Q266 -20 266 36 L266 202 L332 202 L332 36 Q332 16 346 10 Q360 4 408 4 L637 4 ZM824 217 Q910 107 939 21 L878 -7 Q847 83 765 192 L824 217 Z" /><glyph glyph-name="" unicode="&#x6070;" d="M43 392 Q81 484 95 647 L149 639 Q137 477 99 372 L43 392 ZM179 836 L243 836 L243 -74 L179 -74 L179 836 ZM303 685 Q353 593 370 532 L318 504 Q299 574 253 663 L303 685 ZM490 269 L490 36 L801 36 L801 269 L490 269 ZM426 329 L867 329 L867 -76 L801 -76 L801 -24 L490 -24 L490 -79 L426 -79 L426 329 ZM690 820 Q686 809 676 787 Q790 587 960 486 Q932 464 913 434 Q765 535 647 728 Q582 605 479 507 L815 507 L815 445 L478 445 L478 506 Q425 456 372 419 Q352 447 325 467 Q540 606 627 837 L690 820 Z" /><glyph glyph-name="" unicode="&#x60a8;" d="M465 681 Q417 599 359 544 Q334 569 309 585 Q417 682 471 834 L532 819 Q520 787 498 739 L883 739 L894 742 L940 729 Q874 592 857 566 L801 578 Q828 624 852 681 L465 681 ZM797 564 Q886 460 924 364 L867 334 Q833 424 744 539 L797 564 ZM558 84 Q515 166 414 261 L466 291 Q569 193 613 117 L558 84 ZM531 545 Q483 421 395 335 Q374 354 344 372 Q426 446 470 561 L531 545 ZM683 346 Q683 298 651 284 Q622 273 522 273 Q519 295 501 332 Q583 330 603 332 Q619 333 619 346 L619 644 L683 644 L683 346 ZM53 -6 Q107 72 156 208 L215 184 Q150 21 115 -35 L53 -6 ZM339 818 Q303 746 249 673 L249 269 L185 269 L185 593 Q128 530 84 493 Q61 524 40 543 Q188 657 279 838 L339 818 ZM653 5 Q694 5 706 25 Q718 46 722 123 Q746 105 784 97 Q776 3 752 -26 Q728 -56 657 -56 L410 -56 Q324 -56 295 -37 Q266 -19 266 38 L266 215 L332 215 L332 39 Q332 18 347 12 Q361 5 412 5 L653 5 ZM828 225 Q913 98 940 2 L876 -24 Q852 75 770 203 L828 225 Z" /><glyph glyph-name="" unicode="&#x60c5;" d="M32 390 Q64 481 79 645 L129 638 Q121 483 85 372 L32 390 ZM155 835 L216 835 L216 -74 L155 -74 L155 835 ZM275 687 Q314 608 329 548 L281 523 Q269 579 230 669 L275 687 ZM810 133 L810 215 L439 215 L439 133 L810 133 ZM439 346 L439 266 L810 266 L810 346 L439 346 ZM873 2 Q873 -47 840 -60 Q812 -72 698 -70 Q694 -50 679 -13 Q764 -16 791 -14 Q810 -14 810 3 L810 82 L439 82 L439 -74 L376 -74 L376 398 L873 398 L873 2 ZM953 511 L953 459 L304 459 L304 511 L593 511 L593 586 L357 586 L357 636 L593 636 L593 703 L333 703 L333 755 L593 755 L593 835 L658 835 L658 755 L925 755 L925 703 L658 703 L658 636 L900 636 L900 586 L658 586 L658 511 L953 511 Z" /><glyph glyph-name="" unicode="&#x60dc;" d="M33 390 Q71 482 85 645 L132 638 Q120 476 81 374 L33 390 ZM173 836 L236 836 L236 -73 L173 -73 L173 836 ZM290 672 Q339 572 358 498 L314 475 Q297 548 249 655 L290 672 ZM510 303 L510 194 L819 194 L819 303 L510 303 ZM819 26 L819 138 L510 138 L510 26 L819 26 ZM445 360 L886 360 L886 -73 L819 -73 L819 -30 L510 -30 L510 -75 L445 -75 L445 360 ZM576 505 L741 505 L741 642 L576 642 L576 505 ZM953 505 L953 444 L377 444 L377 505 L512 505 L512 642 L403 642 L403 702 L512 702 L512 835 L576 835 L576 702 L741 702 L741 835 L806 835 L806 702 L927 702 L927 642 L806 642 L806 505 L953 505 Z" /><glyph glyph-name="" unicode="&#x60f3;" d="M834 727 L575 727 L575 628 L834 628 L834 727 ZM834 575 L575 575 L575 475 L834 475 L834 575 ZM834 422 L575 422 L575 321 L834 321 L834 422 ZM898 266 L513 266 L513 782 L898 782 L898 266 ZM463 271 Q555 185 601 128 L553 89 Q511 144 417 238 L463 271 ZM52 6 Q108 79 147 209 L205 187 Q156 38 110 -24 L52 6 ZM244 256 L244 534 Q171 391 80 317 Q63 343 37 363 Q156 448 231 627 L59 627 L59 686 L244 686 L244 833 L308 833 L308 686 L469 686 L469 627 L308 627 L308 567 Q379 523 475 445 L438 392 Q395 435 308 505 L308 256 L244 256 ZM626 7 Q663 7 673 27 Q684 47 687 123 Q711 104 748 98 Q741 5 719 -24 Q696 -54 631 -54 L419 -54 Q341 -54 315 -36 Q288 -18 288 36 L288 200 L353 200 L353 37 Q353 18 366 13 Q379 7 422 7 L626 7 ZM827 229 Q898 123 946 30 L884 -1 Q853 69 770 204 L827 229 Z" /><glyph glyph-name="" unicode="&#x610f;" d="M68 -17 Q139 43 186 157 L241 132 Q183 7 122 -49 L68 -17 ZM748 444 L256 444 L256 370 L748 370 L748 444 ZM748 325 L256 325 L256 251 L748 251 L748 325 ZM813 203 L461 203 Q552 153 608 99 L566 58 Q508 117 411 173 L444 203 L193 203 L193 491 L813 491 L813 203 ZM611 -11 Q643 -11 653 7 Q662 24 665 93 Q687 78 724 70 Q718 -13 697 -40 Q676 -67 617 -67 L424 -67 Q351 -67 326 -50 Q301 -33 301 17 L301 150 L366 150 L366 17 Q366 0 377 -6 Q389 -11 428 -11 L611 -11 ZM795 166 Q888 75 928 -4 L872 -33 Q828 56 742 143 L795 166 ZM334 703 Q370 643 380 600 L372 598 L616 598 Q647 653 667 703 L334 703 ZM930 598 L930 544 L76 544 L76 598 L312 598 Q298 649 273 689 L329 703 L121 703 L121 758 L486 758 Q468 794 447 828 L510 843 Q531 813 559 758 L879 758 L879 703 L681 703 L735 690 Q701 626 685 598 L930 598 Z" /><glyph glyph-name="" unicode="&#x611f;" d="M194 583 Q194 332 98 196 Q77 223 49 238 Q132 356 132 583 L132 733 L580 733 Q575 777 573 836 L637 836 Q639 782 643 733 L814 733 Q769 771 693 805 L733 837 Q819 801 861 763 L829 733 L944 733 L944 677 L649 677 Q669 529 713 428 Q783 517 823 624 L882 610 Q832 476 742 369 Q800 272 860 272 Q892 272 898 399 Q919 381 951 371 Q944 279 923 245 Q903 211 857 211 Q767 211 698 321 Q644 267 574 221 Q556 246 527 266 Q602 310 668 376 Q611 493 586 677 L194 677 L194 583 ZM468 230 Q562 140 603 80 L548 49 Q502 121 415 204 L468 230 ZM51 -17 Q100 39 156 160 L213 137 Q132 -17 112 -43 L51 -17 ZM549 558 L237 558 L237 607 L549 607 L549 558 ZM476 446 L306 446 L306 335 L476 335 L476 446 ZM530 286 L251 286 L251 495 L530 495 L530 286 ZM637 -12 Q678 -12 690 9 Q702 29 706 108 Q727 93 768 84 Q760 -9 737 -38 Q712 -67 641 -67 L406 -67 Q323 -67 295 -50 Q266 -32 266 19 L266 188 L332 188 L332 19 Q332 -1 346 -6 Q360 -12 408 -12 L637 -12 ZM822 182 Q899 82 934 -2 L871 -27 Q841 53 764 162 L822 182 Z" /><glyph glyph-name="" unicode="&#x6162;" d="M811 756 L462 756 L462 694 L811 694 L811 756 ZM811 654 L462 654 L462 591 L811 591 L811 654 ZM876 546 L399 546 L399 801 L876 801 L876 546 ZM404 354 L519 354 L519 452 L404 452 L404 354 ZM573 354 L690 354 L690 452 L573 452 L573 354 ZM744 354 L864 354 L864 452 L744 452 L744 354 ZM346 498 L925 498 L925 307 L346 307 L346 498 ZM38 390 Q71 492 83 645 L130 638 Q122 490 86 375 L38 390 ZM171 836 L233 836 L233 -73 L171 -73 L171 836 ZM298 489 Q287 571 254 663 L301 676 Q334 588 348 509 L298 489 ZM480 199 Q539 132 640 78 Q746 131 804 199 L480 199 ZM902 233 Q839 123 708 48 Q824 3 962 -17 Q945 -34 922 -73 Q768 -49 639 14 Q504 -48 325 -76 Q312 -40 293 -19 Q444 0 573 49 Q468 112 405 199 L329 199 L329 254 L847 254 L860 257 L902 233 Z" /><glyph glyph-name="" unicode="&#x61be;" d="M857 712 Q828 756 768 808 L807 835 Q870 784 898 744 L857 712 ZM35 390 Q68 492 80 644 L128 638 Q120 486 85 373 L35 390 ZM161 835 L222 835 L222 -74 L161 -74 L161 835 ZM285 466 Q273 550 236 660 L282 675 Q324 557 333 487 L285 466 ZM271 -5 Q316 62 349 186 L400 166 Q362 29 322 -33 L271 -5 ZM411 656 L411 532 Q411 313 336 202 Q315 228 291 239 Q355 338 355 532 L355 711 L688 711 Q685 754 681 839 L739 839 Q740 771 745 711 L941 711 L941 656 L749 656 Q763 520 786 437 Q831 516 857 616 L910 604 Q874 473 809 369 Q846 272 887 272 Q914 272 919 382 Q940 361 963 355 Q957 271 939 241 Q923 215 884 214 Q821 214 771 316 Q731 264 689 227 Q675 245 648 267 Q706 316 748 375 Q712 483 694 656 L411 656 ZM618 437 L498 437 L498 329 L618 329 L618 437 ZM662 281 L453 281 L453 485 L662 485 L662 281 ZM665 546 L444 546 L444 594 L665 594 L665 546 ZM658 80 Q620 146 546 218 L590 246 Q668 171 704 113 L658 80 ZM703 -8 Q729 -8 737 9 Q744 26 747 94 Q764 81 800 72 Q795 -8 777 -35 Q758 -61 708 -61 L545 -61 Q482 -61 461 -45 Q439 -29 439 19 L439 190 L497 190 L497 19 Q497 2 506 -3 Q516 -8 548 -8 L703 -8 ZM841 193 Q924 85 951 9 L902 -18 Q872 69 795 171 L841 193 Z" /><glyph glyph-name="" unicode="&#x61c2;" d="M493 710 L340 710 L340 760 L493 760 L493 834 L552 834 L552 760 L744 760 L744 834 L804 834 L804 760 L955 760 L955 710 L804 710 L804 655 L744 655 L744 710 L552 710 L552 654 L493 654 L493 710 ZM31 390 Q73 483 83 645 L134 637 Q128 475 85 370 L31 390 ZM175 835 L239 835 L239 -74 L175 -74 L175 835 ZM302 681 Q340 600 353 542 L304 519 Q290 586 256 664 L302 681 ZM677 390 L677 323 L841 323 L841 390 L677 390 ZM841 283 L677 283 L677 215 L841 215 L841 283 ZM616 215 L616 283 L456 283 L456 215 L616 215 ZM456 323 L616 323 L616 390 L456 390 L456 323 ZM677 485 L677 432 L903 432 L903 173 L677 173 L677 115 L921 115 L921 65 L677 65 L677 1 L958 1 L958 -51 L324 -51 L324 1 L616 1 L616 65 L377 65 L377 115 L616 115 L616 173 L396 173 L396 432 L616 432 L616 485 L340 485 L340 535 L616 535 L616 588 Q492 581 392 580 Q386 606 377 624 Q706 633 884 662 L919 617 Q829 602 677 592 L677 535 L960 535 L960 485 L677 485 Z" /><glyph glyph-name="" unicode="&#x6210;" d="M852 668 Q790 725 672 787 L711 828 Q824 773 893 713 L852 668 ZM884 498 Q819 301 709 160 Q769 -1 849 -1 Q889 -1 897 184 Q923 158 954 149 Q945 24 922 -22 Q899 -68 844 -68 Q735 -68 659 101 Q565 0 445 -70 Q422 -37 397 -16 Q533 56 634 172 Q578 337 559 597 L202 597 L202 462 L459 462 L459 432 Q452 128 427 98 Q410 74 370 70 Q324 66 249 71 Q247 106 230 133 Q278 129 340 129 Q363 129 371 139 Q389 159 394 401 L202 401 L202 383 Q202 71 96 -82 Q70 -52 41 -37 Q134 98 134 384 L134 662 L554 662 Q549 755 549 834 L618 834 Q618 735 622 662 L946 662 L946 597 L627 597 Q642 388 684 237 Q768 358 819 515 L884 498 Z" /><glyph glyph-name="" unicode="&#x6211;" d="M862 603 Q808 682 702 774 L753 808 Q857 721 916 642 L862 603 ZM892 403 Q825 276 717 165 Q778 -12 857 -12 Q896 -12 904 169 Q929 146 960 134 Q951 11 928 -34 Q905 -79 851 -79 Q737 -79 663 113 Q562 24 448 -38 Q430 -11 401 15 Q530 79 640 181 Q604 308 584 476 L343 476 L343 307 Q403 320 525 348 L530 288 L343 244 L343 13 Q343 -48 302 -64 Q261 -79 137 -77 Q133 -49 112 -10 Q205 -13 253 -10 Q277 -10 277 13 L277 228 L65 179 L46 246 Q142 263 277 294 L277 476 L59 476 L59 539 L277 539 L277 708 Q185 689 88 675 Q84 696 67 730 Q327 771 462 822 L510 767 Q433 741 343 721 L343 539 L577 539 Q564 682 563 827 L632 827 Q632 669 645 539 L942 539 L942 476 L652 476 Q669 337 695 236 Q782 330 833 428 L892 403 Z" /></font>
</defs>
</svg>
